<svg width="890" height="630" viewBox="0 0 890.247 630.438" fill="none" xmlns="http://www.w3.org/2000/svg">
<g id="Group 18144091">
<path id="Vector" d="M0 0H890.247V630.438H0V0Z" fill="var(--fill-0, #F2EEEE)"/>
<path id="Vector_2" d="M400.244 27.2714C409.751 27.903 416.993 41.1139 424.676 41.3628L425.136 40.8045C423.647 36.6831 417.824 34.2142 415.974 31.0184L416.538 30.6101C424 31.3838 428.089 37.3968 434.333 40.4031C439.12 42.7075 446.119 43.1256 451.352 44.7019C459.307 47.1535 466.028 52.8436 470.053 60.534C475.491 71.0099 474.178 80.3085 471.179 91.0661C475.047 86.2706 477.303 81.5315 477.347 75.0812C477.447 61.019 468.91 48.4462 456.669 43.3461C451.674 41.2653 443.089 39.5159 439.664 35.7494L440.016 35.256C443.615 34.913 463.267 37.9771 467.066 39.863C478.886 45.7304 482.737 52.2099 487.467 63.9776C486.515 49.9343 477.43 39.8052 465.31 35.1598C477.399 33.2895 483.228 35.1393 494.209 39.6236C500.642 37.6928 506.732 38.0401 512.318 41.5289C526.141 50.1648 535.204 66.1742 538.217 82.6543C538.338 83.3286 539.347 83.7669 539.912 84.0468C542.151 89.1582 543.516 100.494 541.938 105.941C540.951 109.358 539.595 112.611 538.686 116.147C547.545 106.757 546.28 96.6061 541.829 84.9008C541.138 83.0857 538.525 77.8509 540.208 76.53C543.902 79.4217 549.897 94.3763 550.601 99.0988C551.14 102.732 551.497 107.129 551.683 110.846C554.709 115.561 559.721 119.05 559.443 125.77C559.243 130.538 554.739 136.394 549.836 135.879C549.232 135.816 549.419 135.881 548.906 136.234C550.405 139.798 562.438 151.292 559.721 155.062C557.287 154.804 553.844 149.443 551.744 147.004C554.909 155.354 558.93 166.001 552.235 173.813C552.27 180.603 552.614 193.268 547.519 197.725C547.276 205.306 546.293 210.193 545.189 217.606C554.27 214.113 561.386 216.956 560.09 228.64C558.595 242.135 557.265 255.329 556.656 268.913C556.552 271.322 554.731 274.908 554.618 277.477C554.561 286.861 557.187 298.306 547.232 303.293C543.563 305.104 540.212 304.395 536.5 302.888C536.187 310.974 533.383 329.629 526.393 333.441L525.958 333.675C523.129 339.265 526.119 387.641 526.823 397.407C529.266 399.434 531.64 400.561 534.474 401.829C537.508 401.089 542.546 400.574 545.776 402.03C555.309 406.326 566.48 412.441 575.1 418.604C575.813 419.113 576.922 421.539 577.313 422.399C595.079 431.907 706.394 477.433 708.846 483.391C706.499 484.887 690.871 476.685 687.881 475.313C678.722 471.184 669.532 467.147 660.304 463.198C635.109 452.3 609.58 441.894 584.881 429.789C576.543 425.705 575.391 423.424 569.058 419.228C563.603 415.614 546.285 405.433 540.707 404.885L540.26 405.403C543.394 411.19 550.936 412.538 549.827 422.364C547.828 440.02 536.504 455.095 524.689 466.907C523.324 468.279 522.09 469.433 520.194 469.309C519.864 468.408 519.777 467.914 520.494 467.069C529.814 456.314 537.604 446.63 543.237 433.201C550.236 416.51 541.294 410.141 527.21 403.881C527.545 412.865 528.262 421.806 528.158 430.803C528.149 431.384 528.832 433.06 529.062 433.612L529.219 433.978C528.688 438.157 523.142 449.983 520.986 454.836C504.541 491.861 484.063 532.588 455.043 560.133C453.921 561.196 452.474 562.258 451.009 562.073C450.613 559.944 455.708 555.178 457.269 553.427C460.498 549.852 463.593 546.144 466.554 542.315C487.571 515.245 503.346 483.058 518.603 452.114C521.281 446.68 523.998 441.065 526.406 435.503C524.898 427.785 523.915 415.992 523.294 407.885C521.633 386.176 520.777 363.581 520.286 341.783C519.373 344.053 518.638 346.839 516.569 347.464C513.844 348.29 514.417 353.663 511.348 355.35C510.566 354.703 510.575 353.524 510.314 352.251L509.914 352.263C508.323 355.194 507.019 362.508 505.337 366.302C504.107 369.088 500.707 376.513 497.864 377.745L497.499 376.981C497.756 373.587 498.964 371.121 500.155 367.922C496.308 372.596 486.784 393.058 480.898 393.151L480.546 392.569C481.09 390.033 483.802 384.589 484.928 380.263C481.303 384.864 472.844 401.097 467.558 402.982L467.084 402.474C467.006 399.937 468.531 397.221 469.583 394.844C466.632 398.43 458.79 408.88 454.826 409.546L454.287 409.07C454.421 408.087 457.521 401.796 458.247 399.777C453.648 404.528 450.031 408.266 444.702 412.062C440.637 409.862 437.973 408.022 434.14 405.348C435.447 407.023 436.46 407.842 436.725 409.799L435.999 410.387C431.646 410.404 418.659 401.842 414.115 399.254C416.449 401.59 418.8 403.778 420.732 406.497C407.706 402.614 403.318 395.337 394.584 385.614C395.769 388.643 396.492 390.572 398.381 393.242C399.402 394.686 401.61 397.88 401.201 399.689C396.26 399.734 388.883 387.423 386.51 383.106C384.696 379.73 383.539 377.61 381.158 374.62C382.359 379.455 387.57 388.77 387.226 390.586L386.537 390.868C380.252 387.498 374.836 373.618 370.179 367.366C371.006 370.543 373.176 375.927 374.343 379.319C362.93 371.074 364.701 363.726 358.975 353.014C358.86 354.246 358.719 355.353 358.546 356.578L357.947 356.941C355.778 355.253 349.44 344.052 347.766 341.127C349.45 360.649 347.964 381.096 349.661 400.761C350.062 405.41 352.165 421.873 350.883 425.079L350.145 425.181C347.822 422.352 346.03 406.029 345.454 401.53C339.138 414.537 343.127 419.325 347.74 431.905C348.688 434.492 349.706 437.113 350.707 439.673C368.258 484.545 392.578 528.759 428.25 560.05C429.153 560.845 429.462 561.542 429.44 562.697L428.521 562.923C415.777 559.256 387.813 521.314 379.766 508.645C364.729 484.504 352.643 458.431 343.8 431.05C340.149 419.746 338.066 416.03 340.263 403.94C324.672 412.138 326.545 418.464 333.447 433.445C337.14 441.458 341.889 448.33 347.142 455.246C348.249 456.703 350.839 459.858 350.301 461.695L349.281 461.777C339.608 456.474 323.025 427.131 324.332 414.765C324.885 409.529 330.623 405.312 334.32 402.524C323.662 404.031 314.278 411.563 305.147 417.23C301.385 419.565 303.148 424.004 304.024 427.474C310.697 453.89 327.98 474.426 349.252 489.062C352.521 491.321 361.494 496.508 363.491 499.32L363.043 499.648C358.684 498.618 352.369 494.914 348.469 492.448C329.697 480.564 313.328 464.367 305.283 442.332C302.901 435.806 301.587 429.586 299.967 422.822C294.389 426.139 288.014 430.152 282.303 433.047C255.15 446.813 226.435 457.785 198.365 469.286C192.494 471.692 172.371 480.153 167.543 480.864L167.238 480.564C170.054 477.95 185.994 471.516 190.523 469.494C217.044 457.644 244.252 446.83 270.636 434.642C276.548 431.911 294.001 424.138 298.646 420.78L299.052 420.48C299.391 419.575 300.257 417.23 300.88 416.605C306.413 411.055 320.313 402.602 327.233 400.062C334.26 397.483 337.661 401.626 344.794 394.536C344.782 375.783 347.007 341.905 338.803 324.553C333.515 313.368 333.765 315.627 331.935 302.48C323.696 309.58 314.457 301.741 312.494 292.4C310.845 284.555 311.078 276.442 309.866 268.627C308.182 257.769 305.947 247.327 305.468 236.264C304.853 226.127 302.023 216.529 315.923 217.689C311.189 207.083 313.139 206.138 310.911 197.01C308.296 189.572 306.437 183.076 305.316 175.242C304.637 170.498 305.138 161.532 303.735 157.634C302.665 159.208 302.993 163.439 301.857 164.361C299.731 162.156 298.009 155.204 297.889 151.999C297.205 133.744 304.387 129.39 315.385 119.033C306.801 122.147 300.115 129.428 296.917 138.475C296.382 139.988 295.388 144.817 294.856 145.725C292.156 143.319 292.942 137.199 294.588 134.214C296.325 131.063 298.576 128.227 300.719 125.373C298.165 126.795 295.369 129.797 292.919 129.742C288.306 124.341 311.159 106.812 315.006 102.601C311.224 104.752 297.23 112.528 293.646 109.332L293.712 108.564C296.349 106.964 299.17 105.935 301.857 104.474C305.625 102.426 323.626 83.7457 324.557 80.6129C325.921 76.0285 342.87 65.0436 347.2 61.9413C338.574 65.59 330.076 68.6128 321.399 72.0583C327.228 65.3641 336.686 62.4443 344.052 57.6566C356.249 49.7297 375.342 47.0851 387.524 56.1944C393.168 60.4144 394.939 64.8847 398.028 70.9378L397.81 70.4372L399.186 69.7892L397.609 70.0714L399.067 69.3324C397.367 63.0539 396.14 58.0012 390.787 54.0306C378.939 45.2428 366.799 47.8518 354.022 49.8484C369.563 34.5138 384.405 37.3653 402.654 43.3892C399.216 40.0551 395.224 37.4303 390.882 35.6491C388.136 34.5552 381.657 33.6665 380.112 32.1126L380.81 31.5795C390.595 30.3529 400.947 34.2814 410.152 37.3524C407.419 33.6753 401.002 29.3192 400.244 27.2714Z" fill="var(--fill-0, #EB0C57)"/>
<path id="Vector_3" d="M427.634 57.0124C430.025 56.8886 432.42 56.8835 434.812 56.9976C452.765 57.7329 466.806 68.4092 460.972 90.226C460.029 93.7574 457.777 96.2034 457.564 100.231L458.042 100.711C459.907 100.418 462.281 98.8443 464.011 97.843C463.515 98.321 463.024 98.8055 462.541 99.297C461.363 100.502 461.09 100.768 461.068 102.253L461.889 102.949C467.358 103.746 479.638 96.7318 484.75 93.9237C482.455 97.0588 474.161 103.518 473.687 104.552L474.069 105.419C480.794 108.243 495.221 100.547 501.29 96.7576C497.347 102.31 494.561 103.815 489.123 107.704C492.991 108.027 495.591 108.291 499.021 110.398C512.361 118.598 522.272 134.206 526.871 149.347C524.672 146.765 522.346 141.942 520.042 140.662L519.529 141.196C518.956 156.218 531.609 167.701 535.417 180.756C532.031 175.847 528.241 171.595 524.641 166.886C523.224 165.026 521.294 158.247 519.629 157.698C518.773 158.992 518.786 161.728 518.699 163.329C517.991 176.133 525.619 179.694 529.566 188.892C531.322 192.988 533.765 207.681 534.17 212.31C527.519 209.354 526.893 208.156 519.768 208.328C507.267 184.981 494.456 185.447 471.748 190.42C456.225 193.821 451.883 198.687 443.511 212.579C432.564 210.258 429.202 209.359 418.853 214.147C414.26 206.673 413.667 203.066 406.541 197.256C406.34 197.122 406.135 196.991 405.929 196.865C394.366 189.819 374.185 190.106 361.628 194.045C349.468 197.858 348.505 202.969 343.075 213.341C334.083 213.204 334.04 216.504 327.534 217.464C327.672 217.267 328.867 215.506 328.866 215.486C327.639 199.744 337.387 191.776 340.468 177.624C342.255 176.57 341.697 178.328 344.343 177.95C345.232 175.784 343.28 172.73 342.249 170.688C330.228 145.577 339.2 128.398 357.896 112.494C369.839 102.336 377.342 113.475 381.93 109.825C380.596 108.135 367.87 103.286 365.821 98.7233C365.553 98.1248 361.464 93.8147 360.525 92.5894C353.75 83.7554 350.321 81.7269 340.145 79.613L340.455 78.8671C353.982 73.0172 364.989 94.6105 374.445 101.01C383.821 107.355 392.95 108.901 403.859 108.245C406.386 108.094 413.233 109.868 414.664 107.028C413.838 105.52 410.89 103.367 409.322 101.848C411.466 102.107 416.788 103.581 419.04 104.209C430.795 107.486 436.121 104.248 446.771 99.9048C445.241 101.85 442.911 103.314 442.585 105.044C443.124 105.546 443.037 105.634 443.789 105.66C447.045 105.774 451.578 103.273 453.904 101.036C458.06 97.0348 458.716 93.1732 458.942 87.8188C460.281 56.4498 423.214 62.9773 419.106 57.9583C420.312 57.0706 425.801 57.0807 427.634 57.0124Z" fill="var(--fill-0, #F2EEEE)"/>
<path id="Vector_4" d="M428.81 214.84C432.274 214.516 440.276 214.681 442.498 218.47C443.767 221.217 443.593 225.032 444.367 227.972C452.23 257.848 480.572 268.359 504.541 251.643C515.66 244.222 518.208 230.4 519.529 217.597C519.981 213.186 531.418 216.967 533.578 217.867C533.313 234.772 533.144 251.687 530.344 268.347C530.018 269.612 528.975 280.38 528.666 280.726C524.428 285.437 527.141 289.193 526.628 296.008C525.367 294.624 526.276 291.52 524.298 289.439L523.459 289.525C521.733 291.929 522.963 306.468 522.211 312.197C521.82 309.476 520.929 300.534 518.464 299.403C516.765 301.395 517.147 308.114 517.099 310.91C516.991 317.126 516.734 322.099 514.643 328.015C514.761 323.726 515.947 303.597 512.035 301.316L511.396 301.652C510.457 303.68 510.657 312.569 510.631 315.318C510.301 313.677 510.231 312.185 509.114 311.14L508.379 311.268C506.767 314.382 507.64 327.617 506.184 334.678C505.341 329.853 505.55 319.562 503.081 316.305L502.45 316.584C500.803 320.888 501.742 332.52 501.203 338.461C500.581 336.506 499.764 332.188 497.616 332.202C497.143 333.03 496.782 334.132 496.825 335.102C497.143 342.438 497.386 348.64 496.578 355.974C494.043 344.406 493.748 345.504 487.584 336.42C487.701 334.487 488.679 336.293 489.818 334.181C489.74 328.023 491.722 303.71 489.14 299.963C487.884 298.134 486.61 296.252 484.897 294.866C483.832 294.002 483.289 293.888 482.011 294.095L481.607 294.928L482.302 297.245C479.181 296.967 474.069 290.364 470.174 290.055L469.662 290.543C469.909 291.72 473.374 297.632 474.274 299.594C471.166 296.93 461.181 284.854 457.399 285.725L457.216 286.767C457.686 289.106 459.629 291.681 460.955 293.72C458.368 291.664 448.901 281.571 446.345 283.303L446.249 284.68L445.819 284.888L443.202 283.499C441.515 283.696 442.167 283.428 440.742 284.724L440.807 285.42C438.985 285.18 437.773 284.879 436.025 285.506C434.631 286.821 434.031 288.75 433.239 290.611L432.888 289.343C432.436 287.675 432.467 287.375 431.361 286.079C429.444 286.105 430.228 287.808 428.343 288.188C428.315 286.686 428.327 286.47 427.953 285.041C426.108 284.14 422.694 285.229 420.556 285.716L420.19 283.672L419.468 283.193C416.659 283.734 409.482 290.882 406.234 293.367C407.721 291.184 410.263 288.212 409.885 285.665L409.193 285.329C404.387 286.512 395.705 295.466 391.557 299.213C393.08 297.017 395.881 293.55 395.836 290.9L395.239 290.33C391.889 290.948 385.38 297.801 382.598 300.447C383.455 298.895 384.882 296.56 385.298 294.915C382.174 294.113 379.102 297.139 377.941 299.94C374.585 308.037 375.74 317.868 376.918 326.354C377.33 329.325 377.105 331.202 378.015 334.254C373.817 340.849 372.402 343.925 370.562 351.607C369.398 345.671 369.842 330.961 368.083 327.929L367.385 327.906C365.718 330.252 365.933 338.895 365.885 342.049L365.803 341.724C364.021 334.412 364.061 328.943 363.528 321.468C363.412 319.839 363.182 317.172 361.96 316.094L361.331 316.691C359.713 321.671 360.397 331.61 360.333 337.473C358.915 331.317 358.186 326.369 358.17 319.989C358.163 317.166 358.892 307.835 356.958 306.194L356.256 306.732C354.361 310.546 354.533 316.315 354.321 320.713C352.07 315.14 352.706 304.711 350.392 301.657L349.682 301.784C347.821 304.678 348.172 310.899 347.716 314.9C346.566 309.285 346.783 296.888 345.278 294.191L344.49 294.079C343.235 295.324 343.08 296.947 342.634 298.791C342.524 295.886 342.672 285.931 340.692 284.262L339.463 284.929C339.023 283.835 337.307 272.968 336.97 271.109C334.521 257.624 329.458 236.031 329.456 222.673C332.062 221.576 341.915 217.948 343.043 222.211C345.759 232.48 347.749 241.726 354.06 250.466C361.057 260.358 374.513 263.641 385.66 262.986C400.641 262.106 411.855 249.925 416.707 235.552C418.551 230.089 419.101 226.084 419.737 220.422C422.76 216.334 424.195 215.877 428.81 214.84Z" fill="var(--fill-0, #F2EEEE)"/>
<path id="Vector_5" d="M408.5 257.129L408.99 257.57C409.71 259.898 402.592 271.462 409.462 275.056C411.556 276.151 415.344 276.372 416.239 278.011L415.498 279.037C401.678 280.274 401.459 266.443 408.5 257.129Z" fill="var(--fill-0, #EB0C57)"/>
<path id="Vector_6" d="M455.343 256.191C457.99 257.034 460.598 260.838 461.189 263.645C461.946 267.121 461.354 270.774 459.55 273.783C457.529 277.142 455.764 277.771 452.339 278.576C451.23 278.488 451.017 278.538 450.048 277.9C450.131 276.26 456.299 274.817 457.781 271.977C461.25 265.331 456.103 261.572 455.343 256.191Z" fill="var(--fill-0, #EB0C57)"/>
<path id="Vector_7" d="M446.958 271.591C449.223 271.452 450.031 271.345 451.831 272.784L451.644 273.548C449.388 275.003 445.415 275.358 444.354 276.023C440.146 278.661 441.068 280.152 435.595 281.739C434.009 281.803 432.276 281.876 430.971 280.934L431.044 280.352C432.049 280.117 436.321 279.369 436.686 279.143C441.298 276.291 441.616 273.838 446.958 271.591Z" fill="var(--fill-0, #EB0C57)"/>
<path id="Vector_8" d="M415.659 272.096C420.047 271.918 424.764 273.483 426.95 277.894L426.703 278.675L425.756 279.154C424.63 278.234 423.223 277.067 421.937 276.469C420.038 275.585 415.892 275.505 414.457 274.231C414.477 272.916 414.453 273.352 415.659 272.096Z" fill="var(--fill-0, #EB0C57)"/>
<path id="Vector_9" d="M419.139 251.925C420.862 253.443 418.871 258.395 418.271 260.538C417.994 260.249 417.614 259.659 417.368 259.307C417.162 256.234 417.982 254.663 419.139 251.925Z" fill="var(--fill-0, #EB0C57)"/>
<path id="Vector_10" d="M489.523 190.471C508.049 188.496 520.434 206.752 516.365 225.128C514.252 234.692 512.683 243.066 504.289 249.029C495.421 255.332 485.702 258.704 475.043 256.769C469.653 255.312 464.185 252.763 459.846 249.05C448.631 239.449 440.855 217.971 451.135 204.85C460.272 193.192 476.347 191.943 489.523 190.471Z" fill="var(--fill-0, #F2EEEE)"/>
<path id="Vector_11" d="M467.962 213.548C465.524 214.68 458.408 218.535 457.677 221.289C458.334 222.107 458.603 222.285 459.386 222.909L459.168 223.607C457.512 224.438 454.947 224.159 454.174 222.152C454.861 219.005 459.716 214.949 462.189 213.285C470.814 207.479 482.981 209.236 491.531 214.294C494.174 215.859 502.124 220.489 502.62 223.528C500.581 225.934 497.491 222.55 495.174 222.309C493.931 223.778 493.126 224.975 491.179 224.901L490.836 224.166C491.488 222.558 492.496 222.123 493.918 221.152C490.653 218.739 488.771 217.357 485.098 215.525C484.824 221.854 482.311 227.799 475.287 227.314C472.974 227.169 470.814 226.019 469.323 224.134C467.693 222.042 466.98 219.315 467.354 216.63C467.488 215.64 467.74 214.526 467.962 213.548Z" fill="var(--fill-0, #EB0C57)"/>
<path id="Vector_12" d="M478.452 193.235C481.308 192.686 490.358 192.939 493.614 193.396C501.364 194.485 506.359 198.438 510.993 204.926C501.164 201.162 496.909 199.875 486.363 201.226C475.657 202.041 463.633 204.28 452.818 205.307C459.43 196.647 468.558 194.548 478.452 193.235Z" fill="var(--fill-0, #EB0C57)"/>
<path id="Vector_13" d="M477.564 204.81C485.267 205.014 492.439 206.72 498.877 211.493C499.946 212.284 501.859 213.813 502.072 215.177C500.633 215.797 499.512 214.643 498.282 213.744C492.405 209.456 485.554 207.95 478.507 207.636C465.349 207.804 462.763 210.791 452.387 217.028C457.855 207.272 467.736 205.43 477.564 204.81Z" fill="var(--fill-0, #EB0C57)"/>
<path id="Vector_14" d="M448.536 229.098C453.391 228.897 455.521 231.619 453.039 236.278C452.344 236.388 451.931 236.328 451.231 236.299C450.21 234.764 452.218 234.709 451.275 232.245C449.888 231.201 449.14 230.825 448.536 229.098Z" fill="var(--fill-0, #EB0C57)"/>
<path id="Vector_15" d="M377.568 194.173C386.171 193.643 398.609 194.825 405.774 200.209C413.22 205.882 417.703 217.732 415.948 227.331C412.59 245.705 402.367 257.851 385.013 260.741C377.022 261.322 366.139 258.552 359.882 253.114C352.81 246.648 346.741 233.587 346.072 223.647C344.529 200.744 360.278 195.571 377.568 194.173Z" fill="var(--fill-0, #F2EEEE)"/>
<path id="Vector_16" d="M381.394 212.025C377.034 212.715 373.083 213.812 369.034 215.701C367.384 216.47 362.551 219.195 361.019 218.668C366.268 212.279 377.316 209.865 384.995 208.999C390.533 208.374 405.408 210.161 407.755 216.654L407.449 217.164C404.947 216.687 402.458 214.457 400.294 213.466C398.178 212.498 393.193 212.037 390.795 211.852L390.88 212.076C395.564 213.11 407.339 217.513 407.553 223.693C406.26 225.674 404.338 226.116 402.331 225.1L402.285 224.418L404.269 222.807C403.829 220.176 397.984 217.383 395.781 216.441L395.292 216.574C395.265 220.099 395.731 223.636 393.215 226.375C389.552 230.362 383.137 230.352 379.613 226.128C377.482 223.574 377.581 220.497 377.629 217.294C374.157 219.197 371.577 220.499 368.608 223.3L367.072 225.068C365.376 226.012 361.695 228.098 359.991 226.862C361.234 221.648 376.673 213.954 381.612 212.883L381.394 212.025Z" fill="var(--fill-0, #EB0C57)"/>
<path id="Vector_17" d="M381.393 212.025C383.534 211.657 384.665 211.347 386.81 211.724C386.142 212.594 383.749 212.657 382.554 212.785L381.612 212.883L381.393 212.025Z" fill="var(--fill-0, #F696C2)"/>
<path id="Vector_18" d="M377.101 196.02C383.434 195.611 398.511 196.626 402.577 201.916L402.433 202.685C399.951 204.33 377.363 204.474 372.856 204.663C362.227 204.945 359.476 206.055 350.152 210.782C357.335 198.435 364.428 197.206 377.101 196.02Z" fill="var(--fill-0, #EB0C57)"/>
<path id="Vector_19" d="M411.807 230.809L413.501 231.019L413.775 231.652C411.363 234.746 410.817 234.301 412.386 237.735C411 238.202 410.381 237.769 409.354 236.974C408.085 234.141 409.715 232.235 411.807 230.809Z" fill="var(--fill-0, #EB0C57)"/>
<path id="Vector_20" d="M367.072 225.068L368.607 223.3C369.756 224.328 370.811 224.975 371.152 226.445L370.782 226.957C369.122 226.856 368.448 226.107 367.072 225.068Z" fill="var(--fill-0, #EB0C57)"/>
<path id="Vector_21" d="M389.761 312.314C399.377 315.29 406.528 313.124 416.239 313.065C421.231 312.587 427.434 314.134 432.264 313.707C443.733 312.692 454.522 314.32 465.897 314.509C468.771 314.557 472.848 313.162 475.665 312.322C477.486 320.887 478.204 318.478 482.881 325.417C483.342 326.1 486.654 334.578 487.189 335.933C485.233 334.303 481.872 330.708 479.538 332.351C478.886 334.892 482.177 343.316 483.094 347.204C481.612 345.214 477.704 339.181 475.078 340.535C474.317 343.232 478.443 355.179 479.408 360.102C478.043 357.947 474.196 351.49 471.635 352.34C470.214 356.261 476.904 372.227 473.878 374.879C473.148 373.063 473.452 370.474 473.2 368.431C472.687 364.242 468.532 349.55 463.485 349.863L463.098 350.618C464.276 355.513 464.672 358.308 464.859 363.287C463.694 361.057 462.15 357.361 459.534 357.302L459.008 358.308C458.773 360.272 459.79 362.83 460.403 364.787C458.482 362.291 452.939 354.512 450.496 353.752C449.557 354.769 449.927 356.603 450.183 357.958C451.148 363.029 451.348 367.109 451.148 372.259C449.275 369.271 443.607 355.607 441.111 355.649C439.264 358.166 439.077 369.212 438.842 372.894C435.843 367.693 435.204 360.281 433.166 358.446L432.2 358.547C430.86 359.795 429.835 363.011 428.867 365.015L428.48 364.741C428.012 361.868 428.744 357.607 428.842 354.28L428.16 353.701L427.059 353.952C424.154 356.231 421.901 361.279 420.102 364.707L419.301 365.535L418.561 365.182C417.212 361.673 422.268 345.981 424.24 343.039L424.823 342.991C425.646 345.191 424.337 350.605 425.396 353.399L426.061 353.602C427.48 352.639 430.679 347.521 432.065 345.587C432.013 348.166 431.283 353.101 433.626 354.335C436.065 353.034 437.908 347.049 438.99 344.238C439.107 344.798 439.225 345.357 439.347 345.915C439.751 347.761 439.886 349.262 441.403 350.264C443.602 349.245 443.58 343.907 444.906 340.848C445.954 342.659 445.884 343.838 447.249 344.892L448.023 344.478C449.297 342.717 449.353 338.033 449.544 335.576C450.357 336.849 450.488 337.292 451.727 337.942L452.535 337.507C453.391 335.019 452.626 332.219 451.314 330.04C449.766 327.482 447.362 328.602 445.024 329.019C438.342 330.211 431.443 329.885 424.713 329.369C421.602 329.116 417.509 327.253 414.36 326.66C413.098 326.423 413.057 326.35 412.171 327.063C412.449 328.404 413.681 329.35 414.722 330.46C415.127 333.392 412.573 334.278 413.787 337.369L415.192 337.77L415.316 341.992L415.878 342.469C417.522 342.022 418.59 340.818 419.926 339.631C419.321 343.669 418.977 344.699 420.591 348.369C409.369 357.29 409.78 368.95 411.016 382.201C405.596 368.855 407.537 366.336 411.808 353.765L411.194 353.016C406.84 352.759 403.048 361.714 401.468 365.052C401.124 361.522 401.71 351.299 400.095 349.873C397.71 350.242 395.547 354.025 394.14 356.049C394.829 353.353 396.133 349.864 394.975 347.456L394.112 347.198C391.303 348.805 389.753 352.576 388.17 355.568C388.807 351.726 392.107 340.642 390.699 338.438L389.551 338.404C387.57 339.177 385.813 341.245 384.246 342.836C385.339 339.559 388.937 333.529 388.273 331.159L387.409 330.833C385.594 331.079 384.144 332.404 382.607 333.534C384.026 326.33 385.238 323.761 389.372 317.691C389.445 315.779 389.572 314.215 389.761 312.314Z" fill="var(--fill-0, #F2EEEE)"/>
<path id="Vector_22" d="M550.623 219.404C555.704 219.549 557.16 223.024 556.539 227.902C554.93 240.574 554.035 253.039 553.47 265.809C553.335 269.262 551.631 274.154 551.605 277.436C551.54 286.762 554.5 296.303 543.863 300.416C539.92 300.511 536.895 299.301 536.947 294.594C537.199 272.131 538.716 249.532 538.399 227.053C538.634 226.967 538.869 226.88 539.103 226.794L539.447 226.649C543.672 224.915 544.511 221.436 550.623 219.404Z" fill="var(--fill-0, #F2EEEE)"/>
<path id="Vector_23" d="M538.847 249.605C541.725 251.003 545.494 260.22 546.328 263.398C547.741 268.774 544.172 273.621 541.551 277.895C540.747 278.726 541.212 278.489 540.117 278.654L539.639 277.787C539.469 274.083 542.36 271.448 543.307 268.343C545.45 261.325 536.9 256.514 538.847 249.605Z" fill="var(--fill-0, #EB0C57)"/>
<path id="Vector_24" d="M552.627 226.174L553.957 226.424L554.127 227.018C552.475 229.707 550.54 231.555 548.984 234.288C546.911 237.937 545.441 244.032 542.942 247.146L542.312 246.939C540.169 242.636 549.075 229.204 552.627 226.174Z" fill="var(--fill-0, #EB0C57)"/>
<path id="Vector_25" d="M311.177 221.232C317.334 221.532 319.649 225.969 325.253 229.909C325.577 250.417 330.126 272.093 330.696 292.717C330.795 296.294 329.488 298.688 327.188 301.052C321.818 302.736 316.736 296.288 315.886 291.306C314.563 283.558 313.913 275.535 312.937 267.716L309.309 237.052C308.616 230.874 306.094 225.198 311.177 221.232Z" fill="var(--fill-0, #F2EEEE)"/>
<path id="Vector_26" d="M325.319 249.642C328.896 252.483 322.098 260.674 321.846 265.09C321.487 271.395 330.988 275.166 325.46 280.429C323.788 278.587 319.204 269.288 319.021 266.453C318.692 261.363 322.299 253.401 325.319 249.642Z" fill="var(--fill-0, #EB0C57)"/>
<path id="Vector_27" d="M310.036 227.585C315.174 228.155 323.647 242.766 323.542 248.242L322.427 247.904C320.565 246.192 316.412 236.701 314.204 233.911C312.974 232.357 310.446 229.334 310.036 227.585Z" fill="var(--fill-0, #EB0C57)"/>
<path id="Vector_28" d="M426.768 297.336C427.162 299.532 424.948 301.739 426.616 303.483C430.324 303.165 437.495 304.645 440.638 302.32C441.207 300.852 440.69 298.839 440.446 297.155C441.911 299.056 444.419 302.523 446.649 303.288C447.406 302.53 447.293 301.376 447.454 300.029C449.062 300.688 450.966 304.582 454.083 305.462C455.73 304.923 454.496 305.225 455.582 303.108C457.073 304.542 459.755 306.896 461.651 307.491L462.037 306.96C461.377 304.203 460.507 302.138 459.481 299.536C462.598 302.588 465.745 308.371 469.432 309.759L469.658 310.521C466.628 312.493 453.448 310.844 449.218 310.461C438.425 310.105 427.057 311.191 416.085 310.126C411.818 309.712 399.198 312.528 395.959 310.225L396.481 309.488C399.174 309.119 403.456 304.182 406.104 301.879C405.31 303.421 404.404 304.828 404.407 306.577C405.624 307.639 409.303 304.347 409.546 304.633C411.18 306.562 412.929 304.935 414.72 303.535C416.446 302.185 418.333 300.031 419.939 298.225C419.012 300.204 417.941 301.645 418.825 303.793L419.761 303.879C423.17 302.142 424.332 300.366 426.768 297.336Z" fill="var(--fill-0, #F2EEEE)"/>
<path id="Vector_29" d="M498.699 42.0736C503.642 41.8068 509.684 44.994 513.131 48.6503C517.195 52.9521 519.486 58.796 519.49 64.893C519.503 74.4165 514.735 81.6839 508.762 88.1596C507.323 89.4976 505.798 90.3437 504.146 91.3593C518.821 71.0435 516.63 58.5018 498.699 42.0736Z" fill="var(--fill-0, #F2EEEE)"/>
<path id="Vector_30" d="M380.603 70.4372C381.47 71.2399 382.174 73.1871 382.533 74.303C386.705 87.2872 393.558 97.0514 405.116 103.557C406.741 104.472 409.017 105.601 410.513 106.801C402.71 106.465 395.413 102.238 390.06 96.3424C383.777 89.396 380.372 80.0679 380.603 70.4372Z" fill="var(--fill-0, #F2EEEE)"/>
<path id="Vector_31" d="M525.98 66.3372C529.006 69.2446 529.284 78.5899 528.649 82.6025C527.332 90.9054 525.411 98.9837 517.186 101.765C515.539 101.596 515.539 101.911 514.691 100.953C515.309 98.9921 517.382 97.879 518.586 96.2643C525.741 86.684 526.254 77.4653 525.98 66.3372Z" fill="var(--fill-0, #F2EEEE)"/>
<path id="Vector_32" d="M473.544 37.7311C473.926 37.4526 474.174 37.4445 474.652 37.3006C477.173 37.8143 478.969 38.4852 481.172 39.9127C492.753 47.4125 499.421 60.1321 491.801 73.4484C491.344 74.0216 491.009 74.2267 490.44 74.6682C489.766 73.8941 490.47 71.7807 490.788 70.6907C494.809 56.8922 486.25 43.771 474.396 38.5887C473.613 38.2457 473.983 38.5145 473.544 37.7311Z" fill="var(--fill-0, #F2EEEE)"/>
<path id="Vector_33" d="M357.317 64.3411C360.07 64.1545 364.413 63.6871 365.892 66.6605C364.634 68.9444 356.507 67.9962 353.464 68.937C348.344 70.5194 343.847 72.4749 338.949 74.6207C336.181 75.9379 333.392 77.2038 330.582 78.4172C337.291 71.1928 347.995 65.9031 357.317 64.3411Z" fill="var(--fill-0, #F2EEEE)"/>
<path id="Vector_34" d="M409.367 60.4522C410.584 60.9774 412.296 62.3181 413.564 63.0728C422.048 68.1228 438.395 72.909 441.816 83.6472C440.638 83.0223 435.196 77.9068 433.303 76.6367C425.912 71.6777 413.707 68.7491 409.367 60.4522Z" fill="var(--fill-0, #F2EEEE)"/>
<path id="Vector_35" d="M339.303 91.5681C342.553 91.2545 345.167 92.2854 348.219 93.2904C337.748 95.1299 335.627 93.93 324.822 99.3042C322.312 100.68 320.636 101.313 318.013 102.309C323.342 96.5368 331.872 92.8585 339.303 91.5681Z" fill="var(--fill-0, #F2EEEE)"/>
<path id="Vector_36" d="M316.011 148.024L316.606 148.632C317.5 152.372 315.632 172.756 314.487 176.498C312.257 170.031 313.277 154.069 316.011 148.024Z" fill="var(--fill-0, #F2EEEE)"/>
<path id="Vector_37" d="M498.482 47.5266C506.558 52.5346 510.479 65.8241 508.762 75.362L507.971 75.5287C507.684 73.3469 507.849 70.7965 507.449 67.9828C506.123 58.7087 502.294 54.7566 498.482 47.5266Z" fill="var(--fill-0, #F2EEEE)"/>
<path id="Vector_38" d="M541.281 151.836C547.545 155.128 548.28 169.236 547.489 175.57C546.515 174.129 545.85 169.191 545.572 167.083C544.868 161.696 542.325 156.579 541.281 151.836Z" fill="var(--fill-0, #F2EEEE)"/>
<path id="Vector_39" d="M321.8 171.191L322.168 171.542C323.406 174.59 321.369 190.974 320.487 194.689C318.43 189.547 319.766 176.677 321.8 171.191Z" fill="var(--fill-0, #F2EEEE)"/>
<path id="Vector_40" d="M441.711 377.184C444.346 379.711 443.176 391.733 442.263 395.265C439.89 389.941 440.025 382.698 441.711 377.184Z" fill="var(--fill-0, #F2EEEE)"/>
<path id="Vector_41" d="M333.491 217.6L333.768 217.649L333.928 218.069C332.156 219.414 325.693 222.008 323.332 223.022L322.647 222.482L322.607 221.758C324.229 219.876 330.961 218.317 333.491 217.6Z" fill="var(--fill-0, #F2EEEE)"/>
<path id="Vector_42" d="M527.95 212.528C529.415 212.551 534.653 214.261 536.244 214.939C538.882 216.068 539.891 215.953 540.995 218.454C538.169 218.331 530.753 214.104 527.95 212.528Z" fill="var(--fill-0, #F2EEEE)"/>
<path id="Vector_43" d="M423.936 374.86C424.452 375.759 425.734 384.765 426.297 387.225C423.023 384.785 423.277 378.54 423.936 374.86Z" fill="var(--fill-0, #F2EEEE)"/>
<path id="Vector_44" d="M453.087 381.349C453.839 384.007 453.178 386.577 452.2 389.038C451.713 387.02 452.383 383.28 453.087 381.349Z" fill="var(--fill-0, #FBD5E6)"/>
<path id="Vector_45" d="M439.346 559.533C441.95 559.422 445.48 558.905 447.532 560.457C449.309 565.574 447.579 584.667 448.144 591.156C448.809 598.842 447.314 599.077 441.102 598.92C438.729 598.971 434.791 599.336 432.724 598.288C432.55 597.863 432.359 597.128 432.36 596.666C432.381 591.96 431.176 562.632 433.153 560.101C434.939 559.307 437.355 559.519 439.346 559.533Z" fill="var(--fill-0, #EB0C57)"/>
<path id="Vector_46" d="M435.717 563.029H443.945C444.189 573.412 443.932 584.834 443.885 595.295C441.294 595.447 438.534 595.424 435.925 595.456C435.465 586.242 435.526 572.252 435.717 563.029Z" fill="var(--fill-0, #F2EEEE)"/>
<path id="Vector_47" d="M362.956 463.568C365.343 464.002 378.745 472.325 382.163 473.983C404.698 484.892 429.193 489.843 453.804 488.384C461.498 487.926 469.14 486.758 476.639 484.892C482.12 483.562 487.532 481.931 492.853 479.996C495.157 479.183 502.842 475.78 504.772 476.754C504.385 478.08 504.411 477.729 503.207 478.786C482.377 490.476 459.612 493.889 435.169 492.249C412.589 490.73 381.998 482.412 363.605 466.404C362.664 465.582 362.821 464.672 362.956 463.568Z" fill="var(--fill-0, #EB0C57)"/>
<path id="Vector_48" d="M573.044 426.592C573.37 426.934 573.966 427.553 573.909 428.095C570.645 460.907 546.524 485.372 519.086 497.889C514.404 500.027 510.127 501.815 505.276 502.992C505.093 502.757 504.789 501.999 504.88 501.902C506.419 500.23 517.312 495.196 518.495 494.55C538.604 483.59 556.482 469.004 565.824 446.543C568.376 440.412 570.401 432.018 573.044 426.592Z" fill="var(--fill-0, #EB0C57)"/>
<path id="Vector_49" d="M390.972 508.525C395.243 508.271 405.635 512.183 410.499 513.185C427.047 516.598 443.128 517.578 459.924 516.252C462.272 516.063 472.444 514.682 473.556 515.582L472.752 516.502C456.143 522.173 430.101 521.513 413.256 517.365C408.445 516.178 393.465 512.622 390.972 508.525Z" fill="var(--fill-0, #EB0C57)"/>
<path id="Vector_50" d="M462.194 414.068C462.455 414.253 462.968 414.8 463.224 415.055C464.528 423.814 450.718 433.545 443.367 435.025C442.72 434.543 442.985 434.844 442.698 433.995C443.811 432.554 447.597 430.579 449.514 429.032C455.1 424.522 458.286 420.031 462.194 414.068Z" fill="var(--fill-0, #EB0C57)"/>
</g>
</svg>
