<svg preserveAspectRatio="none" width="100%" height="100%" overflow="visible" style="display: block;" viewBox="0 0 90.7813 114.363" fill="none" xmlns="http://www.w3.org/2000/svg">
<path id="Vector" d="M36.2527 19.966L86.2823 0.492621M36.2527 19.966L44.9315 59.1068L90.4306 65.0287M36.2527 19.966L50.935 29.6472L82.3766 25.1451M86.2823 0.492621L90.4306 65.0288M86.2823 0.492621L82.3766 25.1451M86.2823 0.492621L46.1686 21.3496M90.4306 65.0288L84.61 58.7165M90.4306 65.0288L63.9021 113.993M82.3766 25.1451L84.61 58.7165M82.3766 25.1451L65.9324 39.659M84.61 58.7165L55.8277 55.4826M84.61 58.7165L71.4079 79.6354M55.8277 55.4824L50.935 29.6471L33.8948 41.4052M55.8277 55.4824L44.9315 59.1066M55.8277 55.4824L40.9367 70.7243M40.9367 70.7243L71.4079 79.6354M40.9367 70.7243L33.8948 41.4052M40.9367 70.7243L17.4555 83.7386L63.4667 113.943L63.9021 113.993M33.8948 41.4052L65.9324 39.659M65.9324 39.659L71.4079 79.6354M65.9324 39.659L46.1686 21.3496M71.4079 79.6354L63.9021 113.993M63.9021 113.993L46.1686 21.3496M44.9313 59.1068L17.4557 83.7386L1.15674 33.636M1.15674 33.6362L36.2525 19.9662M1.15674 33.6362L33.8948 41.4054M1.15674 33.6362L46.1688 21.3498" stroke="var(--stroke-0, #1B1D1E)" stroke-width="0.69023"/>
</svg>
