<svg width="770" height="933" viewBox="0 0 770 933" fill="none" xmlns="http://www.w3.org/2000/svg">
<path d="M0.14107 0.101284L582.913 0L583 884.751L0 884.829L0.14107 0.101284Z" fill="#137B46"/>
<path d="M1.71395 1.93748C25.0207 2.79799 52.0456 2.14006 75.7037 2.14612L213.804 2.21191L580.906 1.98769C580.17 28.0037 580.828 57.5916 580.785 83.9548L580.828 267.98L580.637 882.829L1.70703 882.933L1.71395 1.93748Z" fill="#B3FFD6"/>
<path d="M393.013 456.608L559.121 456.098C558.81 479.115 559.468 503.085 559.476 526.254L559.58 728.637L217.62 730.846C175.949 731.355 134.274 731.605 92.598 731.595C72.1171 731.747 37.4699 733.049 17.9384 731.412C17.3672 687.731 17.7428 643.392 17.7428 599.652C44.3505 598.798 73.2033 599.126 99.9183 599.082L261.802 598.567C360.021 597.316 459.888 598.237 558.265 598.074L558.178 581.845C500.468 580.901 440.099 581.749 382.219 581.845L17.3403 582.232C17.1681 540.785 17.3663 499.337 17.9349 457.895L393.013 456.608Z" fill="#137B46"/>
<path d="M19.906 601.608C41.7665 600.655 66.9107 601.287 89.1148 601.172L230.232 600.703C339.378 599.849 448.527 599.669 557.676 600.165V629.278L539.773 629.34L539.643 640.455L521.022 640.763L520.247 629.469C514.039 629.38 511.127 629.482 504.992 630.31L504.488 634.22C501.391 638.132 493.114 638.161 489.06 635.593C487.697 634.731 487.758 631.774 487.559 630.2C483.939 629.962 479.136 629.235 476.048 630.75C474.013 632.825 474.025 632.984 473.179 635.845C468.981 636.624 459.019 637.204 454.78 636.541L454.659 636.017C454.272 634.417 454.289 633.941 453.128 632.75C448.13 632.289 443.239 631.391 438.895 634.122C437.432 636.521 437.509 636.856 437.122 639.722C432.797 642.201 401.287 641.104 393.926 641.036L393.699 629.733C383.156 629.725 369.27 629.33 359.028 630.311C356.475 633.536 359.941 635.242 354.648 635.664C348.421 636.159 341.291 635.877 335 635.793L334.829 626.001C329.586 625.93 320.16 625.46 315.378 626.546C314.263 628.182 314.333 629.114 314.105 631.068C311.751 632.969 302.096 631.759 300.607 632.707C296.103 635.574 299.664 635.078 293.097 635.41L278.232 635.467C274.262 635.555 257.485 636.153 256.291 633.668C252.986 626.795 250.116 628.566 239.781 628.877L239.718 642.329C220.428 642.334 200.017 642.691 180.823 642.29L181.192 630.002C170.59 630.832 158.013 629.873 148.736 631.225C146.173 634.426 149.157 635.895 146.676 638.512C142.297 638.914 118.972 639.594 116.209 637.853C115.99 634.733 116.539 632.956 114.755 631.338C108.774 631.072 103.96 631.276 98.0216 631.532L97.9315 632.192C97.6113 634.43 97.671 634.788 96.584 636.678C91.25 637.578 78.3308 637.165 72.9319 636.198L70.9664 636.191C65.7181 636.49 58.7898 636.251 53.4143 636.222L52.9512 626.495C42.0729 626.357 30.7419 626.601 19.8281 626.678L19.906 601.608Z" fill="#B3FFD6"/>
<path d="M278.232 635.467C280.944 624.788 292.072 624.048 295.282 631.283C294.644 634.413 295.294 633.403 293.098 635.41L278.232 635.467Z" fill="#B3FFD6"/>
<path d="M487.56 630.2C492.476 629.392 500.599 628.167 504.992 630.31L504.489 634.22C501.392 638.132 493.115 638.161 489.06 635.593C487.698 634.731 487.759 631.774 487.56 630.2Z" fill="#B3FFD6"/>
<path d="M70.9663 636.191L64.1748 635.027C64.1869 631.579 64.1869 631.107 65.6704 628.015L67.3867 626.708C70.3285 627.27 69.2397 626.767 71.4804 629.141C72.268 631.975 72.6488 633.285 72.9318 636.198L70.9663 636.191Z" fill="#B3FFD6"/>
<path d="M19.8088 459.756L557.675 457.978L557.633 482.719C552.751 482.564 544.627 482.563 540.101 481.597C537.872 478.861 536.914 478.29 532.876 477.957C527.875 477.545 507.513 477.833 503.987 479.924C503.439 481.114 502.659 483.772 501.153 483.646C479.549 481.83 457.779 482.495 436.045 482.669C435.778 483.039 435.512 483.409 435.246 483.778C435.177 486.707 435.319 493.625 434.294 495.927C431.09 498.093 426.498 496.991 425.614 497.388C421.925 499.041 425.608 502.089 417.555 500.946C416.632 498.157 416.952 494.043 416.98 490.971C409.256 490.878 401.532 490.826 393.807 490.815L393.547 479.38C381.419 480.411 382.531 476.34 371.75 475.983C367.439 475.841 360.621 478.077 355.849 478.791C352.896 479.232 347.903 479.619 345.892 481.358C344.501 488.14 340.078 486.923 333.841 486.316C331.376 482.409 334.567 482.241 331.794 479.361C328.89 479.006 304.742 479.204 302.905 479.992L302.09 482.513C295.368 484.428 268.57 484.214 261.013 483.498C258.709 480.481 256.176 479.508 252.443 479.378C248.17 479.228 231.364 478.81 228.85 482.239C224.148 488.655 219.274 487.867 211.348 487.515C208.211 483.126 212.245 483.469 203.818 482.481C189.321 480.812 175.536 476.963 162.177 484.841C160.698 485.714 141 482.925 137.981 482.903C125.999 482.812 120.121 476.973 109.994 485.542C106.405 486.226 102.831 485.716 99.1516 485.444L99.3749 487.244C93.5415 487.297 87.7808 487.475 81.9742 486.878L81.1528 482.921C72.5213 480.396 47.3252 483.662 37.971 484.557C32.4613 485.085 25.4587 484.765 19.8157 484.711C19.788 476.51 19.6296 467.923 19.8088 459.756Z" fill="#B3FFD6"/>
<path d="M81.1533 482.921C84.4517 487.131 92.9361 484.251 99.152 485.444L99.3753 487.244C93.5419 487.297 87.7812 487.475 81.9747 486.878L81.1533 482.921Z" fill="#137B46"/>
<path d="M180.121 481.905C185.085 481.664 190.256 481.888 195.241 482.015L196.716 560.642C196.814 564.936 195.416 573.681 196.475 576.968L197.269 577.347C198.146 575.486 197.215 494.774 197.227 484.698C200.853 484.642 206.558 484.085 209.23 485.884C208.021 498.979 211.504 572.872 207.613 578.252C201.24 579.364 187.983 579.26 180.99 579.383C179.571 549.801 180.349 511.997 180.121 481.905Z" fill="#B3FFD6"/>
<path d="M360.791 631.964L380.884 631.67C382.725 660.855 379.386 698.1 381.615 725.955L378.879 726.366C374.551 725.927 366.006 726.005 360.772 725.623C360.749 700.099 359.146 656.215 360.791 631.964Z" fill="#B3FFD6"/>
<path d="M436.524 483.603C443.984 484.48 448.166 484.563 455.657 484.533C456.032 514.047 458.007 550.765 457.055 579.188C452.647 579.216 441.858 579.023 438.013 579.726L436.608 579.871C434.291 576.178 435.171 558.37 435.336 553.087C435.441 549.748 435.892 549.818 437.867 548.253C437.101 527.333 436.253 504.437 436.524 483.603Z" fill="#B3FFD6"/>
<path d="M438.013 579.726L436.608 579.871C434.291 576.178 435.171 558.369 435.336 553.087C435.441 549.748 435.892 549.818 437.867 548.253C438.017 556.893 438.665 571.487 438.013 579.726Z" fill="#137B46"/>
<path d="M53.6575 638.364C60.6982 638.159 68.028 638.171 75.0965 638.081L75.1207 695.833C75.1545 703.579 74.8031 719.336 75.923 726.445C68.7568 726.215 61.568 726.438 54.3975 726.579C54.5143 697.067 53.2065 667.975 53.6575 638.364Z" fill="#B3FFD6"/>
<path d="M394.274 492.567L415.229 492.625C414.961 521.531 415.735 550.342 415.561 579.259L394.601 579.139C394.9 550.646 394.487 521.111 394.274 492.567Z" fill="#B3FFD6"/>
<path d="M316.224 627.646L333.046 627.778C332.807 656.384 333.806 686.593 334.072 715.388L336.472 715.506C336.371 718.778 335.752 722.321 337.482 724.799C340.694 726.314 342.36 725.534 345.703 725.91L344.691 728.604C339.669 730.028 331.657 729.705 326.245 729.632C322.88 729.263 320.024 729.311 317.243 727.527L317.54 725.94C317.822 718.98 317.018 708.928 316.994 701.576C316.916 676.895 315.582 652.337 316.224 627.646Z" fill="#B3FFD6"/>
<path d="M334.073 715.388L336.473 715.506C336.371 718.778 335.753 722.321 337.483 724.799C340.694 726.314 342.361 725.534 345.703 725.91L344.691 728.604C339.67 730.028 331.657 729.705 326.245 729.632C322.88 729.263 320.025 729.311 317.243 727.527L317.54 725.94C322.623 726.24 329.039 725.978 334.23 725.907C333.999 722.9 334.091 718.524 334.073 715.388Z" fill="#137B46"/>
<path d="M519.294 479.702L537.452 479.598C537.227 502.502 537.866 525.816 537.799 548.772C537.786 553.374 537.572 576.261 538.079 579.139C532.643 579.536 526.402 579.461 520.895 579.525C519.442 549.512 519.366 509.864 519.294 479.702Z" fill="#B3FFD6"/>
<path d="M19.871 628.398L36.9653 627.994L37.9087 726.467C32.0562 726.362 25.6006 726.655 19.7031 726.798L19.871 628.398Z" fill="#B3FFD6"/>
<path d="M454.307 638.806L474.266 638.892C474.016 667.851 475.357 696.477 474.949 725.431L455.787 725.493C455.947 697.339 454.903 667.096 454.307 638.806Z" fill="#B3FFD6"/>
<path d="M474.057 484.425L491.465 484.384C493.127 514.351 489.855 549.479 492.328 579.491L473.861 579.807L474.057 484.425Z" fill="#B3FFD6"/>
<path d="M81.9752 486.878C87.7818 487.475 93.5425 487.297 99.3758 487.244C100.247 495.606 102.186 576.544 100.502 578.958C95.6101 580.254 89.0359 579.854 83.8464 579.802C84.4116 558.941 81.5156 533.536 81.7311 512.364C81.8064 505.034 80.4589 493.676 81.9752 486.878Z" fill="#B3FFD6"/>
<path d="M539.291 484.656C545.228 484.807 551.661 484.614 557.637 484.551C557.375 516.258 557.388 547.967 557.677 579.674L540.417 579.648C539.631 548.382 539.873 516.137 539.291 484.656Z" fill="#B3FFD6"/>
<path d="M147.703 486.554L166.022 486.448L165.985 546.522C165.959 555.669 165.46 571.384 166.257 579.706L148.832 579.902C148.777 549.091 147.808 517.662 147.703 486.554Z" fill="#B3FFD6"/>
<path d="M128.81 484.279C133.743 484.763 140.149 484.668 145.207 484.736L146.309 541.469C146.51 553.222 146.373 568.424 147.277 579.909L128.773 579.935C129.262 548.442 128.83 515.854 128.81 484.279Z" fill="#B3FFD6"/>
<path d="M231.18 481.662L245.017 481.378C245.143 491.569 246.487 576.135 244.604 579.195L229.414 579.156C228.214 559.174 229.355 536.804 229.053 516.603C228.961 510.396 228.717 487.67 229.672 482.632L231.18 481.662Z" fill="#B3FFD6"/>
<path d="M130.621 640.897L147.72 640.742C147.654 669.377 148.521 697.605 148.449 726.262L129.756 726.303C129.445 697.831 129.733 669.356 130.621 640.897Z" fill="#B3FFD6"/>
<path d="M193.488 644.076L211.878 644.046C211.682 669.365 212.75 700.72 213.901 726.294L193.539 726.396C194.831 703.814 194.096 667.156 193.488 644.076Z" fill="#B3FFD6"/>
<path d="M408.829 642.736H427.44C427.467 670.458 427.763 698.177 428.327 725.893C422.533 726.219 416.078 726.1 410.227 726.117C410.435 699.284 408.922 670.099 408.829 642.736Z" fill="#B3FFD6"/>
<path d="M520.961 642.344L539.629 642.377L541.132 726.19L523.098 726.309C522.63 698.315 521.917 670.326 520.961 642.344Z" fill="#B3FFD6"/>
<path d="M51.2028 484.675L65.3146 484.225C65.4617 516.118 67.5354 547.925 67.3797 579.7L51.2314 579.608C50.0586 568.843 48.8937 491.335 51.2028 484.675Z" fill="#B3FFD6"/>
<path d="M210.585 489.664C216.127 489.558 221.907 489.745 227.466 489.842C227.43 518.125 226.705 551.388 227.832 579.229C222.198 579.427 216.75 579.308 211.124 579.216C209.374 553.78 211.052 516.738 210.585 489.664Z" fill="#B3FFD6"/>
<path d="M348.01 480.923C353.248 480.663 358.842 480.623 364.115 480.489C363.173 489.905 363.247 503.695 362.894 513.635C362.033 535.332 361.318 557.035 360.75 578.74C358.044 579.108 349.456 578.968 346.318 578.993C345.46 568.43 346.397 550.737 346.708 539.692C347.315 520.107 347.749 500.517 348.01 480.923Z" fill="#B3FFD6"/>
<path d="M164.655 631.981L179.093 632.122C179.409 654.704 179.125 700.252 179.264 725.012C178.904 725.43 178.543 725.848 178.183 726.266L163.375 726.253C162.796 705.922 163.068 656.737 163.442 633.575C163.846 633.044 164.25 632.512 164.655 631.981Z" fill="#B3FFD6"/>
<path d="M287.203 485.664L302.818 485.158C302.789 515.7 301.86 549.005 302.814 579.243L286.692 579.153C284.921 554.503 287.095 511.926 287.203 485.664Z" fill="#B3FFD6"/>
<path d="M19.778 486.549L34.6982 486.496C35.2833 501.69 33.7245 570.195 36.681 579.637C32.679 580.133 23.9367 579.928 19.5781 579.949L19.778 486.549Z" fill="#B3FFD6"/>
<path d="M365.366 477.823L380.566 477.789C379.62 484.351 379.55 501.352 379.259 509.128C378.4 532.131 377.67 555.139 377.068 578.15C372.421 578.12 367.697 577.986 363.042 577.9C362.384 544.82 366.521 510.76 365.366 477.823Z" fill="#B3FFD6"/>
<path d="M544.474 631.523C548.964 631.306 552.781 631.344 557.28 631.439C557.112 662.637 557.522 693.826 557.336 725.018C556.995 725.428 556.654 725.837 556.313 726.246L543.539 726.262L542.453 665.825C542.337 658.08 541.769 639.455 542.958 632.453L544.474 631.523Z" fill="#B3FFD6"/>
<path d="M316.784 480.624L331.345 480.648C329.877 499.092 331.562 523.081 331.1 541.983C330.95 548.127 331.003 574.114 332.009 578.764C329.481 579.179 320.726 579.046 317.702 579.068C317.007 567.742 317.403 552.851 317.381 541.291C317.376 521.067 317.177 500.844 316.784 480.624Z" fill="#B3FFD6"/>
<path d="M103.579 633.047L114.032 632.883C114.299 661.342 112.127 698.396 113.68 725.546L111.688 726.157C107.996 726.191 103.225 726.579 99.9712 725.267C98.4592 715.464 98.3666 637.246 100.535 633.603L103.579 633.047Z" fill="#B3FFD6"/>
<path d="M269.775 637.542H284.615C284.632 666.291 284.913 695.039 285.455 723.783L284.929 725.643C280.489 726.573 274.52 726.242 269.867 726.177C271.023 699.485 269.82 664.984 269.775 637.542Z" fill="#B3FFD6"/>
<path d="M488.252 638.795L504.417 638.735C504.255 667.916 505.162 696.984 505.256 726.219L490.979 726.412C490.326 697.199 489.416 667.992 488.252 638.795Z" fill="#B3FFD6"/>
<path d="M457.897 484.739L471.786 484.653C472.319 516.165 471.368 547.994 471.98 579.664C468.088 579.439 463.518 579.573 459.56 579.596C458.635 548.43 458.364 515.971 457.897 484.739Z" fill="#B3FFD6"/>
<path d="M242.544 630.307L254.145 630.507C254.94 662.377 253.791 694.501 254.06 726.215L241.309 726.341C242.105 701.961 240.523 658.13 241.398 631.831C241.78 631.323 242.162 630.815 242.544 630.307Z" fill="#B3FFD6"/>
<path d="M286.39 637.155L299.625 637.188C299.428 666.314 301.076 696.493 301.322 725.943C296.98 726.17 292.458 726.592 288.186 725.883L287.226 724.488C287.362 695.374 287.084 666.261 286.39 637.155Z" fill="#B3FFD6"/>
<path d="M505.579 480.624L517.277 480.472C517.27 492.344 519.919 574.843 517.225 579.437L505.805 579.642C505.156 546.713 505.946 513.601 505.579 480.624Z" fill="#B3FFD6"/>
<path d="M38.9834 628.289C42.9188 628.318 46.9563 628.083 50.6831 629.243C51.4499 632.046 51.4179 652.851 51.4845 656.877L52.7741 726.202C50.5532 726.645 42.5881 726.628 39.8982 726.682C40.2349 696.356 40.2738 658.18 38.9834 628.289Z" fill="#B3FFD6"/>
<path d="M114.11 482.582H127.089C127.754 508.645 126.837 534.945 127.215 561.038C127.303 567.128 126.945 573.266 127.811 579.3C124.07 579.492 120.322 579.947 116.733 578.984C114.607 576.12 114.271 492.238 114.11 482.582Z" fill="#B3FFD6"/>
<path d="M439.376 634.523L452.363 634.594C452.364 653.365 452.687 672.451 453.166 691.209C453.36 698.829 452.483 718.791 454.119 725.175C449.978 725.463 445.033 725.489 440.82 725.625C439.991 695.264 439.511 664.895 439.376 634.523Z" fill="#B3FFD6"/>
<path d="M506.563 631.203L518.307 631.11C518.921 662.617 520.197 694.708 520.475 726.101L507.831 726.324C507.634 694.624 506.177 662.972 506.563 631.203Z" fill="#B3FFD6"/>
<path d="M67.4866 484.106L79.342 484.228C80.5148 515.428 80.5096 549.04 82.3487 579.796L69.9653 579.941C69.0799 548.528 67.4632 515.362 67.4866 484.106Z" fill="#B3FFD6"/>
<path d="M259.505 485.432L272.499 485.571C272.764 511.841 271.266 538.058 271.486 564.332C271.52 568.541 270.932 573.553 271.59 577.601L271.275 578.541C268.6 579.727 262.878 579.192 259.679 579.099C258.693 550.095 259.581 515.048 259.505 485.432Z" fill="#B3FFD6"/>
<path d="M301.672 633.635L314.149 633.52C314.043 653.551 314.272 673.584 314.833 693.608C315.007 702.448 314.838 718.534 315.816 726.669C312.438 725.78 306.943 726.03 302.873 725.612C302.896 705.604 302.41 686.187 301.893 666.21C301.667 657.466 300.908 641.903 301.672 633.635Z" fill="#B3FFD6"/>
<path d="M381.893 480.544C385.104 480.498 389.157 480.15 391.647 481.93C391.967 490.862 393.285 576.689 391.768 579.288L379.45 579.308C379.027 573.298 379.457 565.763 379.634 559.673C380.4 533.227 381.888 507.02 381.893 480.544Z" fill="#B3FFD6"/>
<path d="M394.055 643.087L406.557 643.024C406.47 662.568 406.709 682.112 407.274 701.648C407.432 707.877 407.299 720.609 408.305 726.013C405.444 726.075 398.126 726.06 395.638 726.417L394.685 725.351C394.426 698.006 393.99 670.419 394.055 643.087Z" fill="#B3FFD6"/>
<path d="M313.763 480.765L314.31 481.1C315.058 482.273 315.868 571.385 314.988 578.043C312.498 579.764 310.076 579.32 306.914 579.28C306.086 579.175 305.456 578.855 304.643 578.551C303.841 568.727 304.452 552.341 304.486 541.997C304.551 522.232 304.211 501.615 304.877 481.929C306.921 480.669 311.151 480.865 313.763 480.765Z" fill="#B3FFD6"/>
<path d="M256.079 637.141L267.555 637.172C267.19 661.971 266.818 701.799 268.383 725.837C264.377 726.14 260.364 726.352 256.348 726.475C255.57 721.968 255.916 702.456 255.938 696.798L256.079 637.141Z" fill="#B3FFD6"/>
<path d="M333.05 488.379L345.861 488.355C343.876 514.704 344.424 550.612 343.502 578.049C341.396 579.525 336.6 579.1 333.547 579.172C332.78 549.451 333.096 518.194 333.05 488.379Z" fill="#B3FFD6"/>
<path d="M274.138 485.593L285.269 485.657C285.958 507.485 283.796 532.761 284.433 554.988C284.59 560.51 283.795 573.922 285.042 578.565C283.384 578.979 276.126 579.064 273.979 579.127C272.783 569.296 273.402 551.607 273.576 541.32C273.994 522.747 274.182 504.17 274.138 485.593Z" fill="#B3FFD6"/>
<path d="M346.662 637.778L358.247 637.622C358.409 664.737 357.644 699.273 359.051 725.787L347.078 725.784L346.662 637.778Z" fill="#B3FFD6"/>
<path d="M149.541 632.543C153.17 632.65 157.235 632.525 160.903 632.492C161.003 643.955 159.554 720.488 161.939 726.278L150.578 726.296C150.803 695.026 149.481 663.838 149.541 632.543Z" fill="#B3FFD6"/>
<path d="M246.868 481.268L257.78 481.236C257.834 513.811 257.442 546.488 257.797 579.05L247.734 579.162C245.825 550.183 248.058 511.996 246.868 481.268Z" fill="#B3FFD6"/>
<path d="M116.539 641.407L128.614 641.323C129.18 668.1 127.832 698.719 127.936 726.243L115.94 726.237L116.539 641.407Z" fill="#B3FFD6"/>
<path d="M226.681 643.973L239.621 643.844C239.119 670.253 239.222 699.942 239.727 726.375L227.527 726.294C228.018 718.321 227.538 705.738 227.435 697.549L226.681 643.973Z" fill="#B3FFD6"/>
<path d="M476.412 632.052L486.151 632.008C486.005 661.757 488.114 695.827 488.768 726.166C485.035 726.143 481.302 726.046 477.572 725.874C476.396 695.561 476.71 662.639 476.412 632.052Z" fill="#B3FFD6"/>
<path d="M36.7627 486.404L48.1378 486.442C48.2918 499.215 46.6379 571.79 49.5728 579.273C47.1858 579.528 41.1178 579.184 38.427 579.1C36.5203 550.732 37.2197 515.36 36.7627 486.404Z" fill="#B3FFD6"/>
<path d="M167.637 482.112C171.205 482.032 174.311 481.72 177.743 482.632C179.432 512.65 176.444 549.86 178.787 579.102L168.235 579.098L168.071 518.987C168.075 507.681 168.539 493.084 167.637 482.112Z" fill="#B3FFD6"/>
<path d="M101.516 487.434L112.349 487.386C112.171 512.066 112.58 536.658 113.231 561.324C113.369 566.57 113.004 573.966 113.759 579.016L110.379 579.214C107.215 579.421 106.226 579.914 103.589 578.413C102.662 573.189 102.882 559.523 102.726 553.153L101.516 487.434Z" fill="#B3FFD6"/>
<path d="M493.956 485.166C497.434 485.182 500.188 484.895 503.379 486.191C504.384 491.337 503.994 574.304 502.937 579.577C500.073 579.504 496.572 579.803 494.279 578.412C492.665 571.319 493.353 549.661 493.444 541.416L493.956 485.166Z" fill="#B3FFD6"/>
<path d="M180.722 644.207L191.958 644.135C192.035 655.923 190.566 719.291 193.344 725.997C190.344 726.324 184.448 726.255 181.218 726.31C181.232 702.55 182.373 666.889 180.722 644.207Z" fill="#B3FFD6"/>
<path d="M383.116 725.798C383.074 715.685 382.672 636.331 384.192 633.069C386.616 630.84 385.484 631.284 388.515 630.836C389.989 631.66 391.721 632.363 391.843 634.487C392.233 641.323 392.008 649.787 391.972 656.556C391.92 672.516 392.057 688.476 392.382 704.432C392.457 709.383 392.28 721.456 392.761 725.889L383.116 725.798Z" fill="#B3FFD6"/>
<path d="M213.513 643.976L224.48 644.043C224.594 654.592 224.05 721.173 226.312 726.191C222.286 726.365 220.63 726.52 216.628 725.857C214.828 723.735 213.7 652.084 213.513 643.976Z" fill="#B3FFD6"/>
<path d="M88.0117 638.741C91.497 638.644 92.8325 638.507 96.329 639.331C98.2158 642.411 97.7666 716.494 97.5745 726.037L88.2359 726.246L88.0117 638.741Z" fill="#B3FFD6"/>
<path d="M77.0703 638.888C80.2042 638.829 83.0378 638.429 85.784 639.735C86.8174 644.279 86.0792 657.124 86.2765 662.528C87.0078 682.583 85.2933 706.557 86.7664 726.282C83.2689 726.446 81.769 726.643 78.2716 725.816C77.5714 722.517 77.7809 703.624 77.7385 699.172L77.0703 638.888Z" fill="#B3FFD6"/>
<path d="M336.473 715.506C336.254 690.064 335.863 664.624 335.302 639.187C337.073 637.688 342.26 637.692 343.942 638.945C345.824 657.316 343.749 683.636 344.764 702.702C345.161 710.155 344.282 718.513 345.703 725.91C342.361 725.534 340.695 726.314 337.483 724.799C335.753 722.321 336.372 718.778 336.473 715.506Z" fill="#B3FFD6"/>
<path d="M427.855 498.588C431.292 498.782 432.262 498.234 434.593 500.084L434.668 576.911C433.536 578.845 431.697 578.848 429.027 579.708C427.435 579.35 426.843 579.024 425.36 578.376C423.858 567.614 425.803 543.91 425.386 532.034C425.233 527.649 425.299 502.978 425.872 499.575L427.855 498.588Z" fill="#B3FFD6"/>
<path d="M429.306 642.451C432.305 642.304 434.488 641.84 437.079 643.186C437.938 646.274 437.775 666.127 437.838 671.036C438.081 689.178 438.416 707.32 438.842 725.46C435.995 725.514 433.348 725.939 431.022 724.546C430.168 716.628 430.37 702.884 430.265 694.491C430.093 677.143 429.774 659.796 429.306 642.451Z" fill="#B3FFD6"/>
<path d="M417.062 502.955C420.051 503.017 421.582 502.634 423.577 504.23C425.226 523.856 423.051 557.237 423.567 579.005C420.938 579.191 420.962 579.201 418.389 578.654C417.508 575.084 417.63 558.716 417.579 553.876L417.062 502.955Z" fill="#B3FFD6"/>
<path d="M285.456 723.783L287.227 724.488L288.187 725.883C292.459 726.592 296.981 726.17 301.323 725.943L302.874 725.612C306.944 726.03 312.439 725.78 315.817 726.669L316.572 727.564L317.244 727.527C320.025 729.311 322.881 729.263 326.246 729.632C312.492 729.974 279.007 730.42 266.982 728.673L268.85 728.577C263.02 726.532 259.333 727.942 256.35 726.475C260.365 726.353 264.378 726.14 268.384 725.837L269.868 726.177C274.521 726.242 280.49 726.573 284.93 725.644L285.456 723.783Z" fill="#137B46"/>
<path d="M19.8588 21.9533C43.7921 20.9015 72.2546 21.4807 96.3541 21.517L215.019 21.7378L560.109 23.2198C559.114 54.8214 560.602 88.0911 559.927 119.831C559.659 132.113 560.429 147.148 559.382 159.152L558.127 160.201L18.8496 156.598C19.677 115.602 21.498 62.4456 19.8588 21.9533Z" fill="#137B46"/>
<path d="M31.4746 41.4861C44.8438 42.86 67.0557 42.3198 81.2281 42.3284L165.934 42.2843L452.511 41.5077C463.947 41.5008 552.83 42.183 556.067 40.3988C556.295 38.0882 556.522 37.2883 557.512 35.1855C558.498 48.1598 558.037 64.6297 558.003 77.8446C557.996 99.9382 557.75 122.032 557.261 144.12L557.3 158.275L544.247 158.284L543.892 144.143L543.46 84.056C532.169 82.8752 515.573 83.0778 503.818 82.6415C464.415 81.1784 424.446 82.1186 385.205 86.525C386.367 106.843 386.017 136.67 386.166 157.358C376.352 157.279 366.537 157.336 356.724 157.531C356.532 129.408 355.686 101.522 355.595 73.3724C307.705 73.7481 256.663 72.1786 208.432 71.5588C206.394 74.7299 204.377 77.9139 202.382 81.1118C199.869 82.6926 199.564 83.1955 197.754 85.5797C196.377 86.8081 193.347 88.8191 193.443 90.7029C194.516 111.79 195.712 134.727 195.434 155.781L172.294 155.797C172.114 128.041 173.302 98.6872 172.957 71.7163C169.516 69.7287 165.447 64.6964 163.19 61.4033L74.852 61.5816C61.2968 61.676 44.9771 62.4118 31.7187 62.101C31.633 55.2655 31.4772 48.3113 31.4746 41.4861Z" fill="#B3FFD6"/>
<path d="M543.892 144.143C548.261 144.084 552.922 143.935 557.261 144.12L557.3 158.275L544.246 158.284L543.892 144.143Z" fill="#B3FFD6"/>
<path d="M210.524 73.9628C255.813 73.091 307.473 74.7523 353.04 75.2276L354.622 156.795C306.994 156.783 259.365 156.48 211.74 155.884C212.107 129.997 209.111 99.056 210.524 73.9628Z" fill="#B3FFD6"/>
<path d="M32.748 84.2231L108.663 83.8976C119.09 83.8595 153.37 82.9445 160.935 85.3148C161.965 89.6892 161.677 105.17 161.663 110.288L161.493 155.499C121.823 153.727 73.5955 154.745 33.224 154.626C33.1106 131.016 32.5091 108.022 32.748 84.2231Z" fill="#B3FFD6"/>
<path d="M22.5264 24.4414C41.3317 23.5618 65.7298 24.1816 84.7801 24.1661L202.532 24.2258L557.795 25.3806C556.622 30.1974 555.403 35.002 554.139 39.7954C512.291 39.1202 468.919 39.7227 426.927 39.7807L166.98 40.3157C122.22 40.3503 75.5791 41.2446 30.9536 39.9512C28.3468 34.5926 25.1358 29.8563 22.5264 24.4414Z" fill="#B3FFD6"/>
<path d="M451.101 84.2153C479.321 83.5123 513.128 84.9304 541.672 85.5415C541.415 104.656 542.134 123.917 541.96 143.047C541.916 147.976 542.238 153.284 541.433 158.14C511.571 158.448 480.207 157.647 450.156 157.537C450.113 147.387 448.178 88.9057 451.101 84.2153Z" fill="#B3FFD6"/>
<path d="M430.685 85.1157C434.672 84.598 442.665 84.4898 446.969 84.295C448.489 103.998 448.086 137.504 448.169 157.454L404.996 157.382L387.811 157.299C387.459 134.729 385.948 110.265 386.937 87.9361C400.528 86.6306 416.809 86.0229 430.685 85.1157Z" fill="#B3FFD6"/>
<path d="M412.066 99.1062C416.963 98.5046 427.007 96.4511 429.215 101.921C426.252 106.122 419.703 105.049 414.935 104.985C410.695 105.899 402.456 107.41 400.34 102.778L401.758 100.886C404.739 98.914 408.44 99.211 412.066 99.1062Z" fill="#137B46"/>
<path d="M89.2427 63.5909C111.238 62.4715 139.355 63.2056 161.813 63.1589L161.688 81.394C143.17 82.109 121.947 81.8242 103.197 82.0017C80.3316 81.5991 55.7673 82.0519 32.78 82.1056L32.4502 64.0947L89.2427 63.5909Z" fill="#B3FFD6"/>
<path d="M22.6758 29.5039C24.9694 31.1133 29.6023 39.9962 29.8196 42.8054C30.9473 57.376 30.7006 72.2851 30.7309 86.9232L31.4588 154.667L21.0903 154.669C20.8315 113.927 22.1341 70.3667 22.6758 29.5039Z" fill="#B3FFD6"/>
<path d="M207.071 84.6118C209.44 86.9951 209.674 149.293 209.727 155.68L198.912 155.757L197.742 155.295C196.396 151.705 196.826 145.288 196.613 141.338C195.535 121.341 199.864 103.326 207.071 84.6118Z" fill="#B3FFD6"/>
<path d="M164.251 85.6792L170.582 90.4778C170.076 111.851 170.327 134.242 170.3 155.699C167.933 155.679 165.757 155.965 163.847 154.672C163.287 147.243 163.17 91.2076 164.251 85.6792Z" fill="#B3FFD6"/>
<path d="M202.381 81.1118L206.144 78.3563C206.559 83.1367 198.597 105.951 196.745 112.692C196.324 105.447 194.417 91.4881 197.754 85.5797C199.563 83.1956 199.869 82.6926 202.381 81.1118Z" fill="#B5E8C1"/>
<path d="M163.605 64.7535C165.203 66.136 169.55 70.971 171.222 72.7318L170.967 87.7889C168.393 85.9112 166.052 83.8076 163.65 81.7178L163.605 64.7535Z" fill="#B3FFD6"/>
<path d="M401.26 316.358L559.294 316.407C557.766 354.372 559.207 401.044 559.078 439.849L179.211 441.099C127.828 442.582 69.2267 441.774 17.4766 441.569C18.2209 428.665 17.6064 409.357 17.6263 396.025L17.892 317.567C65.8756 315.969 117.752 316.657 165.955 316.623L401.26 316.358Z" fill="#137B46"/>
<path d="M557.193 327.587L557.074 350.428C552.674 350.481 542.257 350.983 538.55 349.88C537.286 347.96 537.662 346.895 537.877 344.573C535.006 342.058 526.457 342.229 523.523 345.092C522.492 346.099 522.177 348.296 521.882 349.748C516.771 351.305 499.551 351.67 494.296 350.447C490.325 346.271 497.274 345.549 487.94 344.187C475.134 342.317 457.972 351.402 447.304 351.919C446.307 350.26 446.439 349.068 446.337 347.134C438.921 340.763 429.309 353.24 417.816 349.641C413.869 345.457 418.289 342.124 409.815 345.097C409.114 344.685 406.238 341.99 407.485 342.111C400.912 341.474 393.157 339.908 388.83 345.718C382.447 346.541 360.369 348.228 354.952 343.878C349.902 339.823 344.246 340.026 338.337 341.142C337.545 343.162 337.648 343.208 337.653 345.289C334.845 347.095 314.034 346.768 311.64 345.079L310.625 341.69C305.794 340.568 283.669 340.198 279.645 342.757C266.448 351.148 263.848 337.901 246.854 341.32C245.628 343.64 244.63 346.754 241.854 347.108C234.463 348.05 231.173 349.283 228.93 341.579C223.401 339.31 219.882 341.549 217.88 346.607C213.963 347.279 186.09 346.982 183.026 345.858C182.71 344.323 182.443 343.172 182.022 341.639C171.553 338.451 144.712 345.696 132.941 348.391C133.213 368.305 134.023 388.209 135.367 408.081L134.592 408.632C130.817 398.936 115.105 352.635 113.3 343.588C109.808 345.277 104.952 348.003 101.306 348.361C95.6432 345.021 99.0419 337.595 82.0039 340.984C80.4088 343.527 84.4264 352.39 70.6141 347.539C69.7348 347.23 69.6223 345.552 69.3782 344.551C66.561 338.496 65.4869 338.96 59.7704 335.691C58.4782 332.808 58.9655 333.287 59.2658 329.676C122.598 328.487 187.613 329.053 251.109 328.848L557.193 327.587Z" fill="#B3FFD6"/>
<path d="M21.373 323.903C21.5773 322.803 21.637 322.021 21.4639 320.912C25.0721 318.432 122.188 319.262 134.266 319.255L445.326 318.623L521.573 318.519C527.339 318.523 553.09 317.683 556.055 320.289C555.516 323.901 556.174 323.187 554.073 325.389C549.916 326.23 530.513 325.928 525.277 325.935L461.649 326.061L175.536 327.373C163.142 327.422 33.1722 326.505 29.4065 329.287C26.3998 329.407 23.7981 326.093 21.373 323.903Z" fill="#B3FFD6"/>
<path d="M163.443 343.865L165.244 343.838C167.631 346.417 166.944 427.264 166.851 438.534C159.899 438.326 151.629 438.362 144.881 437.138L144.085 435.953C134.655 408.773 135.522 378.919 134.924 349.824C144.462 347.996 153.97 346.009 163.443 343.865Z" fill="#B3FFD6"/>
<path d="M50.5947 346.341L67.457 346.235C70.07 374.856 69.2365 406.374 72.1783 436.56C74.4831 423.25 70.2707 385.422 70.5884 369.611C70.6957 364.286 69.4572 356.106 70.6143 350.884C73.5025 349.748 77.1496 350.104 80.3675 350.13C81.5896 351.754 82.0128 437.137 80.8115 438.586C75.4187 439.669 61.1597 439.487 54.9862 439.553C53.8317 408.141 51.2767 378.319 50.5947 346.341Z" fill="#B3FFD6"/>
<path d="M292.426 342.888L309.439 342.854L309.767 438.699L292.533 438.756C292.232 408.423 291.658 372.982 292.426 342.888Z" fill="#B3FFD6"/>
<path d="M538.188 352.394L556.828 352.444L556.863 437.497L539.238 437.565L538.188 352.394Z" fill="#B3FFD6"/>
<path d="M263.82 347.271C269.113 347.229 274.58 347.372 279.886 347.439L280.754 404.4C280.896 414.488 280.606 429.029 281.51 438.787L264.827 438.868C264.293 408.339 263.958 377.805 263.82 347.271Z" fill="#B3FFD6"/>
<path d="M229.599 349.348L245.846 349.263C245.854 379.049 246.928 408.834 246.785 438.984L230.213 438.945C228.983 411.254 229.956 377.627 229.599 349.348Z" fill="#B3FFD6"/>
<path d="M493.393 352.339L509.709 352.344L510.232 437.629C508.202 438.008 496.159 437.811 493.373 437.807C492.499 410.524 493.259 379.885 493.393 352.339Z" fill="#B3FFD6"/>
<path d="M375.371 347.966L390.176 347.884C390.131 376.405 390.577 409.742 389.168 438.017C384.761 438.132 380.208 438.455 375.911 437.546C373.802 433.33 375.277 358.713 375.371 347.966Z" fill="#B3FFD6"/>
<path d="M34.4648 348.776L48.1958 348.43C48.9661 378.856 52.0948 409.073 53.0348 439.531L37.7243 439.412C36.4027 409.209 35.3165 378.996 34.4648 348.776Z" fill="#B3FFD6"/>
<path d="M339.92 342.805L352.986 342.745C353.447 368.139 352.664 393.738 353.104 419.148C353.21 425.29 352.667 432.219 354.107 438.144L339.108 438.37C338.863 406.513 339.134 374.653 339.92 342.805Z" fill="#B3FFD6"/>
<path d="M247.665 343.025L261.183 343.008L262.025 400.965C262.142 412.503 261.865 427.72 262.934 438.953L248.997 439.034C247.963 409.867 247.509 372.113 247.665 343.025Z" fill="#B3FFD6"/>
<path d="M109.254 346.999L109.928 347.209C114.788 351.636 138.074 424.426 142.689 436.508L130.98 438.441L129.307 437.948C125.44 429.961 118.284 407.597 114.881 398.003C109.902 383.966 102.207 365.324 98.2432 351.639L109.254 346.999Z" fill="#B3FFD6"/>
<path d="M20.6016 343.804L31.9551 343.728L34.5853 411.412C34.7974 417.258 34.7524 434.966 35.6525 439.297C30.4933 439.26 25.1091 439.451 19.9326 439.556L20.6016 343.804Z" fill="#B3FFD6"/>
<path d="M392.176 343.543L406.322 343.632C405.633 363.635 405.795 383.863 405.66 403.891C405.613 410.939 403.925 432.556 406.39 437.668L391.919 437.98C392.24 406.501 392.326 375.022 392.176 343.543Z" fill="#B3FFD6"/>
<path d="M83.4071 342.716L96.4812 342.704C95.7334 354.386 97.6028 436.406 95.7827 438.94C91.8612 438.956 87.5666 439.207 83.6148 439.363C82.5252 428.501 83.0713 412.792 83.1466 401.461L83.4071 342.716Z" fill="#B3FFD6"/>
<path d="M168.312 343.04C172.339 342.904 176.787 343.142 180.849 343.274C179.952 373.563 182.994 407.769 183.069 438.845L169.671 438.834C168.752 416.977 169.528 394.616 168.608 372.706C168.206 363.115 168.023 352.625 168.312 343.04Z" fill="#B3FFD6"/>
<path d="M475.53 347.475C477.024 347.033 477.505 347.259 479.049 347.502C479.198 347.92 479.474 348.631 479.575 349.103C480.409 352.987 480.661 436.548 480.356 437.084C476.682 438.854 473.381 438.341 469.571 437.156C471.083 436.086 473.405 436.196 475.511 435.979C474.772 420.28 466.553 397.4 464.432 380.96C463.129 370.851 458.796 361.257 458.022 350.189C463.365 348.991 470.018 348.242 475.53 347.475Z" fill="#B3FFD6"/>
<path d="M311.298 347.869L324.472 347.968C324.517 369.104 323.685 390.15 323.654 411.284C323.641 420.042 323.731 428.906 322.94 437.628C321.493 438.369 313.931 438.667 311.766 438.819C311.01 408.829 311.462 377.965 311.298 347.869Z" fill="#B3FFD6"/>
<path d="M455.407 352.227C460.425 369.396 463.786 386.475 467.438 403.957C469.371 413.207 472.706 425.821 473.676 434.863C469.199 435.546 464.499 436.17 460.116 437.228C458.524 430.727 452.551 407.304 452.476 401.816C452.125 398.6 451.952 397.754 450.945 394.682C447.406 378.146 447.59 371.867 447.218 355.021L455.407 352.227Z" fill="#B3FFD6"/>
<path d="M98.7285 359.864C101.645 362.754 123.95 428.94 127.124 438.089C117.885 437.509 108.631 437.199 99.3742 437.159C98.4169 410.971 99.3119 385.843 98.7285 359.864Z" fill="#B3FFD6"/>
<path d="M431.629 347.817L444.76 347.651C443.876 375.544 445.791 409.187 446.39 437.933L434.587 437.983C433.818 411.267 432.437 384.596 432.222 357.856C432.194 354.492 431.961 351.165 431.629 347.817Z" fill="#B3FFD6"/>
<path d="M524.373 345.072L535.889 345.212C535.248 363.573 536.722 384.354 536.465 402.999C536.398 407.772 536.395 434.055 537.135 437.211L525.321 437.337C523.192 412.756 524.394 371.127 524.373 345.072Z" fill="#B3FFD6"/>
<path d="M419.682 351.788L430.467 352.272C430.116 380.147 432.855 409.364 432.46 437.98L419.179 437.94C418.427 410.807 419.428 379.244 419.682 351.788Z" fill="#B3FFD6"/>
<path d="M326.29 347.894L338.116 347.912C336.976 356.615 335.987 432.629 337.946 438.072L325.436 438.151C324.368 410.996 326.241 376.01 326.29 347.894Z" fill="#B3FFD6"/>
<path d="M182.562 348.068L194.644 348.049C194.437 378.305 194.716 408.563 195.48 438.81L185.259 438.88C184.887 408.597 182.871 378.516 182.562 348.068Z" fill="#B3FFD6"/>
<path d="M207.777 348.81L218.808 348.741C218.634 377.617 220.898 411.025 219.517 438.9L209.23 438.941C208.191 429.87 208.598 413.235 208.56 403.583C208.52 385.323 208.259 367.065 207.777 348.81Z" fill="#B3FFD6"/>
<path d="M407.604 351.41C410.959 351.323 413.551 351.056 416.776 352.116C420.845 358.002 414.034 424.877 418.441 437.761C415.014 437.88 411.429 438.197 408.114 437.407C406.761 431.117 407.26 410.3 407.329 402.67L407.604 351.41Z" fill="#B3FFD6"/>
<path d="M512.252 352.211C515.533 352.211 519.217 351.768 521.881 353.33C522.838 359.15 522.448 370.126 522.45 376.536L522.512 417.665C522.53 423.275 522.185 432.474 523.313 437.681L512.408 437.898L512.252 352.211Z" fill="#B3FFD6"/>
<path d="M481.53 346.295C484 346.273 488.291 345.792 490.383 347.057C492.34 348.24 490.671 425.877 491.801 437.004L491.874 437.657C488.667 437.88 486.364 438.242 483.226 437.37C482.118 432.622 482.211 411.92 482.154 406.016L481.53 346.295Z" fill="#B3FFD6"/>
<path d="M196.251 347.974C199.489 347.945 202.502 347.474 205.074 349.147C206.148 354.16 205.27 367.424 205.558 373.5C206.475 392.888 205.035 419.152 207.012 438.023L207.096 438.777C203.651 438.89 201.138 439.138 197.753 438.266C196.774 433.851 196.785 412.069 196.747 406.309L196.251 347.974Z" fill="#B3FFD6"/>
<path d="M282.288 343.571C285.205 343.468 287.401 343.001 289.776 344.484C290.763 350.635 290.254 360.097 290.31 366.721C290.551 380.975 290.658 395.231 290.633 409.487C290.639 417.895 290.277 430.939 291.217 438.834C288.399 438.88 285.747 439.343 283.61 437.797C282.477 429.764 282.861 408.539 282.766 399.383C282.577 381.239 281.772 361.553 282.288 343.571Z" fill="#B3FFD6"/>
<path d="M355.36 348.037C358.396 347.915 359.836 347.721 362.836 348.546C363.903 352.201 363.106 361.427 363.476 364.738C364.655 375.27 362.736 431.275 364.799 437.121C362.574 438.254 358.502 438.377 356.157 437.381C355.417 433.011 355.654 414.025 355.63 408.67L355.36 348.037Z" fill="#B3FFD6"/>
<path d="M219.58 342.996C221.659 342.948 224.992 342.464 226.848 343.381C230.399 345.133 225.315 428.655 229.51 438.796C226.4 438.919 224.985 439.099 221.891 438.311C221.119 432.865 221.632 417.792 221.4 411.619C220.566 389.367 221.38 365.026 219.58 342.996Z" fill="#B3FFD6"/>
<path d="M19.9317 341.542C19.872 337.175 19.0836 326.789 21.3737 323.903C23.7988 326.093 26.4004 329.407 29.4071 329.287L36.0489 329.681C43.705 329.65 51.6363 329.518 59.2656 329.676C58.9653 333.287 58.478 332.808 59.7702 335.691C65.4867 338.96 66.5608 338.496 69.378 344.551C59.6049 344.204 51.3542 345.02 41.6867 346.257C37.676 346.769 34.8926 347.166 32.998 343.418C29.7767 341.283 23.9779 341.649 19.9317 341.542Z" fill="#B3FFD6"/>
<path d="M19.9317 341.542C19.872 337.175 19.0836 326.789 21.3737 323.903C23.7988 326.093 26.4004 329.407 29.4071 329.287L36.0489 329.681C35.8663 334.339 35.72 336.069 34.7732 340.616C30.7469 340.831 23.7001 340.995 19.9317 341.542Z" fill="#B3FFD6"/>
<path d="M365.199 347.995C368.268 348.217 369.617 348.114 372.453 349.39C373.393 354.109 372.894 367.94 372.861 373.585L372.56 419.664C372.513 425.081 371.7 432.873 373.018 437.689C370.456 437.855 368.787 438.19 366.368 437.307C365.455 428.713 365.913 415.89 365.815 406.914C365.461 387.276 365.257 367.636 365.199 347.995Z" fill="#B3FFD6"/>
<path d="M448.777 434.787C448.41 425.797 446.839 397.475 447.758 390.019C449.288 391.055 447.829 392.673 450.945 394.682C451.952 397.754 452.125 398.6 452.476 401.815L451.309 402.082C451.486 406.869 456.298 429.506 457.352 436.252C454.6 435.869 451.545 435.267 448.777 434.787Z" fill="#BCEFC7"/>
<path d="M19.0061 175.158C48.3773 176.695 85.1536 175.598 115.288 175.901L334.178 177.314L477.718 177.88C501.12 178 536.791 179.078 559.312 177.552C558.109 216.271 558.991 260.703 558.887 299.765L17.8818 299.711L19.0061 175.158Z" fill="#137B46"/>
<path d="M20.8195 214.451C20.8506 203.877 20.514 190.643 21.9766 180.396C23.2065 180.615 24.7999 182.208 25.9354 183.125C44.5659 181.957 68.4309 183.109 87.5383 183.351L190.057 184.199L557.176 187.007L557.066 217.917C552.06 217.977 522.425 219.509 518.855 220.193L518.013 222.754C514.949 224.675 498.987 223.513 494.726 223.339L494.77 212.466L465.691 212.37L465.487 224.702C462.502 224.852 460.058 225.177 457.162 224.462C449.895 217.237 442.875 222.258 434.158 219.241C433.992 217.034 434.116 216.933 433.007 214.932L430.168 214.421C427.157 215.001 424.139 215.545 421.116 216.056C420.217 216.085 417.655 215.766 416.622 215.668C416.662 215.254 416.316 214.894 416.132 214.522C413.169 217.472 414.89 216.822 413.827 219.834C413.201 221.611 408.629 219.939 406.659 221.914C406.939 222.389 407.641 223.68 407.976 224.021L407.379 225.538L405.711 227.123C401.089 228.19 396.392 228.569 394.108 223.708L392.716 223.876L391.731 220.367L391.847 219.621C387.215 218.684 380.421 218.359 375.56 217.981L375.291 207.282L358.183 207.281L358.19 218.72C352.527 218.899 338.302 219.839 333.383 218.346C331.523 214.307 334.564 214.09 331.758 211.386C321.667 211.08 311.611 210.612 301.533 211.258C298.484 215.075 302.193 215.294 298.82 217.731C292.67 217.923 276.403 219.131 271.805 216.67C271.654 215.612 271.532 211.192 270.816 211.025C247.462 205.575 222.66 226.232 202.111 234.279C200.143 240.261 195.203 252.848 195.995 258.188C195.498 261.151 193.872 266.743 192.3 269.251L191.074 268.998C187.68 275.846 183.877 289.997 181.801 297.593L169.512 297.64C169.781 273.668 167.987 245.275 167.641 220.663C155.55 220.568 145.417 215.01 137.15 219.163C132.084 226.146 126.737 223.837 118.799 223.096L119.219 210.356C114.746 210.339 102.424 209.736 97.7727 210.98C97.4317 211.071 97.095 214.285 95.6401 214.985C88.7802 218.287 67.0573 214.346 59.4653 213.407C58.1316 211.846 58.4561 210.006 58.2744 207.561C55.0573 206.522 36.8449 205.7 34.8456 207.761C35.0282 210.507 35.2481 211.194 34.412 213.734C32.0206 215.078 24.059 214.498 20.8195 214.451Z" fill="#B3FFD6"/>
<path d="M416.132 214.522C420.171 213.592 426.075 213.804 430.167 214.421C427.156 215.001 424.138 215.545 421.115 216.056C420.217 216.085 417.654 215.766 416.622 215.667C416.661 215.254 416.315 214.894 416.132 214.522Z" fill="#137B46"/>
<path d="M98.5194 212.07L117.786 212.01C118.574 217.301 118.047 220.409 117.972 225.529C117.622 249.44 116.817 273.676 117.055 297.554C97.0178 297.323 76.98 297.305 56.943 297.499C56.8513 277.032 57.6259 256.663 57.9652 236.2C58.0768 229.467 58.1426 222.852 58.8047 216.144L74.1464 216.35C73.8201 225.731 71.7351 291.733 74.5627 295.171C75.4654 293.523 75.1166 265.893 75.1287 261.826C75.1936 252.986 75.1962 226.978 76.3958 219.423C78.1994 217.82 79.9373 218.459 83.0003 218.476C84.3643 219.883 84.6664 220.449 84.765 222.612C85.7716 244.713 82.5321 271.939 85.6357 293.504C86.7505 291.466 86.6674 224.854 86.7254 218.282L96.7382 218.309C96.2899 232.833 93.7202 283.679 96.7218 294.357L97.2878 293.799C99.0084 272.575 98.4043 233.97 98.5194 212.07Z" fill="#B3FFD6"/>
<path d="M234.935 221.949C238.597 223.622 242.113 225.307 245.921 226.624C239.006 247.666 231.65 275.781 226.205 297.578C211.936 297.453 197.668 297.465 183.399 297.616C186.091 287.916 189.137 278.787 192.3 269.251C193.873 266.743 195.499 261.151 195.996 258.188L203.691 235.287C211.18 231.847 224.452 226.051 232.191 224.183C229.372 233.506 212.213 289.076 212.529 295.36C215.163 293.32 231.417 231.93 234.935 221.949Z" fill="#B3FFD6"/>
<path d="M467.615 214.198L493.424 214.565C494.449 224.388 494.052 237.144 494.079 247.211C494.125 263.931 494.332 280.65 494.697 297.366L467.841 297.527C467.451 269.752 467.376 241.974 467.615 214.198Z" fill="#B3FFD6"/>
<path d="M23.6113 178.571C30.6348 177.774 55.798 178.369 64.3741 178.383L155.285 178.854L447.005 179.918C458.488 179.941 552.498 179.319 556.057 180.899L557.275 185.143C530.866 185.566 505.183 184.644 478.881 184.527L264.249 182.964L127.576 181.797C95.0834 181.675 62.4562 181.484 29.9484 180.765C25.9533 180.676 26.3999 180.672 23.6113 178.571Z" fill="#B3FFD6"/>
<path d="M36.4503 208.731L56.309 208.563C55.6097 238.158 55.1198 267.758 54.8385 297.359L36.2504 297.445C36.4486 271.541 33.9586 232.946 36.4503 208.731Z" fill="#B3FFD6"/>
<path d="M311.561 212.421C318.164 212.683 324.769 212.846 331.376 212.912C331.038 241.122 331.011 269.335 331.295 297.545L311.542 297.693L311.561 212.421Z" fill="#B3FFD6"/>
<path d="M421.115 216.056C424.774 216.005 428.25 215.713 431.734 216.783C433.479 221.235 432.487 288.417 432.46 297.478L415.56 297.654C415.421 277.607 414.428 234.717 416.622 215.668C417.654 215.766 420.217 216.085 421.115 216.056Z" fill="#B3FFD6"/>
<path d="M520.119 221.086C525.889 221.442 532.656 221.211 538.508 221.153C538.399 246.558 538.564 271.964 539.005 297.364L521.119 297.471C520.932 272.007 520.599 246.545 520.119 221.086Z" fill="#B3FFD6"/>
<path d="M251.421 212.896C251.891 213.008 252.682 213.482 253.156 213.729C252.621 238.379 253.302 272.923 254.619 297.36C247.151 297.338 235.359 299.188 229.396 296.499C228.196 293.944 228.706 294.44 229.611 290.889C235.312 269.858 241.629 245.697 248.406 225.187C242.511 223.468 239.781 222.587 234.255 219.986C239.958 217.808 245.775 215.266 251.421 212.896Z" fill="#B3FFD6"/>
<path d="M359.961 208.738L373.696 208.46C372.149 232.92 375.001 271.266 375.066 297.374C372.752 297.82 363.458 297.698 360.608 297.715C359.523 268.486 359.938 238.051 359.961 208.738Z" fill="#B3FFD6"/>
<path d="M341.778 220.676L358.13 220.622C358.061 244.185 357.701 274.439 358.964 297.609L342.776 297.603C342.001 271.969 341.668 246.323 341.778 220.676Z" fill="#B3FFD6"/>
<path d="M255.328 212.025L269.904 211.982C268.806 238.435 270.34 270.488 270.696 297.428L255.633 297.457C255.839 269.048 254.542 240.426 255.328 212.025Z" fill="#B3FFD6"/>
<path d="M271.817 219.575L288.006 219.813L288.236 297.522L272.627 297.645C272.641 272.341 272.78 244.783 271.817 219.575Z" fill="#B3FFD6"/>
<path d="M120.633 225.387L134.474 225.124C134.612 226.194 134.95 229.338 134.903 230.303C134.456 239.339 137.757 294.464 134.8 297.61L118.615 297.567C120.381 277.994 120.144 246.073 120.633 225.387Z" fill="#B3FFD6"/>
<path d="M542.617 219.96L556.729 219.899C556.419 231.589 557.774 290.491 555.613 296.988C552.764 298.014 554.16 298 551.278 297.001C550.909 296.442 550.457 295.757 549.921 294.946C549.495 279.077 549.788 258.365 549.1 242.992C549.07 241.557 549.332 242.153 548.396 241.172C546.717 257.708 548.692 278.945 548.117 295.929C545.817 297.265 545.36 297.042 542.563 296.894C538.584 292.108 541.775 230.525 542.567 220.636L542.617 219.96Z" fill="#B3FFD6"/>
<path d="M20.7842 216.448L33.4869 216.502C32.4406 242.349 34.7445 271 34.4424 297.216L19.9541 297.434C19.8061 270.797 20.7547 243.335 20.7842 216.448Z" fill="#B3FFD6"/>
<path d="M137.202 219.578L150.244 219.412C150.509 245.426 151.005 271.438 151.732 297.444L138.291 297.572C137.358 284.232 137.566 270.792 137.389 257.412C137.223 244.896 136.486 232.045 137.202 219.578Z" fill="#B3FFD6"/>
<path d="M513.773 225.443C515.811 225.195 515.67 225.173 517.621 225.8C518.523 228.345 518.795 294.221 518.244 296.413C515.358 297.902 512.768 297.426 509.433 297.298C506.712 297.34 507.588 297.671 505.362 296.455C504.121 293.098 504.107 231.515 505.17 226.634C507.794 224.974 510.531 225.415 513.773 225.443Z" fill="#B3FFD6"/>
<path d="M153.014 222.184C154.327 222.12 155.643 222.068 156.958 222.029C159.809 221.948 162.383 221.71 164.394 223.627C165.632 231.467 165.717 243.243 166.012 251.458C166.631 266.825 167.08 282.2 167.36 297.577L153.938 297.571C153.362 272.446 153.053 247.316 153.014 222.184Z" fill="#B3FFD6"/>
<path d="M290.108 219.816C293.622 219.709 296.383 219.384 299.763 220.329C300.541 225.567 300.262 242.397 300.274 248.466C300.19 264.832 300.438 281.199 301.018 297.555L290.443 297.42C290.793 271.533 290.072 245.685 290.108 219.816Z" fill="#B3FFD6"/>
<path d="M394.76 228.69L406.095 228.61C405.778 250.627 406.65 275.042 406.589 297.614L395.554 297.576C395.493 275.169 395.754 250.968 394.76 228.69Z" fill="#B3FFD6"/>
<path d="M455.088 226.639L465.472 226.693L465.621 297.514L454.618 297.42C453.754 275.194 454.866 249.179 455.088 226.639Z" fill="#B3FFD6"/>
<path d="M435.14 221.991C438.82 221.819 440.734 221.269 443.48 223.088C443.868 232.901 444.895 290.864 443.621 297.454L442.969 297.468C439.882 297.514 437.23 298.102 434.893 296.39C434.288 290.413 433.973 225.462 435.14 221.991Z" fill="#B3FFD6"/>
<path d="M302.78 212.586C305.437 212.604 306.93 212.384 309.306 213.499C310.133 220.876 309.734 235.765 309.743 243.612L309.66 297.505C307.116 297.568 305.836 297.454 303.304 297.157C300.967 292.355 301.974 223.229 302.78 212.586Z" fill="#B3FFD6"/>
<path d="M392.716 223.876C392.983 245.487 393.412 267.165 393.91 288.778C393.994 292.434 393.382 295.512 390.68 298.066C387.895 298.744 388.866 298.931 386.612 297.883C383.906 293.58 385.009 231.016 385.287 221.267C386.937 220.37 389.661 220.493 391.73 220.367L392.716 223.876Z" fill="#B3FFD6"/>
<path d="M333.025 220.394C336.076 220.292 336.699 220.101 339.491 221.101C340.39 226.005 340.032 245.109 340.059 251.021L340.731 297.622C337.955 297.596 335.509 297.946 333.511 296.591C332.616 289.812 333.063 276.919 333.061 269.466L333.025 220.394Z" fill="#B3FFD6"/>
<path d="M375.632 219.977C378.214 220.131 381.321 219.917 383.174 221.488C384.062 227.998 383.581 240.317 383.593 247.483L383.713 298.104C381.725 297.889 380.125 297.607 378.157 297.246C376.586 294.697 375.871 228.509 375.632 219.977Z" fill="#B3FFD6"/>
<path d="M445.411 222.444C448.237 222.399 450.106 222.113 452.691 223.224C453.586 225.788 452.669 290.673 452.668 297.395C450.275 297.636 449.338 297.532 446.919 297.345C444.698 295.089 445.429 286.687 445.474 283.202C445.736 262.934 445.979 242.713 445.411 222.444Z" fill="#B3FFD6"/>
<path d="M495.583 224.991C498.3 224.949 499.987 224.6 502.209 226.064C503.038 232.603 502.688 245.408 502.683 252.464C502.624 267.446 502.677 282.428 502.844 297.408C500.149 297.496 498.15 297.949 496.075 296.452C495.318 290.812 495.704 277.186 495.71 271.017L495.583 224.991Z" fill="#B3FFD6"/>
<path d="M407.975 224.021C410.111 221.961 409.125 222.344 411.776 221.959C414.218 223.828 414.289 226.787 414.033 229.637C413.27 238.105 414.775 293.78 412.436 297.349L410.907 297.698C406.522 293.161 408.465 237.097 407.378 225.538L407.975 224.021Z" fill="#B3FFD6"/>
<path d="M511.585 744.048C527.131 743.463 543.815 743.584 559.432 743.486C560.116 781.863 559.675 823.91 559.476 862.434C509.132 863.014 458.786 863.256 408.441 863.152L67.6012 863.819L17.5137 863.94C18.2433 848.937 17.5976 833.753 17.5751 818.724C17.7301 795.264 17.756 771.797 17.6539 748.333C147.588 744.914 279.649 747.862 409.908 744.946C432.553 744.639 455.201 744.498 477.849 744.523C488.139 744.489 501.762 744.865 511.585 744.048Z" fill="#137B46"/>
<path d="M19.8443 750.419C76.7268 748.249 140.686 749.033 198.028 748.722L454.801 746.278C489.142 745.876 523.299 746.126 557.676 745.411C557.859 774.556 557.21 803.393 557.503 832.628L278.491 833.684C276.887 813.85 276.662 789.55 275.938 769.335C266.236 771.043 226.262 769.982 213.635 770.03L93.1208 771.294L71.7554 771.374C64.9146 771.936 54.8048 772.346 47.9371 771.765C45.6981 774.124 41.6243 777.785 40.9362 780.677C39.7202 782.149 39.8535 782.244 38.0533 782.737C34.5541 783.897 35.3149 783.066 33.6505 785.611C33.0317 794.225 36.2461 831.857 34.252 834.688L30.0371 836.004L29.3932 835.874L28.5571 835.06L27.3428 835.32C24.8788 841.423 22.8838 846.098 19.9542 852.037C19.1518 818.586 19.7482 783.993 19.8443 750.419Z" fill="#B3FFD6"/>
<path d="M71.7545 771.374C71.2603 768.115 71.0604 769.413 72.4824 766.468C77.1023 762.94 87.8379 761.782 92.2579 766.182C93.4661 768.58 93.4332 768.67 93.1199 771.294L71.7545 771.374Z" fill="#B3FFD6"/>
<path d="M260.168 785.559C264.684 785.49 269.607 785.724 274.153 785.845C276.146 806.553 276.647 832.654 276.709 853.456L52.4572 855.577L38.0936 856.053C37.7257 832.844 35.8597 810.786 35.8018 786.875C60.8758 785.551 90.3172 786.174 115.707 786.105L260.168 785.559Z" fill="#B3FFD6"/>
<path d="M278.588 835.493L444.165 835.294C481.304 835.181 520.429 835.632 557.431 834.601L557.353 860.399L19.375 861.395C20.6265 855.266 26.0159 841.025 29.3922 835.874L30.0361 836.004L33.6642 836.324C36.6856 840.142 35.7319 852.608 35.6929 858.062C85.4784 857.084 135.269 856.46 185.063 856.201C215.39 855.915 248.752 854.668 278.92 855.534L278.588 835.493Z" fill="#B3FFD6"/>
<path d="M48.1652 773.89L177.31 772.68C208.162 772.267 242.4 771.381 273.11 772.186L271.085 783.352C207.893 783.456 106.215 784.434 39.6722 783.949C39.133 783.542 38.5938 783.135 38.0537 782.737C39.8539 782.244 39.7206 782.149 40.9366 780.677L48.1652 773.89Z" fill="#B3FFD6"/>
<path d="M632.791 552.692C644.1 552.593 684.406 550.72 693.321 553.587C698.517 555.257 702.934 559.245 706.724 563.025C707.081 563.382 707.438 563.744 707.784 564.112C710.624 566.238 713.31 568.754 715.963 571.138C714.249 589.046 712.392 606.943 710.393 624.824C709.223 635.739 707.789 647.34 707.399 658.255C721.345 658.437 735.286 658.909 749.216 659.678C754.884 659.986 763.744 660.31 769.1 661.321C769.358 666.413 769.056 694.219 767.721 698.312C766.952 710.26 765.14 723.68 764.667 735.232C762.909 758.743 760.948 782.243 758.795 805.721C757.96 814.598 757.175 824.678 755.714 833.528C755.494 834.846 754.451 835.945 753.506 836.851L752.841 837.247C749.09 839.449 742.987 840.641 741.856 842.927L742.086 845.146C743.361 846.843 745.481 852.293 746.772 854.803C753.143 867.174 758.515 879.094 765.178 891.415C762.668 895.239 751.43 894.711 747.497 892.855C745.146 889.729 741.592 880.736 739.582 876.622C736.676 870.667 732.743 863.724 730.387 857.703C728.426 854.611 724.718 846.937 722.883 843.372C720.033 843.438 717.281 843.652 714.441 843.838C684.472 845.789 654.603 847.821 624.716 850.881C621.942 851.166 618.724 851.309 615.95 851.227C612.868 850.606 602.372 851.787 598.895 852.122C599.048 857.127 599.603 869.849 598.895 874.612C598.296 871.134 598.307 856.517 598.258 852.424L526.082 846.849C516.794 846.151 504.951 846.261 496.113 844.965C481.503 845.036 457.51 842.059 442.24 840.977C436.368 840.46 403.038 837.159 399.792 838.356C397.974 835.56 387.01 835.06 384.335 836.12C382.297 836.423 372.251 835.28 369.658 835.005C362.578 834.258 356.948 833.868 349.824 833.885C347.264 832.154 340.157 833.242 337.218 832.253C335.933 831.819 333.225 830.105 331.555 829.342L330.929 829.853C324.211 827.579 311.973 810.193 310.962 802.524C310.479 798.882 310.479 787.039 309.452 784.979L310.1 783.605L308.518 783.061C310.886 782.776 313.247 782.452 315.604 782.084C322.223 781.018 336.345 778.502 340.162 773.207C340.646 771.427 340.404 771.125 339.805 769.4C340.261 769.218 340.047 769.372 340.371 768.828L339.031 767.472C339.607 766.219 339.487 766.708 339.465 765.329C335.872 761.154 314.308 759.265 307.952 758.562C308.342 756.403 309.013 752.525 307.947 750.58C307.919 741.231 307.694 731.881 307.277 722.543C306.568 704.168 304.316 689.638 315.846 673.625C327.446 657.503 345.331 659.332 362.996 658.733L425.652 656.613C432.941 656.322 443.833 656.706 450.534 655.547C451.331 649.428 451.951 643.281 452.396 637.123C453.945 616.787 457.895 587.997 460.784 567.298C461.097 561.899 460.092 558.399 465.37 556.197C469.501 554.983 510.752 554.823 517.458 554.681L596.873 552.813C608.057 552.659 621.739 552.203 632.791 552.692Z" fill="#2A7041"/>
<path d="M465.371 556.197C469.501 554.983 510.752 554.823 517.459 554.681L596.874 552.813C608.057 552.659 621.739 552.203 632.791 552.692L630.017 553.686C636.564 553.95 679.99 552.428 682.534 553.719L682.578 554.302C675.327 554.433 639.734 553.384 635.169 554.703C646.1 554.746 657.031 554.708 667.956 554.604C673.339 554.56 690.949 553.62 694.656 556.383C696.293 562.904 688.504 645.198 686.939 658.953C673.317 659.359 659.695 659.854 646.078 660.436C627.529 661.073 605.75 659.458 591.979 673.949C581.724 684.744 583.718 706.052 583.526 719.955L474.165 720.84C464.865 720.999 454.616 720.653 445.492 720.993C449.178 700.789 449.167 676.169 452.413 655.558L450.628 655.877L450.535 655.547C451.331 649.428 451.952 643.281 452.397 637.123C453.946 616.787 457.895 587.997 460.784 567.298C461.097 561.899 460.092 558.399 465.371 556.197Z" fill="#3B8652"/>
<path d="M452.394 637.123L453.158 636.711C453.85 638.458 453.235 653.224 452.411 655.558L450.626 655.877L450.532 655.547C451.329 649.428 451.949 643.281 452.394 637.123Z" fill="#195632"/>
<path d="M460.783 567.298C461.096 561.899 460.091 558.399 465.37 556.197C465.144 557.076 461.453 569.084 461.448 569.089L460.783 567.298Z" fill="#05250D"/>
<path d="M632.791 552.692C644.101 552.593 684.407 550.72 693.321 553.587C698.518 555.257 702.934 559.245 706.724 563.025C707.081 563.382 707.438 563.744 707.784 564.112C704.362 563.981 700.616 560.091 697.908 557.784C697.32 574.929 693.47 596.023 692.223 613.562C691.141 628.768 690.526 643.726 688.916 658.86C695.233 658.761 702.928 658.448 709.086 658.98L709.366 659.403C706.142 660.546 694.947 660.37 690.85 660.48C676.876 660.826 662.908 661.249 648.94 661.749C629.737 662.441 598.565 660.343 588.991 681.222C583.619 694.252 585.784 710.836 584.987 724.679C583.894 745.609 583.526 766.571 582.713 787.478C582.466 793.889 574.348 793.235 569.97 793.01C495.894 789.175 421.615 787.264 347.589 783.259C346.556 783.204 345.738 781.65 345.617 780.771C343.321 764.714 342.87 748.07 341.777 731.859C341.623 729.607 342.513 725.778 343.348 723.872C344.864 722.416 347.561 722.449 349.588 722.383C380.798 721.378 412.552 722.136 443.702 720.834C446.64 707.65 447.343 689.957 448.689 676.344C449.249 670.681 449.535 661.26 450.628 655.877L452.413 655.558C449.167 676.169 449.178 700.789 445.492 720.993C454.616 720.653 464.865 720.999 474.165 720.84L583.526 719.955C583.718 706.052 581.724 684.744 591.979 673.949C605.75 659.458 627.529 661.073 646.078 660.436C659.695 659.854 673.317 659.359 686.939 658.953C688.504 645.198 696.293 562.904 694.656 556.383C690.949 553.62 673.339 554.56 667.956 554.604C657.031 554.708 646.1 554.746 635.169 554.703C639.734 553.384 675.327 554.433 682.578 554.302L682.534 553.719C679.99 552.428 636.564 553.95 630.017 553.686L632.791 552.692Z" fill="#05250D"/>
<path d="M517.761 721.609C522.095 720.944 534.338 721.131 539.38 721.114C554.008 721.054 568.635 721.103 583.257 721.252C583.268 729.711 581.587 786.165 579.802 790.208C573.469 792.631 557.161 790.664 549.685 790.296L514.806 788.906L413.612 784.891C392.41 782.485 368.84 784.896 347.786 781.523C345.886 780.282 345.705 771.531 345.831 770.202C346.512 762.852 341.096 730.491 344.359 725.355C350.159 723.921 365.841 723.976 372.339 723.855L431.749 723.317C460.317 723.053 489.506 721.576 517.761 721.609Z" fill="#3B8652"/>
<path d="M739.109 840.85L739.971 841.361C739.895 843.756 739.532 843.333 740.636 844.921C741.015 844.992 741.746 845.162 742.086 845.146C743.36 846.843 745.481 852.293 746.772 854.803C753.143 867.174 758.515 879.094 765.178 891.415C762.668 895.239 751.429 894.711 747.497 892.854C745.146 889.729 741.592 880.736 739.581 876.622C736.676 870.667 732.743 863.724 730.386 857.703C730.496 851.54 726.997 846.97 723.174 842.624L721.911 842.548L722.34 842.493L722.477 842.114L739.109 840.85Z" fill="black"/>
<path d="M442.239 840.977L442.245 839.625C444.782 838.439 464.381 841.619 468.594 842.196C477.822 843.459 491.537 841.658 499.743 844.712L500.023 844.657L496.113 844.965C481.502 845.036 457.509 842.059 442.239 840.977Z" fill="#195632"/>
<path d="M767.722 698.312C766.953 710.26 765.14 723.68 764.668 735.232C764.217 735.677 764.514 735.501 763.723 735.617C763.119 733.491 763.152 726.366 763.382 723.108C763.888 716.11 763.888 706.64 766.101 699.795C766.755 699.196 767.299 698.702 767.722 698.312Z" fill="#195632"/>
<path d="M739.108 840.85C741.503 839.521 748.507 837.697 751.286 836.137C752.104 835.67 752.61 836.329 753.505 836.851L752.84 837.247C749.089 839.449 742.986 840.641 741.855 842.927L742.086 845.146C741.745 845.162 741.014 844.992 740.635 844.921C739.531 843.333 739.894 843.756 739.971 841.361L739.108 840.85Z" fill="#195632"/>
<path d="M192.982 698.762C195.041 697.642 200.045 697.993 202.307 698.378C203.122 699.13 203.005 698.795 203.307 699.718C203.737 712.847 202.555 733.183 203.442 744.938C203.695 747.916 203.805 750.454 203.883 753.442C240.487 753.464 271.266 754.64 307.897 756.859C307.903 755.244 307.809 752.063 307.946 750.58C309.012 752.525 308.342 756.403 307.952 758.562C314.307 759.265 335.872 761.154 339.464 765.329C339.486 766.708 339.607 766.219 339.03 767.472L340.37 768.828C340.046 769.372 340.261 769.218 339.805 769.4C340.403 771.125 340.645 771.427 340.162 773.207C336.344 778.502 322.222 781.018 315.603 782.084C313.247 782.452 310.885 782.776 308.518 783.061L310.1 783.605L309.451 784.979C307.342 785.352 303.53 785.885 301.696 786.665C298.158 786.286 292.6 786.72 288.892 786.896C291.259 794.822 294.863 803.145 294.912 811.346C292.775 805.358 287.98 792.867 286.722 787.181C262.543 789.576 236.71 789.692 212.37 790.137C212.317 795.762 212.75 817.608 212.162 821.668C212.2 830.858 214.419 889.355 213.13 891.992C210.105 893.723 200.015 894.612 199.972 889.207C199.772 864.087 198.569 839.032 198.41 813.911C197.577 809.824 197.834 795.114 197.849 790.054C173.251 788.917 151.199 788.033 126.376 786.198C126.101 788.077 126.095 789.5 125.041 791.049C124.439 788.813 125.696 788.489 125.336 786.341C121.723 785.33 116.397 784.72 112.639 784.764C111.788 788.165 113.758 788.582 109.979 790.878C110.347 788.747 110.9 786.357 111.341 784.215C99.4142 782.627 82.8958 782.15 74.3753 773.36C74.3292 770.053 73.7535 767.851 74.1232 764.428L75.5085 763.495C92.0473 755.123 170.398 753.75 192.815 753.014C192.823 748.707 192.865 744.697 193.062 740.396C193.168 726.52 193.142 712.638 192.982 698.762Z" fill="#BCF8D0"/>
<path d="M75.5085 763.495L76.9756 763.978L77.0371 764.939C86.5358 774.349 181.596 777.568 200.432 777.343C237.259 776.904 278.104 777.343 314.747 772.251C322.81 771.125 331.516 770.553 339.03 767.472L340.37 768.828C340.046 769.372 340.261 769.219 339.805 769.4C340.403 771.125 340.645 771.427 340.162 773.207C336.344 778.502 322.222 781.018 315.603 782.084C313.247 782.452 310.885 782.776 308.518 783.061L310.1 783.605L309.451 784.979C307.342 785.352 303.53 785.885 301.696 786.665C298.158 786.286 292.6 786.72 288.892 786.896C291.259 794.822 294.863 803.145 294.912 811.346C292.775 805.358 287.98 792.867 286.722 787.181C262.543 789.576 236.71 789.692 212.37 790.137C212.317 795.762 212.75 817.608 212.162 821.668C212.2 830.858 214.419 889.355 213.13 891.992C210.105 893.723 200.015 894.612 199.972 889.207C199.772 864.087 198.569 839.032 198.41 813.911C197.577 809.824 197.834 795.114 197.849 790.054C173.251 788.917 151.199 788.033 126.376 786.198C126.101 788.077 126.095 789.5 125.041 791.049C124.439 788.813 125.696 788.489 125.336 786.341C121.723 785.33 116.397 784.72 112.639 784.764C111.788 788.165 113.758 788.582 109.979 790.878C110.347 788.747 110.9 786.357 111.341 784.215C99.4142 782.627 82.8958 782.15 74.3753 773.36C74.3292 770.053 73.7535 767.851 74.1232 764.428L75.5085 763.495Z" fill="#BCF8D0"/>
<path d="M198.499 789.977L212.015 790.302C211.899 794.773 211.242 818.817 212.162 821.668C212.2 830.858 214.419 889.355 213.13 891.992C210.105 893.723 200.015 894.612 199.972 889.207C199.772 864.087 198.569 839.032 198.41 813.911C198.68 805.968 198.377 797.959 198.499 789.977Z" fill="black"/>
<path d="M75.5085 763.495L76.9756 763.978L77.0371 764.939C86.5358 774.349 181.596 777.568 200.432 777.343C237.259 776.904 278.104 777.343 314.747 772.251C322.81 771.125 331.516 770.553 339.03 767.472L340.37 768.828C340.046 769.372 340.261 769.219 339.805 769.4C304.398 778.365 267.41 778.365 231.062 779.15C204.568 780.128 177.99 779.211 151.51 778.227C149.681 778.161 141.184 776.283 140.646 776.47C133.666 778.931 77.4788 769.323 77.0273 769.559C76.1984 771.614 76.2264 770.603 76.919 772.696C89.6903 785.396 194.733 788.154 216.75 787.632C242.632 787.017 282.504 786.149 308.518 783.061L310.1 783.605L309.451 784.979C307.342 785.352 303.53 785.885 301.696 786.665C298.158 786.286 292.6 786.72 288.892 786.896C291.259 794.822 294.863 803.145 294.912 811.346C292.775 805.358 287.98 792.867 286.722 787.181C262.543 789.576 236.71 789.692 212.37 790.137C212.317 795.762 212.75 817.608 212.162 821.668C211.243 818.817 211.899 794.773 212.015 790.302L198.499 789.977C198.377 797.959 198.68 805.968 198.41 813.911C197.577 809.824 197.834 795.114 197.849 790.054C173.251 788.917 151.199 788.033 126.376 786.198C126.101 788.077 126.095 789.5 125.041 791.049C124.439 788.813 125.696 788.489 125.336 786.341C121.723 785.33 116.397 784.72 112.639 784.764C111.788 788.165 113.758 788.582 109.979 790.878C110.347 788.747 110.9 786.357 111.341 784.215C99.4142 782.627 82.8958 782.15 74.3753 773.36C74.3292 770.053 73.7535 767.851 74.1232 764.428L75.5085 763.495Z" fill="#3B8652"/>
<path d="M192.982 698.762C195.041 697.642 200.045 697.993 202.308 698.378C203.122 699.13 203.005 698.795 203.307 699.718C203.737 712.847 202.555 733.183 203.442 744.938C203.107 747.306 202.4 756.502 202.797 758.836C201.184 762.346 199.958 763.78 196.005 762.187C191.766 758.106 193.594 747.685 193.113 741.033L193.062 740.396C193.168 726.52 193.142 712.638 192.982 698.762Z" fill="black"/>
<path d="M193.062 740.396L193.113 741.033C193.594 747.685 191.766 758.106 196.004 762.187C199.958 763.78 201.184 762.346 202.797 758.836C207.975 758.463 221.49 759.803 225.543 762.237C217.589 768.971 199.208 766.829 189.85 767.532C180.418 766.027 176.423 765.554 168.026 761.138C172.912 758.298 174.939 757.611 180.368 757.43C183.008 757.908 189.041 757.979 191.72 756.985C193.215 755.496 192.722 755.87 192.815 753.013C192.823 748.707 192.865 744.697 193.062 740.396Z" fill="#3B8652"/>
<path d="M203.443 744.938C203.696 747.916 203.805 750.454 203.883 753.442C240.487 753.464 271.266 754.64 307.898 756.859C307.903 755.244 307.81 752.063 307.947 750.58C309.013 752.525 308.343 756.403 307.953 758.562C288.915 757.353 268.866 757.1 249.729 756.397C243.346 756.167 214.071 755.068 209.204 755.991L208.924 756.562C215.667 758.166 222.328 757.232 228.204 761.22C227.265 761.506 226.27 761.682 225.544 762.237C221.491 759.803 207.976 758.463 202.797 758.836C202.4 756.502 203.107 747.306 203.443 744.938Z" fill="#40975F"/>
<path d="M75.5088 763.495C92.0476 755.123 170.398 753.75 192.816 753.013C192.722 755.87 193.215 755.496 191.72 756.985C189.042 757.979 183.008 757.908 180.368 757.43C175.095 754.134 84.9756 758.924 77.0374 764.939L76.9759 763.978L75.5088 763.495Z" fill="#4D9E69"/>
<path d="M228.204 761.22C229.42 767.433 224.44 768.927 219.02 769.812C213.755 770.663 206.581 771.559 201.25 771.372C193.614 772.256 174.85 772.152 168.81 765.829C167.646 764.61 167.874 762.742 168.027 761.138C176.423 765.554 180.418 766.027 189.851 767.532C199.208 766.829 217.589 768.971 225.543 762.237C226.27 761.682 227.264 761.506 228.204 761.22Z" fill="#2A7041"/>
<path d="M193.266 617.04C197.41 613.222 199.781 613.095 203.849 617.073C207.983 623.445 219.618 617.204 222.781 622.385C228.031 630.976 230.971 641.984 234.845 651.306C237.477 659.244 249.854 683.975 249.733 691.011C247.091 696.818 226.239 697.878 220.728 698.779C217.416 699.323 205.412 698.724 203.306 699.718C203.005 698.795 203.122 699.13 202.307 698.378C200.045 697.993 195.041 697.642 192.982 698.762C185.804 699.965 151.885 695.807 147.522 689.215C147.68 687.045 171.112 626.856 173.251 623.038C176.294 616.738 190.923 623.917 193.266 617.04Z" fill="#40975F"/>
<path d="M193.266 617.04C197.409 613.222 199.781 613.095 203.849 617.073C203.351 621.39 203.341 622.33 200.379 625.719C199.277 626.592 199.574 626.356 198.232 626.922C196.474 626.642 197.125 627.065 196.121 625.774C194.09 622.258 193.477 621.083 193.266 617.04Z" fill="black"/>
<path d="M193.267 617.04C193.478 621.083 194.09 622.258 196.122 625.774C188.864 625.258 181.639 624.527 174.617 622.544C174.162 622.709 173.707 622.873 173.252 623.038C176.295 616.738 190.924 623.917 193.267 617.04Z" fill="#40975F"/>
<path d="M173.252 623.038C173.707 622.873 174.162 622.709 174.617 622.544C181.639 624.527 188.864 625.258 196.122 625.774C197.126 627.065 196.475 626.642 198.233 626.922C199.575 626.356 199.278 626.592 200.38 625.719C206.942 625.966 214.994 624.62 221.341 623.137C222.317 622.906 222.12 622.989 222.836 623.549L222.124 624.565C215.468 628.323 177.552 628.9 173.252 623.038Z" fill="#05250D"/>
<path d="M309.452 784.979C310.479 787.039 310.479 798.882 310.963 802.524C311.973 810.193 324.211 827.579 330.929 829.853L331.555 829.342C333.225 830.105 335.933 831.819 337.218 832.253C340.157 833.242 347.265 832.154 349.824 833.885C348.259 836.955 345.084 847.991 343.766 852.26C341.228 860.483 336.493 871.497 334.56 879.495C334.285 881.604 333.741 884.961 333.587 886.988C335.867 893.481 347.666 925.281 346.825 930.225C344.167 933.351 337.844 932.34 334.065 932.137C332.522 925.528 328.507 914.317 326.167 907.631C324.804 904.654 323.634 901.325 322.476 898.232C319.553 897.518 318.554 897.37 315.884 895.788L313.132 895.063C308.996 891.196 315.653 884.192 315.824 879.858C316.109 872.447 311.276 862.982 309.342 855.484L309.161 854.781C305.574 840.18 299.12 826.002 294.913 811.346C294.863 803.145 291.26 794.822 288.893 786.896C292.6 786.72 298.159 786.286 301.696 786.665C303.531 785.885 307.343 785.352 309.452 784.979Z" fill="black"/>
<path d="M330.928 829.853L331.554 829.342C333.224 830.105 335.932 831.819 337.217 832.253C340.156 833.242 347.263 832.154 349.823 833.885C348.257 836.955 345.083 847.991 343.764 852.26C341.227 860.483 336.492 871.497 334.558 879.495C332.482 878.633 327.072 861.109 325.133 857.264C326.358 849.744 331.559 840.345 332.685 832.605C332.872 831.286 331.999 830.907 330.928 829.853Z" fill="black"/>
<path d="M309.451 784.979C310.478 787.039 310.478 798.882 310.962 802.524C311.972 810.193 324.21 827.579 330.928 829.853C331.999 830.907 332.872 831.287 332.686 832.605C331.56 840.345 326.358 849.744 325.133 857.264C323.886 857.291 324.49 857.401 323.375 856.682C321.458 844.531 314.158 826.469 310.572 814.422C308.397 807.122 304.656 793.043 301.695 786.665C303.53 785.885 307.342 785.352 309.451 784.979Z" fill="#BCF8D0"/>
<path d="M309.16 854.781C313.807 860.016 325.985 900.551 326.166 907.631C324.804 904.654 323.634 901.325 322.475 898.232C319.553 897.518 318.553 897.37 315.883 895.788L313.131 895.063C308.995 891.196 315.653 884.192 315.823 879.858C316.109 872.447 311.275 862.982 309.341 855.484L309.16 854.781Z" fill="#3B8652"/>
<path d="M313.133 895.063C314.55 890.531 316.396 886.351 316.017 881.747L316.577 881.104C319.005 883.384 321.141 892.69 321.531 896.096L321.174 896.969C318.719 896.919 319.433 895.651 315.885 895.788L313.133 895.063Z" fill="black"/>
<path d="M323.376 856.682C324.491 857.401 323.887 857.291 325.134 857.264C327.073 861.109 332.483 878.633 334.559 879.495C334.285 881.604 333.741 884.961 333.587 886.988C331.571 884.664 323.953 860.488 323.376 856.682Z" fill="#2A7041"/>
<path d="M109.978 790.878C113.757 788.582 111.788 788.165 112.638 784.764C116.397 784.72 121.722 785.33 125.336 786.341C125.695 788.489 124.438 788.813 125.041 791.049C123.104 800.332 119.848 809.522 117.428 818.718C114.445 830.05 89.561 928.05 88.1477 929.681C86.5976 931.472 82.6797 931.373 80.5814 931.109C78.5727 930.862 77.1424 930.445 75.8966 928.808C75.6643 921.458 85.5381 887.625 87.6891 879.786C94.0783 857.286 99.8095 834.604 104.875 811.775C106.363 805.336 108.842 797.673 109.879 791.505L109.978 790.878Z" fill="black"/>
<path d="M598.894 852.122C602.371 851.787 612.868 850.606 615.949 851.227C615.724 860.434 617.295 911.998 615.004 915.992C611.066 919.046 603.036 919.024 599.663 915.163C599.075 912.097 599.042 908.565 599.097 905.418C599.268 895.233 598.608 884.763 598.894 874.612C599.603 869.849 599.048 857.127 598.894 852.122Z" fill="black"/>
<path d="M384.335 836.121C387.01 835.06 397.974 835.56 399.792 838.356C401.791 841.427 414.705 877.078 413.749 879.676C413.007 880.27 412.398 880.704 411.48 881.006C408.844 881.863 403.472 882.56 400.962 881.16C399.286 880.22 385.631 840.977 384.335 836.121Z" fill="black"/>
</svg>
