<svg width="597" height="800" viewBox="0 0 597 800" fill="none" xmlns="http://www.w3.org/2000/svg">
<path d="M34.8535 0.0868968L534.844 0L534.918 759.073L34.7324 759.14L34.8535 0.0868968Z" fill="#137B46"/>
<path d="M36.2022 1.66229C56.1983 2.40056 79.3843 1.83609 99.6818 1.84129L218.166 1.89773L533.121 1.70537C532.489 24.0258 533.054 49.4108 533.017 72.0291L533.054 229.914L532.89 757.425L36.1963 757.514L36.2022 1.66229Z" fill="#B3FFD6"/>
<path d="M371.919 391.748L514.432 391.31C514.165 411.057 514.729 431.623 514.736 451.5L514.825 625.135L221.441 627.03C185.689 627.467 149.933 627.681 114.178 627.673C96.6059 627.803 66.8803 628.92 50.1232 627.516C49.6331 590.04 49.9554 552 49.9554 514.472C72.7835 513.739 97.5378 514.021 120.458 513.984L259.346 513.542C343.613 512.468 429.294 513.258 513.697 513.118L513.623 499.195C464.11 498.385 412.316 499.113 362.658 499.195L49.6101 499.527C49.4624 463.967 49.6324 428.407 50.1203 392.851L371.919 391.748Z" fill="#137B46"/>
<path d="M51.8119 516.15C70.5672 515.333 92.1397 515.875 111.19 515.776L232.261 515.374C325.903 514.641 419.548 514.487 513.192 514.912V539.89L497.832 539.943L497.721 549.479L481.745 549.744L481.08 540.053C475.754 539.978 473.256 540.065 467.992 540.775L467.56 544.13C464.903 547.486 457.802 547.511 454.323 545.308C453.154 544.568 453.206 542.031 453.035 540.681C449.93 540.477 445.809 539.853 443.159 541.153C441.414 542.933 441.424 543.07 440.698 545.524C437.097 546.193 428.549 546.69 424.913 546.121L424.809 545.671C424.477 544.299 424.492 543.89 423.495 542.869C419.207 542.473 415.011 541.703 411.284 544.046C410.029 546.104 410.095 546.391 409.763 548.85C406.052 550.977 379.018 550.036 372.703 549.978L372.508 540.281C363.463 540.273 351.549 539.934 342.762 540.776C340.571 543.543 343.545 545.007 339.005 545.368C333.662 545.793 327.545 545.552 322.147 545.48L322 537.078C317.502 537.017 309.415 536.614 305.312 537.546C304.356 538.95 304.416 539.749 304.221 541.426C302.201 543.057 293.917 542.019 292.64 542.832C288.776 545.292 291.831 544.866 286.197 545.151L273.443 545.2C270.037 545.275 255.643 545.788 254.619 543.656C251.784 537.76 249.321 539.279 240.454 539.546L240.4 551.087C223.85 551.091 206.338 551.398 189.871 551.053L190.188 540.511C181.092 541.223 170.301 540.4 162.342 541.56C160.143 544.307 162.703 545.567 160.574 547.812C156.818 548.157 136.805 548.74 134.435 547.247C134.247 544.57 134.718 543.046 133.188 541.658C128.057 541.429 123.926 541.604 118.831 541.823L118.754 542.39C118.479 544.31 118.531 544.617 117.598 546.239C113.022 547.01 101.938 546.657 97.3056 545.827L95.6192 545.821C91.1164 546.078 85.1724 545.873 80.5604 545.847L80.1631 537.502C70.8301 537.384 61.1086 537.593 51.7451 537.66L51.8119 516.15Z" fill="#B3FFD6"/>
<path d="M273.442 545.2C275.769 536.037 285.316 535.402 288.07 541.61C287.523 544.296 288.08 543.429 286.196 545.151L273.442 545.2Z" fill="#B3FFD6"/>
<path d="M453.035 540.681C457.254 539.988 464.222 538.936 467.992 540.775L467.559 544.13C464.903 547.486 457.802 547.511 454.323 545.308C453.154 544.568 453.206 542.031 453.035 540.681Z" fill="#B3FFD6"/>
<path d="M95.6178 545.821L89.791 544.822C89.8014 541.864 89.8014 541.459 91.0742 538.806L92.5466 537.685C95.0705 538.167 94.1364 537.735 96.0589 539.773C96.7346 542.204 97.0613 543.327 97.3041 545.827L95.6178 545.821Z" fill="#B3FFD6"/>
<path d="M51.7275 394.448L513.191 392.923L513.154 414.149C508.966 414.016 501.996 414.015 498.113 413.186C496.201 410.839 495.379 410.349 491.914 410.064C487.623 409.711 470.154 409.958 467.129 411.752C466.659 412.772 465.989 415.053 464.697 414.945C446.162 413.387 427.484 413.957 408.838 414.107C408.609 414.424 408.38 414.741 408.152 415.058C408.093 417.571 408.215 423.506 407.335 425.482C404.587 427.34 400.647 426.394 399.888 426.735C396.724 428.153 399.883 430.768 392.975 429.787C392.182 427.395 392.457 423.865 392.481 421.229C385.854 421.149 379.227 421.105 372.6 421.095L372.377 411.285C361.971 412.17 362.925 408.677 353.676 408.371C349.977 408.248 344.128 410.167 340.033 410.779C337.5 411.158 333.217 411.49 331.491 412.981C330.298 418.801 326.503 417.756 321.152 417.236C319.037 413.884 321.775 413.739 319.396 411.269C316.904 410.964 296.187 411.134 294.61 411.81L293.911 413.973C288.144 415.616 265.153 415.432 258.669 414.817C256.692 412.229 254.519 411.394 251.317 411.283C247.65 411.154 233.232 410.796 231.075 413.738C227.041 419.242 222.859 418.566 216.059 418.264C213.367 414.499 216.828 414.793 209.598 413.946C197.161 412.514 185.334 409.211 173.873 415.97C172.604 416.719 155.703 414.327 153.113 414.307C142.834 414.229 137.791 409.22 129.102 416.572C126.023 417.158 122.956 416.72 119.8 416.487L119.991 418.031C114.987 418.077 110.044 418.23 105.062 417.718L104.358 414.323C96.9523 412.156 75.3353 414.959 67.3098 415.727C62.5828 416.18 56.5748 415.905 51.7334 415.859C51.7096 408.822 51.5738 401.455 51.7275 394.448Z" fill="#B3FFD6"/>
<path d="M104.357 414.323C107.187 417.935 114.466 415.464 119.799 416.487L119.991 418.031C114.986 418.077 110.044 418.23 105.062 417.718L104.357 414.323Z" fill="#137B46"/>
<path d="M189.267 413.451C193.526 413.245 197.962 413.437 202.239 413.545L203.504 481.004C203.589 484.688 202.389 492.191 203.298 495.011L203.979 495.336C204.731 493.739 203.933 424.492 203.943 415.848C207.054 415.8 211.948 415.321 214.241 416.865C213.203 428.1 216.192 491.496 212.854 496.112C207.386 497.067 196.012 496.977 190.012 497.083C188.795 471.702 189.463 439.268 189.267 413.451Z" fill="#B3FFD6"/>
<path d="M344.274 542.195L361.513 541.942C363.092 566.981 360.227 598.936 362.14 622.834L359.792 623.187C356.079 622.811 348.748 622.877 344.258 622.549C344.237 600.651 342.862 563.001 344.274 542.195Z" fill="#B3FFD6"/>
<path d="M409.249 414.908C415.649 415.661 419.237 415.731 425.664 415.706C425.986 441.027 427.681 472.53 426.863 496.915C423.082 496.94 413.826 496.773 410.526 497.377L409.321 497.501C407.333 494.333 408.088 479.054 408.23 474.522C408.32 471.657 408.707 471.717 410.401 470.374C409.744 452.426 409.016 432.783 409.249 414.908Z" fill="#B3FFD6"/>
<path d="M410.526 497.377L409.321 497.501C407.333 494.333 408.088 479.054 408.23 474.522C408.32 471.657 408.707 471.717 410.401 470.374C410.53 477.788 411.086 490.308 410.526 497.377Z" fill="#137B46"/>
<path d="M80.768 547.685C86.8086 547.51 93.0972 547.519 99.1616 547.442L99.1824 596.991C99.2114 603.637 98.9099 617.155 99.8708 623.255C93.7225 623.057 87.5549 623.249 81.4029 623.37C81.5031 598.049 80.3811 573.09 80.768 547.685Z" fill="#B3FFD6"/>
<path d="M373.001 422.598L390.979 422.648C390.749 447.449 391.413 472.167 391.264 496.976L373.281 496.873C373.538 472.427 373.184 447.088 373.001 422.598Z" fill="#B3FFD6"/>
<path d="M306.038 538.49L320.47 538.603C320.265 563.146 321.122 589.063 321.351 613.768L323.41 613.869C323.323 616.676 322.792 619.716 324.277 621.842C327.032 623.142 328.462 622.473 331.329 622.796L330.461 625.107C326.153 626.329 319.278 626.052 314.635 625.989C311.748 625.672 309.299 625.713 306.912 624.183L307.167 622.822C307.409 616.85 306.719 608.225 306.699 601.918C306.632 580.743 305.487 559.673 306.038 538.49Z" fill="#B3FFD6"/>
<path d="M321.35 613.768L323.409 613.869C323.322 616.676 322.791 619.716 324.276 621.842C327.031 623.142 328.461 622.473 331.328 622.796L330.46 625.107C326.152 626.329 319.278 626.052 314.634 625.989C311.747 625.672 309.298 625.713 306.911 624.183L307.166 622.822C311.527 623.079 317.031 622.853 321.485 622.793C321.287 620.213 321.366 616.459 321.35 613.768Z" fill="#137B46"/>
<path d="M480.261 411.561L495.839 411.471C495.646 431.123 496.195 451.124 496.137 470.82C496.126 474.768 495.943 494.404 496.378 496.873C491.714 497.213 486.359 497.15 481.634 497.205C480.388 471.454 480.322 437.439 480.261 411.561Z" fill="#B3FFD6"/>
<path d="M51.7808 539.135L66.4468 538.789L67.2562 623.273C62.2351 623.183 56.6964 623.434 51.6367 623.557L51.7808 539.135Z" fill="#B3FFD6"/>
<path d="M424.506 548.065L441.63 548.138C441.416 572.984 442.566 597.544 442.216 622.385L425.776 622.438C425.913 598.283 425.017 572.336 424.506 548.065Z" fill="#B3FFD6"/>
<path d="M441.45 415.613L456.386 415.578C457.811 441.288 455.004 471.426 457.126 497.175L441.282 497.446L441.45 415.613Z" fill="#B3FFD6"/>
<path d="M105.063 417.718C110.044 418.23 114.987 418.077 119.992 418.031C120.739 425.206 122.403 494.647 120.958 496.718C116.761 497.83 111.12 497.486 106.668 497.442C107.153 479.544 104.668 457.748 104.853 439.584C104.918 433.294 103.762 423.55 105.063 417.718Z" fill="#B3FFD6"/>
<path d="M497.419 415.811C502.513 415.941 508.031 415.776 513.159 415.721C512.934 442.925 512.946 470.129 513.193 497.332L498.385 497.309C497.711 470.485 497.918 442.821 497.419 415.811Z" fill="#B3FFD6"/>
<path d="M161.455 417.439L177.172 417.349L177.14 468.89C177.118 476.737 176.69 490.22 177.374 497.36L162.423 497.528C162.377 471.093 161.545 444.129 161.455 417.439Z" fill="#B3FFD6"/>
<path d="M145.244 415.487C149.477 415.903 154.973 415.822 159.312 415.88L160.258 464.554C160.43 474.638 160.313 487.68 161.088 497.534L145.213 497.556C145.632 470.536 145.261 442.578 145.244 415.487Z" fill="#B3FFD6"/>
<path d="M233.073 413.242L244.945 412.999C245.052 421.742 246.205 494.296 244.59 496.921L231.558 496.888C230.528 479.744 231.507 460.552 231.248 443.22C231.169 437.895 230.959 418.398 231.779 414.075L233.073 413.242Z" fill="#B3FFD6"/>
<path d="M146.798 549.858L161.468 549.725C161.412 574.293 162.156 598.511 162.094 623.098L146.056 623.133C145.789 598.705 146.037 574.275 146.798 549.858Z" fill="#B3FFD6"/>
<path d="M200.735 552.586L216.513 552.56C216.344 574.283 217.261 601.184 218.248 623.125L200.779 623.212C201.888 603.838 201.257 572.387 200.735 552.586Z" fill="#B3FFD6"/>
<path d="M385.488 551.437H401.455C401.479 575.22 401.733 599.002 402.216 622.781C397.246 623.061 391.707 622.958 386.687 622.973C386.866 599.952 385.568 574.913 385.488 551.437Z" fill="#B3FFD6"/>
<path d="M481.691 551.1L497.707 551.128L498.997 623.035L483.525 623.138C483.123 599.12 482.512 575.107 481.691 551.1Z" fill="#B3FFD6"/>
<path d="M78.6617 415.828L90.7689 415.441C90.8951 442.804 92.6743 470.093 92.5406 497.355L78.6862 497.275C77.68 488.039 76.6806 421.541 78.6617 415.828Z" fill="#B3FFD6"/>
<path d="M215.404 420.108C220.159 420.017 225.118 420.178 229.887 420.261C229.856 444.526 229.234 473.065 230.201 496.951C225.367 497.12 220.693 497.018 215.866 496.939C214.365 475.117 215.804 443.336 215.404 420.108Z" fill="#B3FFD6"/>
<path d="M333.309 412.609C337.803 412.385 342.602 412.351 347.126 412.237C346.317 420.315 346.381 432.146 346.078 440.674C345.339 459.289 344.726 477.909 344.238 496.531C341.917 496.847 334.549 496.726 331.856 496.748C331.12 487.685 331.925 472.506 332.191 463.03C332.712 446.227 333.084 429.419 333.309 412.609Z" fill="#B3FFD6"/>
<path d="M175.998 542.209L188.386 542.33C188.657 561.704 188.413 600.782 188.533 622.025C188.224 622.383 187.914 622.742 187.605 623.101L174.9 623.09C174.403 605.647 174.637 563.449 174.958 543.577C175.305 543.121 175.652 542.665 175.998 542.209Z" fill="#B3FFD6"/>
<path d="M281.138 416.676L294.535 416.242C294.511 442.446 293.713 471.02 294.532 496.963L280.7 496.885C279.181 475.737 281.046 439.207 281.138 416.676Z" fill="#B3FFD6"/>
<path d="M51.7018 417.436L64.5026 417.39C65.0045 430.426 63.6672 489.2 66.2037 497.301C62.7702 497.726 55.2697 497.55 51.5303 497.568L51.7018 417.436Z" fill="#B3FFD6"/>
<path d="M348.199 409.949L361.24 409.92C360.428 415.55 360.368 430.136 360.118 436.807C359.381 456.543 358.755 476.282 358.238 496.025C354.252 495.999 350.198 495.884 346.205 495.81C345.64 467.429 349.19 438.208 348.199 409.949Z" fill="#B3FFD6"/>
<path d="M501.863 541.816C505.715 541.63 508.99 541.662 512.85 541.744C512.706 568.51 513.058 595.268 512.898 622.03C512.605 622.382 512.313 622.732 512.02 623.084L501.061 623.098L500.129 571.246C500.03 564.6 499.542 548.621 500.563 542.614L501.863 541.816Z" fill="#B3FFD6"/>
<path d="M306.518 412.352L319.01 412.373C317.751 428.196 319.196 448.778 318.8 464.995C318.671 470.266 318.717 492.562 319.58 496.551C317.411 496.908 309.899 496.793 307.305 496.813C306.708 487.095 307.049 474.319 307.029 464.401C307.025 447.051 306.855 429.7 306.518 412.352Z" fill="#B3FFD6"/>
<path d="M123.598 543.124L132.566 542.983C132.796 567.399 130.932 599.189 132.264 622.483L130.555 623.007C127.388 623.036 123.294 623.37 120.503 622.244C119.206 613.833 119.126 546.726 120.986 543.601L123.598 543.124Z" fill="#B3FFD6"/>
<path d="M266.187 546.98H278.918C278.933 571.645 279.174 596.31 279.639 620.971L279.188 622.567C275.379 623.364 270.257 623.08 266.265 623.024C267.257 600.124 266.224 570.524 266.187 546.98Z" fill="#B3FFD6"/>
<path d="M453.629 548.055L467.497 548.004C467.359 573.039 468.137 597.978 468.218 623.061L455.969 623.226C455.408 598.163 454.628 573.105 453.629 548.055Z" fill="#B3FFD6"/>
<path d="M427.587 415.883L439.503 415.809C439.96 442.844 439.144 470.152 439.669 497.324C436.33 497.13 432.409 497.246 429.013 497.266C428.22 470.526 427.987 442.678 427.587 415.883Z" fill="#B3FFD6"/>
<path d="M242.824 540.773L252.777 540.945C253.459 568.288 252.474 595.848 252.704 623.057L241.765 623.166C242.447 602.249 241.09 564.644 241.84 542.081C242.169 541.645 242.496 541.209 242.824 540.773Z" fill="#B3FFD6"/>
<path d="M280.44 546.648L291.795 546.676C291.627 571.665 293.041 597.557 293.252 622.824C289.526 623.018 285.646 623.381 281.982 622.773L281.158 621.575C281.275 596.597 281.036 571.619 280.44 546.648Z" fill="#B3FFD6"/>
<path d="M468.495 412.352L478.53 412.222C478.524 422.407 480.797 493.187 478.486 497.129L468.688 497.305C468.132 469.053 468.809 440.644 468.495 412.352Z" fill="#B3FFD6"/>
<path d="M68.1787 539.041C71.5551 539.066 75.019 538.864 78.2164 539.86C78.8743 542.265 78.8469 560.115 78.9041 563.568L80.0104 623.046C78.1051 623.426 71.2714 623.411 68.9636 623.458C69.2524 597.44 69.2858 564.686 68.1787 539.041Z" fill="#B3FFD6"/>
<path d="M132.633 414.032H143.768C144.338 436.393 143.552 458.957 143.876 481.343C143.951 486.568 143.644 491.834 144.387 497.012C141.178 497.176 137.962 497.566 134.883 496.74C133.059 494.283 132.771 422.316 132.633 414.032Z" fill="#B3FFD6"/>
<path d="M411.696 544.389L422.838 544.45C422.84 560.555 423.117 576.931 423.527 593.024C423.694 599.561 422.941 616.687 424.345 622.165C420.792 622.411 416.55 622.435 412.935 622.551C412.224 596.503 411.812 570.447 411.696 544.389Z" fill="#B3FFD6"/>
<path d="M469.34 541.541L479.416 541.462C479.942 568.493 481.038 596.025 481.276 622.96L470.427 623.151C470.259 595.953 469.009 568.798 469.34 541.541Z" fill="#B3FFD6"/>
<path d="M92.6321 415.34L102.803 415.445C103.81 442.212 103.805 471.05 105.383 497.437L94.7587 497.561C93.9991 470.611 92.612 442.155 92.6321 415.34Z" fill="#B3FFD6"/>
<path d="M257.374 416.477L268.522 416.596C268.75 439.134 267.464 461.627 267.653 484.17C267.683 487.781 267.178 492.081 267.743 495.554L267.472 496.36C265.177 497.378 260.268 496.919 257.523 496.838C256.677 471.955 257.439 441.886 257.374 416.477Z" fill="#B3FFD6"/>
<path d="M293.551 543.628L304.256 543.529C304.165 560.715 304.361 577.902 304.843 595.082C304.992 602.666 304.848 616.467 305.687 623.447C302.789 622.684 298.074 622.899 294.582 622.54C294.602 605.374 294.185 588.715 293.741 571.576C293.548 564.074 292.896 550.722 293.551 543.628Z" fill="#B3FFD6"/>
<path d="M362.378 412.283C365.133 412.244 368.61 411.945 370.747 413.472C371.021 421.136 372.151 494.771 370.85 497.001L360.282 497.018C359.919 491.861 360.288 485.398 360.439 480.172C361.097 457.483 362.374 434.998 362.378 412.283Z" fill="#B3FFD6"/>
<path d="M372.813 551.737L383.539 551.683C383.464 568.451 383.669 585.219 384.154 601.98C384.29 607.324 384.176 618.247 385.039 622.884C382.585 622.937 376.306 622.924 374.171 623.231L373.353 622.316C373.131 598.855 372.757 575.187 372.813 551.737Z" fill="#B3FFD6"/>
<path d="M303.926 412.473L304.395 412.76C305.037 413.766 305.732 490.221 304.977 495.932C302.84 497.41 300.762 497.029 298.05 496.994C297.339 496.904 296.799 496.63 296.101 496.368C295.413 487.94 295.937 473.881 295.967 465.007C296.022 448.049 295.731 430.361 296.302 413.472C298.055 412.39 301.684 412.559 303.926 412.473Z" fill="#B3FFD6"/>
<path d="M254.436 546.636L264.282 546.663C263.969 567.939 263.65 602.109 264.992 622.732C261.555 622.992 258.113 623.175 254.667 623.28C254 619.413 254.297 602.673 254.315 597.819L254.436 546.636Z" fill="#B3FFD6"/>
<path d="M320.473 419.005L331.464 418.985C329.761 441.592 330.232 472.398 329.44 495.938C327.633 497.204 323.519 496.84 320.899 496.902C320.241 471.402 320.512 444.585 320.473 419.005Z" fill="#B3FFD6"/>
<path d="M269.931 416.615L279.48 416.67C280.072 435.398 278.217 457.083 278.763 476.153C278.898 480.89 278.215 492.397 279.285 496.38C277.863 496.736 271.636 496.809 269.794 496.863C268.768 488.429 269.299 473.252 269.448 464.426C269.807 448.491 269.968 432.553 269.931 416.615Z" fill="#B3FFD6"/>
<path d="M332.151 547.183L342.09 547.048C342.23 570.312 341.574 599.942 342.78 622.69L332.509 622.687L332.151 547.183Z" fill="#B3FFD6"/>
<path d="M163.031 542.691C166.144 542.783 169.632 542.676 172.779 542.648C172.865 552.482 171.622 618.144 173.668 623.111L163.921 623.127C164.114 596.299 162.98 569.54 163.031 542.691Z" fill="#B3FFD6"/>
<path d="M246.533 412.904L255.895 412.877C255.941 440.825 255.605 468.86 255.909 496.797L247.276 496.893C245.638 472.03 247.554 439.267 246.533 412.904Z" fill="#B3FFD6"/>
<path d="M134.717 550.296L145.076 550.224C145.562 573.197 144.406 599.467 144.495 623.081L134.203 623.076L134.717 550.296Z" fill="#B3FFD6"/>
<path d="M229.214 552.498L240.316 552.386C239.886 575.045 239.973 600.516 240.407 623.194L229.94 623.125C230.361 616.285 229.949 605.489 229.861 598.463L229.214 552.498Z" fill="#B3FFD6"/>
<path d="M443.471 542.27L451.826 542.232C451.701 567.755 453.51 596.986 454.071 623.015C450.869 622.995 447.666 622.912 444.466 622.764C443.457 596.758 443.726 568.512 443.471 542.27Z" fill="#B3FFD6"/>
<path d="M66.2734 417.311L76.0327 417.343C76.1649 428.302 74.7459 490.568 77.2639 496.988C75.2159 497.207 70.0099 496.912 67.7013 496.84C66.0655 472.501 66.6655 442.154 66.2734 417.311Z" fill="#B3FFD6"/>
<path d="M178.557 413.629C181.618 413.56 184.282 413.293 187.227 414.075C188.676 439.829 186.113 471.753 188.123 496.842L179.07 496.838L178.929 445.266C178.932 435.566 179.331 423.042 178.557 413.629Z" fill="#B3FFD6"/>
<path d="M121.828 418.195L131.123 418.153C130.97 439.328 131.321 460.426 131.879 481.589C131.998 486.09 131.685 492.435 132.332 496.768L129.433 496.937C126.718 497.115 125.869 497.538 123.607 496.25C122.811 491.768 123.001 480.044 122.867 474.578L121.828 418.195Z" fill="#B3FFD6"/>
<path d="M458.524 416.249C461.508 416.263 463.87 416.016 466.608 417.128C467.47 421.543 467.136 492.725 466.229 497.249C463.772 497.186 460.767 497.443 458.8 496.249C457.416 490.164 458.006 471.582 458.084 464.508L458.524 416.249Z" fill="#B3FFD6"/>
<path d="M189.784 552.698L199.425 552.637C199.491 562.75 198.23 617.117 200.613 622.87C198.04 623.151 192.981 623.091 190.21 623.139C190.222 602.754 191.201 572.159 189.784 552.698Z" fill="#B3FFD6"/>
<path d="M363.427 622.7C363.391 614.023 363.046 545.941 364.35 543.142C366.43 541.23 365.459 541.611 368.059 541.226C369.323 541.933 370.81 542.536 370.914 544.359C371.249 550.224 371.056 557.486 371.025 563.293C370.981 576.986 371.098 590.679 371.377 604.368C371.441 608.616 371.289 618.974 371.702 622.778L363.427 622.7Z" fill="#B3FFD6"/>
<path d="M217.916 552.5L227.326 552.557C227.424 561.608 226.957 618.731 228.898 623.037C225.443 623.185 224.022 623.318 220.588 622.75C219.045 620.93 218.076 559.456 217.916 552.5Z" fill="#B3FFD6"/>
<path d="M110.242 548.009C113.232 547.926 114.378 547.808 117.378 548.515C118.997 551.157 118.611 614.717 118.447 622.905L110.435 623.084L110.242 548.009Z" fill="#B3FFD6"/>
<path d="M100.855 548.135C103.544 548.084 105.975 547.741 108.331 548.861C109.218 552.76 108.585 563.781 108.754 568.417C109.381 585.623 107.91 606.191 109.174 623.115C106.174 623.255 104.887 623.425 101.886 622.715C101.285 619.885 101.465 603.675 101.429 599.856L100.855 548.135Z" fill="#B3FFD6"/>
<path d="M323.411 613.869C323.223 592.041 322.888 570.215 322.406 548.391C323.926 547.106 328.376 547.109 329.819 548.183C331.433 563.945 329.653 586.527 330.525 602.885C330.865 609.279 330.111 616.449 331.33 622.796C328.462 622.473 327.033 623.142 324.277 621.842C322.793 619.716 323.324 616.676 323.411 613.869Z" fill="#B3FFD6"/>
<path d="M401.811 427.764C404.759 427.931 405.592 427.46 407.591 429.047L407.656 494.962C406.685 496.621 405.107 496.623 402.817 497.361C401.451 497.054 400.943 496.775 399.671 496.218C398.382 486.985 400.05 466.648 399.693 456.459C399.562 452.697 399.618 431.531 400.11 428.611L401.811 427.764Z" fill="#B3FFD6"/>
<path d="M403.056 551.192C405.629 551.066 407.502 550.668 409.725 551.823C410.462 554.472 410.322 571.505 410.376 575.716C410.584 591.282 410.872 606.846 411.237 622.409C408.795 622.455 406.524 622.82 404.528 621.625C403.795 614.832 403.969 603.04 403.878 595.84C403.731 580.955 403.457 566.073 403.056 551.192Z" fill="#B3FFD6"/>
<path d="M392.552 431.511C395.116 431.564 396.429 431.236 398.141 432.605C399.555 449.443 397.689 478.082 398.132 496.758C395.877 496.918 395.898 496.926 393.69 496.457C392.934 493.394 393.039 479.351 392.995 475.198L392.552 431.511Z" fill="#B3FFD6"/>
<path d="M279.64 620.971L281.159 621.576L281.983 622.773C285.648 623.381 289.528 623.019 293.253 622.824L294.584 622.54C298.076 622.899 302.79 622.684 305.688 623.447L306.336 624.214L306.912 624.183C309.299 625.713 311.748 625.672 314.635 625.989C302.836 626.282 274.107 626.665 263.79 625.167L265.393 625.083C260.391 623.329 257.228 624.539 254.668 623.281C258.113 623.175 261.556 622.993 264.993 622.733L266.266 623.025C270.258 623.08 275.379 623.365 279.188 622.567L279.64 620.971Z" fill="#137B46"/>
<path d="M51.7711 18.835C72.3047 17.9325 96.7241 18.4294 117.4 18.4606L219.209 18.65L515.279 19.9216C514.425 47.0341 515.703 75.5779 515.123 102.809C514.893 113.346 515.554 126.246 514.656 136.545L513.579 137.445L50.9053 134.354C51.6151 99.1811 53.1775 53.5753 51.7711 18.835Z" fill="#137B46"/>
<path d="M61.7373 35.5931C73.2074 36.7718 92.2641 36.3083 104.423 36.3158L177.097 36.2779L422.966 35.6117C432.778 35.6057 509.035 36.191 511.812 34.6602C512.007 32.6779 512.203 31.9916 513.052 30.1875C513.898 41.3188 513.502 55.4492 513.473 66.7869C513.467 85.7421 513.256 104.697 512.837 123.648L512.87 135.792L501.671 135.8L501.367 123.668L500.995 72.116C491.309 71.1029 477.07 71.2767 466.985 70.9024C433.179 69.6472 398.888 70.4538 365.221 74.2343C366.218 91.6661 365.917 117.256 366.045 135.006C357.625 134.937 349.205 134.987 340.786 135.154C340.621 111.026 339.895 87.1013 339.817 62.95C298.729 63.2724 254.938 61.9258 213.558 61.394C211.81 64.1146 210.079 66.8464 208.367 69.59C206.212 70.9462 205.95 71.3778 204.397 73.4232C203.216 74.4772 200.616 76.2025 200.698 77.8187C201.619 95.9101 202.645 115.589 202.406 133.653L182.553 133.667C182.399 109.853 183.418 84.6689 183.122 61.5292C180.17 59.8239 176.679 55.5064 174.743 52.6811L98.953 52.8341C87.3233 52.915 73.3218 53.5463 61.9467 53.2797C61.8732 47.4151 61.7395 41.4488 61.7373 35.5931Z" fill="#B3FFD6"/>
<path d="M501.366 123.668C505.115 123.617 509.114 123.489 512.836 123.648L512.87 135.792L501.671 135.8L501.366 123.668Z" fill="#B3FFD6"/>
<path d="M215.351 63.4565C254.207 62.7086 298.529 64.1339 337.624 64.5416L338.981 134.522C298.118 134.513 257.255 134.252 216.395 133.741C216.71 111.531 214.14 84.9852 215.351 63.4565Z" fill="#B3FFD6"/>
<path d="M62.8289 72.2594L127.961 71.9801C136.906 71.9475 166.317 71.1624 172.807 73.196C173.691 76.949 173.444 90.2305 173.432 94.6215L173.286 133.41C139.251 131.89 97.8742 132.764 63.2373 132.662C63.1401 112.405 62.624 92.6777 62.8289 72.2594Z" fill="#B3FFD6"/>
<path d="M54.0586 20.9696C70.1927 20.215 91.125 20.7467 107.469 20.7334L208.494 20.7846L513.293 21.7754C512.287 25.908 511.241 30.0301 510.156 34.1426C474.253 33.5633 437.041 34.0802 401.014 34.13L177.993 34.589C139.591 34.6187 99.5752 35.3859 61.2888 34.2763C59.0522 29.6788 56.2974 25.6153 54.0586 20.9696Z" fill="#B3FFD6"/>
<path d="M421.755 72.2527C445.967 71.6496 474.972 72.8662 499.461 73.3905C499.241 89.79 499.857 106.315 499.709 122.727C499.671 126.956 499.947 131.51 499.256 135.676C473.636 135.941 446.727 135.254 420.945 135.16C420.908 126.451 419.248 76.2768 421.755 72.2527Z" fill="#B3FFD6"/>
<path d="M404.239 73.0251C407.66 72.581 414.517 72.4881 418.21 72.321C419.514 89.2255 419.169 117.972 419.24 135.087L382.199 135.026L367.455 134.955C367.153 115.591 365.857 94.6021 366.705 75.4449C378.366 74.3249 392.334 73.8035 404.239 73.0251Z" fill="#B3FFD6"/>
<path d="M388.266 85.0284C392.467 84.5122 401.084 82.7504 402.979 87.4437C400.436 91.0474 394.818 90.1272 390.727 90.0722C387.089 90.8558 380.021 92.1526 378.205 88.1783L379.421 86.5554C381.979 84.8635 385.155 85.1182 388.266 85.0284Z" fill="#137B46"/>
<path d="M111.298 54.5579C130.17 53.5976 154.293 54.2274 173.56 54.1873L173.453 69.8321C157.565 70.4456 139.357 70.2013 123.271 70.3535C103.653 70.0081 82.5782 70.3966 62.8562 70.4426L62.5732 54.9902L111.298 54.5579Z" fill="#B3FFD6"/>
<path d="M54.188 25.313C56.1558 26.6937 60.1306 34.3148 60.317 36.725C61.2845 49.2258 61.0729 62.0171 61.0989 74.5759L61.7234 132.697L52.8277 132.699C52.6057 97.7438 53.7232 60.3712 54.188 25.313Z" fill="#B3FFD6"/>
<path d="M212.39 72.5928C214.423 74.6376 214.624 128.087 214.669 133.566L205.391 133.632L204.387 133.236C203.231 130.156 203.6 124.65 203.418 121.261C202.493 104.105 206.207 88.6484 212.39 72.5928Z" fill="#B3FFD6"/>
<path d="M175.652 73.5086L181.083 77.6256C180.649 95.9628 180.865 115.173 180.841 133.582C178.811 133.565 176.944 133.81 175.306 132.701C174.824 126.327 174.724 78.2517 175.652 73.5086Z" fill="#B3FFD6"/>
<path d="M208.365 69.59L211.593 67.2259C211.95 71.3273 205.119 90.9011 203.53 96.684C203.168 90.4681 201.533 78.4924 204.395 73.4233C205.948 71.3778 206.21 70.9462 208.365 69.59Z" fill="#B5E8C1"/>
<path d="M175.099 55.5554C176.469 56.7416 180.198 60.8897 181.633 62.4004L181.415 75.3187C179.206 73.7077 177.198 71.9029 175.137 70.1099L175.099 55.5554Z" fill="#B3FFD6"/>
<path d="M378.995 271.42L514.58 271.462C513.27 304.034 514.506 344.076 514.395 377.369L188.488 378.442C144.404 379.714 94.1266 379.021 49.7275 378.845C50.3661 367.774 49.8389 351.208 49.856 339.77L50.084 272.457C91.2515 271.086 135.759 271.677 177.114 271.647L378.995 271.42Z" fill="#137B46"/>
<path d="M512.777 281.054L512.675 300.65C508.9 300.696 499.963 301.127 496.783 300.18C495.698 298.533 496.021 297.619 496.205 295.627C493.742 293.469 486.408 293.615 483.89 296.072C483.005 296.936 482.735 298.821 482.482 300.067C478.097 301.403 463.323 301.716 458.815 300.667C455.408 297.084 461.37 296.464 453.361 295.295C442.375 293.691 427.651 301.486 418.498 301.929C417.643 300.506 417.756 299.484 417.669 297.824C411.306 292.358 403.059 303.063 393.199 299.975C389.813 296.385 393.604 293.525 386.334 296.077C385.732 295.723 383.266 293.411 384.335 293.514C378.696 292.968 372.043 291.625 368.33 296.609C362.854 297.316 343.912 298.762 339.265 295.03C334.932 291.551 330.079 291.726 325.009 292.683C324.33 294.416 324.418 294.456 324.423 296.241C322.014 297.79 304.158 297.51 302.105 296.061L301.234 293.153C297.089 292.191 278.107 291.874 274.655 294.068C263.332 301.268 261.102 289.902 246.521 292.835C245.47 294.827 244.614 297.498 242.232 297.801C235.891 298.61 233.068 299.668 231.144 293.058C226.4 291.112 223.381 293.032 221.664 297.372C218.303 297.948 194.389 297.694 191.761 296.73C191.489 295.412 191.26 294.425 190.899 293.11C181.917 290.374 158.889 296.591 148.789 298.902C149.023 315.988 149.718 333.065 150.872 350.113L150.206 350.586C146.968 342.268 133.488 302.544 131.939 294.781C128.943 296.231 124.777 298.569 121.649 298.877C116.79 296.011 119.706 289.64 105.088 292.547C103.72 294.729 107.167 302.333 95.3164 298.171C94.562 297.906 94.4654 296.467 94.256 295.608C91.839 290.413 90.9175 290.811 86.013 288.006C84.9044 285.533 85.3224 285.944 85.5801 282.846C139.916 281.826 195.695 282.311 250.172 282.136L512.777 281.054Z" fill="#B3FFD6"/>
<path d="M53.0703 277.893C53.2456 276.949 53.2968 276.278 53.1483 275.327C56.2439 273.199 139.564 273.912 149.927 273.906L416.801 273.363L482.217 273.274C487.165 273.277 509.258 272.557 511.802 274.792C511.339 277.891 511.903 277.278 510.101 279.168C506.535 279.889 489.888 279.631 485.395 279.637L430.805 279.744L185.335 280.87C174.701 280.913 63.1934 280.125 59.9626 282.512C57.383 282.615 55.1509 279.772 53.0703 277.893Z" fill="#B3FFD6"/>
<path d="M174.957 295.019L176.502 294.996C178.55 297.209 177.961 366.571 177.881 376.241C171.917 376.063 164.822 376.093 159.032 375.043L158.349 374.027C150.258 350.707 151.002 325.094 150.489 300.132C158.673 298.563 166.83 296.859 174.957 295.019Z" fill="#B3FFD6"/>
<path d="M78.1406 297.143L92.6077 297.053C94.8494 321.608 94.1343 348.649 96.6583 374.548C98.6357 363.128 95.0217 330.673 95.2942 317.108C95.3863 312.539 94.3237 305.521 95.3165 301.041C97.7943 300.067 100.923 300.372 103.684 300.394C104.733 301.788 105.096 375.042 104.065 376.286C99.4384 377.215 87.2049 377.059 81.9083 377.115C80.9178 350.165 78.7258 324.579 78.1406 297.143Z" fill="#B3FFD6"/>
<path d="M285.62 294.181L300.216 294.152L300.498 376.383L285.711 376.431C285.454 350.407 284.961 320.001 285.62 294.181Z" fill="#B3FFD6"/>
<path d="M496.472 302.336L512.463 302.38L512.494 375.351L497.372 375.41L496.472 302.336Z" fill="#B3FFD6"/>
<path d="M261.077 297.942C265.618 297.905 270.308 298.028 274.861 298.086L275.605 346.956C275.727 355.61 275.478 368.086 276.254 376.458L261.941 376.528C261.483 350.335 261.195 324.139 261.077 297.942Z" fill="#B3FFD6"/>
<path d="M231.718 299.724L245.658 299.651C245.665 325.206 246.586 350.759 246.463 376.627L232.245 376.593C231.19 352.836 232.025 323.985 231.718 299.724Z" fill="#B3FFD6"/>
<path d="M458.039 302.29L472.037 302.294L472.486 375.464C470.745 375.79 460.412 375.621 458.022 375.617C457.273 352.21 457.925 325.923 458.039 302.29Z" fill="#B3FFD6"/>
<path d="M356.784 298.538L369.486 298.468C369.447 322.937 369.83 351.539 368.621 375.798C364.84 375.896 360.933 376.173 357.246 375.393C355.438 371.776 356.703 307.759 356.784 298.538Z" fill="#B3FFD6"/>
<path d="M64.3008 299.233L76.0813 298.936C76.7421 325.04 79.4265 350.965 80.2329 377.096L67.0972 376.994C65.9633 351.081 65.0314 325.16 64.3008 299.233Z" fill="#B3FFD6"/>
<path d="M326.367 294.11L337.577 294.059C337.973 315.845 337.301 337.808 337.678 359.609C337.77 364.878 337.304 370.823 338.539 375.906L325.671 376.1C325.46 348.768 325.693 321.434 326.367 294.11Z" fill="#B3FFD6"/>
<path d="M247.216 294.299L258.814 294.285L259.536 344.009C259.637 353.907 259.399 366.963 260.317 376.6L248.359 376.67C247.472 351.646 247.082 319.255 247.216 294.299Z" fill="#B3FFD6"/>
<path d="M128.467 297.709L129.046 297.888C133.215 301.687 153.193 364.137 157.152 374.503L147.107 376.161L145.672 375.738C142.354 368.886 136.214 349.698 133.295 341.467C129.023 329.425 122.421 313.43 119.021 301.689L128.467 297.709Z" fill="#B3FFD6"/>
<path d="M52.408 294.967L62.1487 294.902L64.4053 352.971C64.5872 357.987 64.5486 373.179 65.3209 376.895C60.8945 376.864 56.2752 377.027 51.834 377.118L52.408 294.967Z" fill="#B3FFD6"/>
<path d="M371.2 294.743L383.336 294.819C382.746 311.981 382.885 329.335 382.769 346.518C382.728 352.566 381.28 371.112 383.395 375.497L370.979 375.766C371.255 348.758 371.328 321.751 371.2 294.743Z" fill="#B3FFD6"/>
<path d="M106.291 294.033L117.508 294.023C116.867 304.046 118.471 374.415 116.909 376.589C113.545 376.603 109.86 376.818 106.47 376.952C105.535 367.633 106.003 354.156 106.068 344.434L106.291 294.033Z" fill="#B3FFD6"/>
<path d="M179.135 294.311C182.59 294.195 186.406 294.399 189.891 294.513C189.121 320.499 191.731 349.846 191.795 376.508L180.301 376.498C179.512 357.746 180.178 338.561 179.389 319.763C179.043 311.535 178.887 302.535 179.135 294.311Z" fill="#B3FFD6"/>
<path d="M442.714 298.117C443.996 297.738 444.408 297.931 445.734 298.14C445.861 298.498 446.097 299.109 446.184 299.513C446.9 302.845 447.116 374.537 446.855 374.997C443.703 376.515 440.87 376.075 437.601 375.059C438.898 374.14 440.891 374.235 442.697 374.048C442.064 360.58 435.012 340.949 433.193 326.845C432.074 318.172 428.357 309.941 427.693 300.445C432.277 299.418 437.985 298.775 442.714 298.117Z" fill="#B3FFD6"/>
<path d="M301.811 298.454L313.114 298.54C313.152 316.673 312.438 334.73 312.411 352.861C312.4 360.376 312.477 367.98 311.799 375.463C310.558 376.099 304.069 376.355 302.212 376.485C301.563 350.756 301.952 324.275 301.811 298.454Z" fill="#B3FFD6"/>
<path d="M425.45 302.193C429.755 316.924 432.638 331.577 435.772 346.576C437.43 354.512 440.292 365.334 441.123 373.091C437.282 373.677 433.25 374.213 429.49 375.12C428.124 369.543 422.999 349.447 422.936 344.738C422.634 341.98 422.486 341.253 421.622 338.618C418.586 324.431 418.743 319.043 418.424 304.591L425.45 302.193Z" fill="#B3FFD6"/>
<path d="M119.437 308.745C121.939 311.225 141.075 368.009 143.799 375.859C135.872 375.362 127.933 375.096 119.99 375.061C119.169 352.593 119.937 331.035 119.437 308.745Z" fill="#B3FFD6"/>
<path d="M405.05 298.411L416.316 298.268C415.558 322.199 417.2 351.063 417.714 375.726L407.588 375.768C406.928 352.847 405.743 329.965 405.558 307.023C405.535 304.137 405.335 301.283 405.05 298.411Z" fill="#B3FFD6"/>
<path d="M484.619 296.055L494.499 296.176C493.949 311.928 495.213 329.757 494.993 345.753C494.936 349.849 494.933 372.398 495.568 375.106L485.432 375.214C483.606 354.125 484.636 318.409 484.619 296.055Z" fill="#B3FFD6"/>
<path d="M394.8 301.817L404.053 302.232C403.752 326.148 406.102 351.214 405.763 375.766L394.369 375.731C393.724 352.452 394.582 325.373 394.8 301.817Z" fill="#B3FFD6"/>
<path d="M314.673 298.476L324.819 298.491C323.841 305.958 322.993 371.175 324.673 375.844L313.94 375.912C313.024 352.615 314.631 322.598 314.673 298.476Z" fill="#B3FFD6"/>
<path d="M191.361 298.625L201.727 298.609C201.549 324.567 201.788 350.527 202.444 376.478L193.675 376.538C193.356 350.557 191.626 324.748 191.361 298.625Z" fill="#B3FFD6"/>
<path d="M212.995 299.262L222.459 299.203C222.31 323.977 224.252 352.639 223.067 376.555L214.241 376.59C213.35 368.808 213.699 354.535 213.666 346.255C213.632 330.588 213.409 314.924 212.995 299.262Z" fill="#B3FFD6"/>
<path d="M384.438 301.493C387.316 301.418 389.54 301.189 392.307 302.098C395.798 307.149 389.954 364.524 393.735 375.578C390.795 375.679 387.72 375.951 384.875 375.274C383.714 369.877 384.143 352.018 384.202 345.471L384.438 301.493Z" fill="#B3FFD6"/>
<path d="M474.22 302.18C477.035 302.18 480.195 301.8 482.481 303.14C483.302 308.134 482.968 317.55 482.969 323.05L483.023 358.336C483.038 363.15 482.742 371.042 483.709 375.509L474.353 375.695L474.22 302.18Z" fill="#B3FFD6"/>
<path d="M447.862 297.104C449.982 297.085 453.662 296.672 455.458 297.758C457.137 298.773 455.704 365.382 456.674 374.928L456.736 375.489C453.985 375.679 452.009 375.99 449.317 375.242C448.366 371.169 448.446 353.407 448.398 348.342L447.862 297.104Z" fill="#B3FFD6"/>
<path d="M203.106 298.545C205.884 298.52 208.47 298.116 210.676 299.551C211.597 303.852 210.845 315.232 211.091 320.445C211.878 337.078 210.643 359.612 212.339 375.802L212.411 376.449C209.455 376.546 207.299 376.759 204.395 376.011C203.555 372.223 203.565 353.535 203.532 348.594L203.106 298.545Z" fill="#B3FFD6"/>
<path d="M276.921 294.767C279.424 294.679 281.308 294.278 283.346 295.55C284.192 300.828 283.756 308.946 283.803 314.629C284.01 326.858 284.102 339.089 284.081 351.32C284.086 358.534 283.776 369.725 284.582 376.498C282.164 376.538 279.889 376.935 278.055 375.608C277.083 368.716 277.413 350.507 277.331 342.651C277.169 327.084 276.479 310.195 276.921 294.767Z" fill="#B3FFD6"/>
<path d="M339.614 298.599C342.218 298.494 343.454 298.328 346.028 299.035C346.943 302.172 346.259 310.087 346.577 312.928C347.588 321.963 345.942 370.013 347.712 375.029C345.803 376 342.31 376.107 340.298 375.252C339.663 371.502 339.866 355.214 339.845 350.619L339.614 298.599Z" fill="#B3FFD6"/>
<path d="M223.121 294.274C224.905 294.233 227.764 293.817 229.357 294.604C232.403 296.107 228.041 367.765 231.64 376.466C228.972 376.571 227.758 376.725 225.104 376.049C224.441 371.377 224.882 358.445 224.683 353.149C223.967 334.058 224.666 313.174 223.121 294.274Z" fill="#B3FFD6"/>
<path d="M51.8331 293.026C51.7819 289.28 51.1054 280.369 53.0702 277.893C55.1508 279.772 57.3829 282.615 59.9625 282.512L65.6608 282.85C72.2294 282.824 79.0341 282.711 85.5796 282.846C85.322 285.944 84.9039 285.533 86.0125 288.006C90.9171 290.811 91.8386 290.414 94.2556 295.608C85.8707 295.31 78.792 296.011 70.4978 297.071C67.0568 297.511 64.6688 297.851 63.0433 294.636C60.2796 292.804 55.3045 293.119 51.8331 293.026Z" fill="#B3FFD6"/>
<path d="M51.8331 293.026C51.7819 289.28 51.1054 280.369 53.0702 277.893C55.1508 279.772 57.3829 282.615 59.9625 282.512L65.6608 282.85C65.5041 286.847 65.3787 288.331 64.5663 292.232C61.112 292.417 55.0662 292.557 51.8331 293.026Z" fill="#B3FFD6"/>
<path d="M348.056 298.563C350.689 298.753 351.846 298.665 354.279 299.76C355.085 303.808 354.658 315.675 354.629 320.518L354.371 360.052C354.331 364.699 353.633 371.384 354.764 375.516C352.566 375.659 351.134 375.945 349.058 375.189C348.275 367.815 348.668 356.813 348.584 349.113C348.281 332.264 348.105 315.414 348.056 298.563Z" fill="#B3FFD6"/>
<path d="M419.762 373.026C419.447 365.313 418.099 341.014 418.887 334.617C420.2 335.506 418.949 336.894 421.622 338.618C422.486 341.253 422.634 341.98 422.936 344.738L421.934 344.967C422.086 349.073 426.215 368.495 427.118 374.283C424.758 373.955 422.137 373.438 419.762 373.026Z" fill="#BCEFC7"/>
<path d="M51.0388 150.277C76.2378 151.595 107.79 150.654 133.644 150.914L321.441 152.127L444.592 152.612C464.669 152.715 495.273 153.64 514.595 152.331C513.563 185.55 514.32 223.67 514.231 257.184L50.0742 257.138L51.0388 150.277Z" fill="#137B46"/>
<path d="M52.595 183.989C52.6217 174.916 52.3329 163.562 53.5878 154.771C54.6429 154.959 56.01 156.326 56.9842 157.112C72.9683 156.11 93.4433 157.099 109.836 157.306L197.793 158.034L512.763 160.443L512.668 186.962C508.373 187.014 482.949 188.328 479.886 188.915L479.163 191.112C476.534 192.76 462.84 191.764 459.184 191.614L459.221 182.286L434.273 182.203L434.098 192.783C431.537 192.912 429.44 193.191 426.955 192.578C420.721 186.379 414.698 190.687 407.219 188.098C407.077 186.205 407.183 186.118 406.232 184.401L403.796 183.963C401.213 184.46 398.623 184.927 396.03 185.366C395.259 185.39 393.06 185.117 392.174 185.032C392.209 184.677 391.912 184.369 391.754 184.05C389.212 186.58 390.689 186.022 389.777 188.607C389.239 190.132 385.317 188.697 383.626 190.392C383.867 190.799 384.469 191.907 384.756 192.199L384.244 193.501L382.813 194.861C378.848 195.776 374.818 196.101 372.858 191.931L371.664 192.075L370.819 189.064L370.918 188.424C366.944 187.621 361.116 187.341 356.945 187.017L356.714 177.838L342.036 177.837L342.042 187.651C337.184 187.805 324.98 188.611 320.759 187.33C319.163 183.865 321.773 183.679 319.365 181.359C310.707 181.097 302.08 180.695 293.433 181.249C290.817 184.524 294 184.711 291.106 186.803C285.83 186.967 271.874 188.004 267.928 185.892C267.799 184.985 267.694 181.192 267.08 181.049C247.043 176.373 225.764 194.096 208.134 201C206.446 206.132 202.208 216.932 202.887 221.513C202.461 224.054 201.066 228.852 199.717 231.004L198.665 230.787C195.753 236.662 192.49 248.804 190.709 255.32L180.166 255.36C180.397 234.794 178.858 210.434 178.561 189.318C168.187 189.237 159.494 184.468 152.401 188.031C148.055 194.022 143.467 192.041 136.657 191.406L137.017 180.476C133.179 180.461 122.608 179.943 118.617 181.01C118.325 181.088 118.036 183.846 116.787 184.447C110.902 187.28 92.2648 183.899 85.7512 183.093C84.607 181.754 84.8854 180.175 84.7295 178.077C81.9694 177.186 66.344 176.48 64.6287 178.249C64.7854 180.605 64.974 181.194 64.2567 183.373C62.2051 184.526 55.3744 184.029 52.595 183.989Z" fill="#B3FFD6"/>
<path d="M391.755 184.05C395.22 183.251 400.286 183.433 403.797 183.963C401.213 184.46 398.624 184.927 396.03 185.366C395.26 185.39 393.061 185.117 392.175 185.032C392.209 184.677 391.912 184.369 391.755 184.05Z" fill="#137B46"/>
<path d="M119.257 181.946L135.787 181.894C136.463 186.434 136.011 189.1 135.946 193.493C135.646 214.008 134.955 234.801 135.159 255.287C117.969 255.089 100.777 255.073 83.5865 255.239C83.5078 237.68 84.1724 220.204 84.4635 202.648C84.5592 196.871 84.6157 191.196 85.1837 185.441L98.3461 185.618C98.0662 193.666 96.2774 250.293 98.7033 253.242C99.4778 251.829 99.1785 228.123 99.1889 224.634C99.2446 217.05 99.2468 194.736 100.276 188.254C101.823 186.879 103.314 187.427 105.942 187.442C107.113 188.649 107.372 189.134 107.456 190.99C108.32 209.952 105.541 233.31 108.203 251.812C109.16 250.064 109.089 192.914 109.138 187.275L117.729 187.298C117.344 199.759 115.14 243.382 117.715 252.544L118.2 252.066C119.677 233.856 119.158 200.735 119.257 181.946Z" fill="#B3FFD6"/>
<path d="M236.295 190.421C239.437 191.856 242.454 193.302 245.721 194.432C239.788 212.485 233.476 236.607 228.805 255.308C216.563 255.2 204.322 255.21 192.08 255.34C194.389 247.018 197.002 239.185 199.716 231.004C201.066 228.852 202.461 224.054 202.887 221.513L209.489 201.865C215.914 198.913 227.301 193.94 233.941 192.338C231.522 200.337 216.801 248.013 217.072 253.404C219.332 251.654 233.277 198.984 236.295 190.421Z" fill="#B3FFD6"/>
<path d="M435.923 183.771L458.066 184.087C458.945 192.514 458.604 203.458 458.627 212.095C458.667 226.44 458.844 240.784 459.158 255.126L436.116 255.264C435.782 231.434 435.718 207.602 435.923 183.771Z" fill="#B3FFD6"/>
<path d="M54.9893 153.206C61.015 152.522 82.6038 153.032 89.9617 153.044L167.959 153.448L418.24 154.361C428.092 154.381 508.748 153.847 511.802 155.203L512.847 158.844C490.189 159.207 468.154 158.416 445.588 158.316L261.445 156.974L144.185 155.973C116.309 155.868 88.3162 155.705 60.4262 155.088C56.9986 155.011 57.3817 155.008 54.9893 153.206Z" fill="#B3FFD6"/>
<path d="M66.0058 179.081L83.0435 178.937C82.4435 204.328 82.0233 229.723 81.7819 255.12L65.8343 255.193C66.0043 232.969 63.868 199.856 66.0058 179.081Z" fill="#B3FFD6"/>
<path d="M302.037 182.247C307.702 182.471 313.369 182.612 319.037 182.668C318.747 206.871 318.724 231.076 318.968 255.28L302.021 255.407L302.037 182.247Z" fill="#B3FFD6"/>
<path d="M396.029 185.366C399.168 185.322 402.151 185.071 405.14 185.99C406.637 189.809 405.786 247.447 405.763 255.222L391.263 255.373C391.144 238.173 390.292 201.376 392.174 185.032C393.06 185.117 395.258 185.39 396.029 185.366Z" fill="#B3FFD6"/>
<path d="M480.97 189.681C485.92 189.986 491.726 189.788 496.747 189.739C496.653 211.535 496.795 233.332 497.173 255.124L481.827 255.216C481.667 233.369 481.381 211.524 480.97 189.681Z" fill="#B3FFD6"/>
<path d="M250.439 182.654C250.843 182.751 251.521 183.157 251.928 183.369C251.469 204.518 252.053 234.155 253.183 255.121C246.776 255.101 236.659 256.688 231.543 254.381C230.513 252.19 230.951 252.615 231.727 249.569C236.618 231.525 242.038 210.796 247.852 193.199C242.795 191.725 240.453 190.969 235.712 188.737C240.604 186.868 245.596 184.688 250.439 182.654Z" fill="#B3FFD6"/>
<path d="M343.562 179.087L355.345 178.848C354.018 199.834 356.465 232.733 356.521 255.132C354.536 255.515 346.562 255.41 344.116 255.425C343.186 230.348 343.542 204.236 343.562 179.087Z" fill="#B3FFD6"/>
<path d="M327.961 189.329L341.99 189.283C341.93 209.499 341.622 235.455 342.706 255.334L328.817 255.329C328.152 233.336 327.867 211.333 327.961 189.329Z" fill="#B3FFD6"/>
<path d="M253.791 181.907L266.297 181.87C265.355 204.566 266.672 232.065 266.977 255.178L254.054 255.204C254.23 230.83 253.117 206.273 253.791 181.907Z" fill="#B3FFD6"/>
<path d="M267.938 188.385L281.828 188.589L282.025 255.26L268.633 255.365C268.645 233.655 268.764 210.012 267.938 188.385Z" fill="#B3FFD6"/>
<path d="M138.23 193.371L150.105 193.146C150.224 194.064 150.514 196.761 150.473 197.589C150.09 205.341 152.922 252.635 150.385 255.335L136.499 255.298C138.014 238.505 137.81 211.119 138.23 193.371Z" fill="#B3FFD6"/>
<path d="M500.271 188.715L512.379 188.663C512.114 198.693 513.276 249.227 511.422 254.801C508.977 255.681 510.176 255.669 507.703 254.812C507.386 254.333 506.998 253.745 506.539 253.049C506.173 239.434 506.424 221.664 505.834 208.475C505.809 207.244 506.033 207.755 505.23 206.914C503.79 221.101 505.484 239.321 504.99 253.893C503.017 255.039 502.625 254.848 500.225 254.721C496.812 250.614 499.55 197.779 500.229 189.295L500.271 188.715Z" fill="#B3FFD6"/>
<path d="M52.5644 185.702L63.4628 185.748C62.565 207.924 64.5417 232.505 64.2825 254.997L51.8523 255.184C51.7253 232.331 52.5392 208.77 52.5644 185.702Z" fill="#B3FFD6"/>
<path d="M152.445 188.387L163.635 188.245C163.862 210.563 164.287 232.881 164.911 255.193L153.38 255.302C152.579 243.857 152.758 232.326 152.606 220.847C152.463 210.109 151.831 199.083 152.445 188.387Z" fill="#B3FFD6"/>
<path d="M475.525 193.419C477.273 193.207 477.152 193.187 478.826 193.725C479.6 195.909 479.833 252.427 479.36 254.308C476.885 255.585 474.662 255.177 471.801 255.067C469.467 255.103 470.218 255.387 468.308 254.344C467.244 251.464 467.231 198.629 468.144 194.441C470.395 193.017 472.743 193.395 475.525 193.419Z" fill="#B3FFD6"/>
<path d="M166.012 190.623C167.139 190.568 168.268 190.524 169.396 190.49C171.841 190.421 174.05 190.216 175.776 191.861C176.837 198.587 176.911 208.691 177.164 215.739C177.695 228.923 178.08 242.114 178.32 255.307L166.805 255.302C166.31 233.746 166.046 212.185 166.012 190.623Z" fill="#B3FFD6"/>
<path d="M283.63 188.591C286.645 188.5 289.013 188.221 291.914 189.032C292.581 193.525 292.342 207.965 292.352 213.172C292.28 227.213 292.493 241.255 292.991 255.288L283.917 255.172C284.218 232.962 283.6 210.786 283.63 188.591Z" fill="#B3FFD6"/>
<path d="M373.417 196.205L383.142 196.136C382.87 215.026 383.618 235.973 383.566 255.338L374.099 255.306C374.046 236.081 374.27 215.318 373.417 196.205Z" fill="#B3FFD6"/>
<path d="M425.177 194.445L434.085 194.492L434.213 255.253L424.773 255.172C424.032 236.103 424.986 213.783 425.177 194.445Z" fill="#B3FFD6"/>
<path d="M408.061 190.458C411.218 190.31 412.861 189.838 415.217 191.399C415.549 199.818 416.431 249.547 415.338 255.201L414.778 255.213C412.129 255.253 409.854 255.757 407.849 254.288C407.33 249.16 407.06 193.436 408.061 190.458Z" fill="#B3FFD6"/>
<path d="M294.503 182.388C296.783 182.404 298.064 182.215 300.102 183.172C300.812 189.501 300.47 202.275 300.477 209.007L300.406 255.245C298.223 255.299 297.125 255.201 294.952 254.946C292.948 250.826 293.812 191.52 294.503 182.388Z" fill="#B3FFD6"/>
<path d="M371.664 192.075C371.893 210.616 372.261 229.214 372.688 247.757C372.76 250.894 372.235 253.535 369.917 255.726C367.528 256.308 368.361 256.469 366.427 255.569C364.106 251.877 365.052 198.2 365.29 189.836C366.706 189.067 369.043 189.172 370.819 189.065L371.664 192.075Z" fill="#B3FFD6"/>
<path d="M320.452 189.088C323.07 189 323.604 188.836 325.999 189.694C326.771 193.901 326.463 210.292 326.486 215.364L327.063 255.345C324.682 255.323 322.583 255.623 320.869 254.46C320.101 248.645 320.484 237.583 320.483 231.189L320.452 189.088Z" fill="#B3FFD6"/>
<path d="M357.007 188.73C359.223 188.862 361.888 188.678 363.477 190.026C364.239 195.611 363.827 206.18 363.838 212.328L363.94 255.759C362.234 255.574 360.862 255.332 359.174 255.023C357.825 252.836 357.212 196.05 357.007 188.73Z" fill="#B3FFD6"/>
<path d="M416.873 190.846C419.298 190.808 420.901 190.562 423.119 191.516C423.887 193.716 423.1 249.383 423.099 255.15C421.046 255.358 420.243 255.268 418.167 255.108C416.261 253.172 416.888 245.964 416.927 242.973C417.152 225.585 417.361 208.236 416.873 190.846Z" fill="#B3FFD6"/>
<path d="M459.919 193.031C462.25 192.995 463.698 192.696 465.604 193.952C466.315 199.562 466.014 210.548 466.011 216.602C465.96 229.456 466.006 242.309 466.149 255.161C463.837 255.237 462.121 255.626 460.341 254.341C459.692 249.503 460.023 237.812 460.028 232.519L459.919 193.031Z" fill="#B3FFD6"/>
<path d="M384.756 192.199C386.588 190.432 385.742 190.76 388.017 190.43C390.112 192.033 390.172 194.573 389.953 197.018C389.298 204.282 390.59 252.049 388.583 255.111L387.271 255.41C383.509 251.518 385.176 203.418 384.243 193.501L384.756 192.199Z" fill="#B3FFD6"/>
<path d="M473.648 638.357C486.986 637.855 501.299 637.959 514.699 637.875C515.285 670.8 514.907 706.875 514.736 739.926C471.543 740.424 428.349 740.632 385.155 740.543L92.7315 741.115L49.7588 741.219C50.3848 728.347 49.8308 715.32 49.8115 702.426C49.9444 682.298 49.9667 662.165 49.8791 642.034C161.356 639.1 274.658 641.629 386.414 639.128C405.843 638.864 425.273 638.743 444.704 638.764C453.533 638.735 465.22 639.058 473.648 638.357Z" fill="#137B46"/>
<path d="M51.7572 643.823C100.56 641.962 155.433 642.634 204.631 642.367L424.929 640.271C454.391 639.925 483.697 640.14 513.191 639.526C513.347 664.532 512.79 689.272 513.042 714.354L273.664 715.26C272.287 698.244 272.095 677.396 271.473 660.052C263.149 661.517 228.854 660.607 218.02 660.648L114.625 661.733L96.2945 661.802C90.4254 662.284 81.7517 662.636 75.8596 662.137C73.9386 664.16 70.4434 667.302 69.8531 669.783C68.8098 671.046 68.9242 671.127 67.3797 671.551C64.3776 672.546 65.0303 671.833 63.6023 674.016C63.0714 681.407 65.8292 713.693 64.1184 716.122L60.5022 717.251L59.9497 717.139L59.2324 716.441L58.1907 716.664C56.0766 721.9 54.365 725.911 51.8515 731.006C51.1632 702.307 51.6748 672.628 51.7572 643.823Z" fill="#B3FFD6"/>
<path d="M96.2939 661.801C95.8699 659.005 95.6984 660.119 96.9184 657.592C100.882 654.566 110.093 653.572 113.885 657.347C114.921 659.404 114.893 659.481 114.624 661.733L96.2939 661.801Z" fill="#B3FFD6"/>
<path d="M257.945 673.972C261.819 673.912 266.043 674.113 269.943 674.217C271.653 691.983 272.083 714.376 272.136 732.224L79.7388 734.044L67.4155 734.452C67.0999 714.54 65.499 695.615 65.4492 675.101C86.9615 673.964 112.221 674.499 134.004 674.44L257.945 673.972Z" fill="#B3FFD6"/>
<path d="M273.748 716.812L415.805 716.641C447.668 716.545 481.235 716.931 512.981 716.047L512.914 738.181L51.3555 739.035C52.4292 733.776 57.053 721.558 59.9497 717.139L60.5022 717.251L63.6149 717.525C66.2072 720.801 65.3889 731.496 65.3555 736.175C108.069 735.336 150.787 734.801 193.508 734.578C219.527 734.333 248.15 733.264 274.033 734.006L273.748 716.812Z" fill="#B3FFD6"/>
<path d="M76.056 663.96L186.856 662.922C213.325 662.568 242.7 661.807 269.048 662.498L267.31 672.078C213.095 672.167 125.86 673.006 68.7694 672.59C68.3068 672.241 67.8442 671.892 67.3809 671.551C68.9254 671.127 68.811 671.045 69.8543 669.783L76.056 663.96Z" fill="#B3FFD6"/>
<path d="M479.415 474.183C489.118 474.098 523.699 472.491 531.347 474.951C535.805 476.384 539.594 479.805 542.846 483.048C543.152 483.354 543.458 483.665 543.755 483.981C546.192 485.805 548.496 487.963 550.772 490.009C549.302 505.373 547.709 520.728 545.994 536.068C544.99 545.433 543.76 555.387 543.425 564.751C555.39 564.907 567.351 565.312 579.302 565.972C584.165 566.236 591.767 566.514 596.361 567.381C596.583 571.75 596.324 595.607 595.178 599.118C594.519 609.368 592.964 620.882 592.558 630.793C591.05 650.965 589.368 671.126 587.521 691.269C586.804 698.885 586.13 707.534 584.877 715.126C584.688 716.257 583.793 717.2 582.982 717.978L582.412 718.317C579.194 720.207 573.958 721.229 572.987 723.19L573.185 725.094C574.278 726.55 576.097 731.226 577.205 733.379C582.671 743.993 587.28 754.22 592.997 764.791C590.843 768.071 581.201 767.619 577.827 766.026C575.81 763.344 572.761 755.629 571.036 752.099C568.543 746.99 565.169 741.033 563.147 735.868C561.465 733.214 558.284 726.63 556.71 723.572C554.264 723.628 551.903 723.812 549.467 723.972C523.755 725.645 498.128 727.389 472.487 730.014C470.107 730.259 467.346 730.382 464.966 730.311C462.322 729.779 453.317 730.792 450.334 731.079C450.466 735.373 450.942 746.288 450.334 750.374C449.82 747.391 449.829 734.85 449.787 731.339L387.864 726.555C379.895 725.957 369.735 726.051 362.152 724.939C349.617 725 329.033 722.445 315.932 721.517C310.894 721.074 282.298 718.241 279.513 719.269C277.953 716.87 268.547 716.441 266.252 717.351C264.504 717.61 255.884 716.63 253.66 716.394C247.586 715.753 242.755 715.418 236.643 715.433C234.447 713.948 228.349 714.881 225.828 714.033C224.725 713.661 222.402 712.19 220.969 711.535L220.432 711.973C214.668 710.022 204.169 695.106 203.302 688.527C202.887 685.402 202.887 675.241 202.006 673.473L202.562 672.295L201.205 671.829C203.236 671.584 205.262 671.305 207.284 670.99C212.963 670.075 225.079 667.917 228.354 663.374C228.768 661.847 228.561 661.587 228.047 660.108C228.439 659.952 228.255 660.084 228.533 659.617L227.383 658.453C227.878 657.379 227.774 657.798 227.755 656.615C224.673 653.033 206.172 651.412 200.719 650.809C201.054 648.957 201.629 645.629 200.715 643.961C200.691 635.94 200.498 627.918 200.14 619.906C199.532 604.142 197.6 591.676 207.491 577.938C217.444 564.105 232.788 565.675 247.944 565.161L301.7 563.342C307.953 563.092 317.298 563.422 323.048 562.428C323.731 557.177 324.264 551.904 324.645 546.62C325.974 529.173 329.362 504.473 331.841 486.715C332.11 482.082 331.248 479.08 335.776 477.19C339.32 476.148 374.711 476.011 380.465 475.889L448.599 474.287C458.194 474.155 469.933 473.763 479.415 474.183Z" fill="#2A7041"/>
<path d="M335.777 477.19C339.321 476.148 374.712 476.012 380.466 475.889L448.6 474.287C458.195 474.155 469.934 473.763 479.416 474.183L477.036 475.036C482.653 475.262 519.911 473.957 522.093 475.064L522.13 475.564C515.91 475.677 485.372 474.777 481.456 475.908C490.834 475.946 500.212 475.913 509.586 475.823C514.204 475.785 529.312 474.979 532.493 477.35C533.898 482.944 527.215 553.548 525.872 565.35C514.185 565.698 502.498 566.123 490.815 566.622C474.901 567.169 456.216 565.783 444.402 578.216C435.603 587.477 437.314 605.758 437.149 617.687L343.322 618.445C335.344 618.582 326.55 618.285 318.723 618.577C321.885 601.243 321.875 580.12 324.66 562.437L323.129 562.71L323.049 562.428C323.732 557.177 324.265 551.904 324.646 546.62C325.975 529.173 329.364 504.473 331.842 486.715C332.111 482.082 331.249 479.08 335.777 477.19Z" fill="#3B8652"/>
<path d="M324.644 546.62L325.299 546.267C325.893 547.766 325.365 560.434 324.659 562.437L323.127 562.71L323.047 562.428C323.73 557.177 324.263 551.904 324.644 546.62Z" fill="#195632"/>
<path d="M331.84 486.714C332.108 482.082 331.246 479.08 335.775 477.19C335.582 477.944 332.415 488.246 332.41 488.251L331.84 486.714Z" fill="#05250D"/>
<path d="M479.415 474.183C489.118 474.098 523.699 472.491 531.347 474.951C535.805 476.384 539.594 479.805 542.846 483.048C543.152 483.354 543.459 483.665 543.756 483.981C540.82 483.868 537.606 480.531 535.282 478.552C534.778 493.261 531.475 511.358 530.405 526.407C529.477 539.452 528.949 552.285 527.568 565.269C532.987 565.185 539.59 564.916 544.872 565.373L545.113 565.736C542.346 566.716 532.742 566.566 529.227 566.66C517.238 566.957 505.254 567.32 493.27 567.748C476.795 568.342 450.051 566.542 441.837 584.456C437.228 595.635 439.085 609.863 438.402 621.74C437.464 639.696 437.148 657.68 436.451 675.618C436.239 681.118 429.274 680.557 425.518 680.364C361.964 677.074 298.236 675.434 234.725 671.998C233.839 671.951 233.137 670.617 233.034 669.863C231.064 656.087 230.677 641.807 229.74 627.9C229.608 625.967 230.371 622.682 231.087 621.047C232.388 619.798 234.702 619.826 236.441 619.77C263.218 618.907 290.461 619.558 317.186 618.441C319.707 607.13 320.31 591.949 321.465 580.271C321.945 575.412 322.19 567.329 323.128 562.71L324.66 562.437C321.875 580.12 321.884 601.243 318.722 618.577C326.55 618.285 335.343 618.582 343.321 618.445L437.148 617.687C437.313 605.758 435.603 587.477 444.401 578.216C456.215 565.783 474.9 567.169 490.815 566.622C502.497 566.123 514.184 565.698 525.871 565.35C527.214 553.548 533.897 482.944 532.493 477.35C529.312 474.979 514.203 475.785 509.585 475.823C500.212 475.912 490.834 475.946 481.456 475.908C485.372 474.777 515.909 475.677 522.13 475.564L522.092 475.064C519.91 473.957 482.653 475.262 477.035 475.036L479.415 474.183Z" fill="#05250D"/>
<path d="M380.725 619.105C384.443 618.535 394.947 618.695 399.273 618.681C411.823 618.629 424.372 618.671 436.917 618.799C436.926 626.057 435.484 674.491 433.953 677.96C428.519 680.038 414.528 678.351 408.114 678.035L378.189 676.843L291.37 673.398C273.18 671.334 252.958 673.403 234.895 670.509C233.264 669.444 233.109 661.936 233.217 660.796C233.802 654.49 229.155 626.726 231.954 622.319C236.931 621.089 250.385 621.136 255.96 621.033L306.931 620.571C331.441 620.345 356.483 619.077 380.725 619.105Z" fill="#3B8652"/>
<path d="M570.631 721.408L571.371 721.847C571.305 723.902 570.994 723.539 571.941 724.901C572.266 724.962 572.893 725.108 573.185 725.094C574.278 726.55 576.098 731.225 577.205 733.379C582.672 743.993 587.28 754.22 592.997 764.791C590.843 768.071 581.201 767.619 577.827 766.026C575.81 763.344 572.761 755.629 571.036 752.099C568.543 746.99 565.169 741.033 563.147 735.868C563.242 730.58 560.24 726.659 556.96 722.931L555.876 722.865L556.244 722.818L556.361 722.492L570.631 721.408Z" fill="black"/>
<path d="M315.932 721.517L315.936 720.358C318.114 719.34 334.928 722.068 338.542 722.563C346.46 723.647 358.227 722.101 365.267 724.722L365.508 724.675L362.152 724.939C349.617 725 329.033 722.445 315.932 721.517Z" fill="#195632"/>
<path d="M595.179 599.118C594.519 609.368 592.964 620.882 592.559 630.793C592.172 631.175 592.427 631.024 591.748 631.123C591.23 629.299 591.258 623.187 591.456 620.392C591.89 614.388 591.89 606.262 593.789 600.39C594.35 599.876 594.816 599.452 595.179 599.118Z" fill="#195632"/>
<path d="M570.631 721.408C572.686 720.268 578.694 718.703 581.079 717.365C581.781 716.964 582.214 717.53 582.982 717.977L582.412 718.317C579.194 720.207 573.958 721.229 572.987 723.19L573.185 725.094C572.893 725.108 572.266 724.962 571.941 724.901C570.994 723.539 571.305 723.902 571.371 721.847L570.631 721.408Z" fill="#195632"/>
<path d="M102.081 599.504C103.847 598.543 108.14 598.844 110.082 599.174C110.78 599.82 110.68 599.532 110.939 600.324C111.308 611.588 110.294 629.035 111.055 639.121C111.272 641.675 111.366 643.853 111.433 646.417C142.837 646.435 169.244 647.444 200.672 649.348C200.677 647.962 200.597 645.234 200.715 643.961C201.629 645.629 201.054 648.957 200.719 650.809C206.172 651.412 224.673 653.033 227.755 656.615C227.774 657.798 227.878 657.379 227.383 658.453L228.533 659.617C228.255 660.084 228.439 659.952 228.047 660.108C228.561 661.587 228.768 661.847 228.354 663.374C225.079 667.917 212.963 670.075 207.284 670.99C205.262 671.305 203.236 671.584 201.205 671.829L202.562 672.295L202.006 673.473C200.196 673.794 196.926 674.251 195.352 674.92C192.317 674.595 187.548 674.967 184.367 675.118C186.398 681.919 189.489 689.059 189.532 696.095C187.699 690.958 183.585 680.241 182.505 675.363C161.761 677.418 139.598 677.517 118.714 677.899C118.669 682.725 119.041 701.468 118.536 704.951C118.569 712.836 120.473 763.024 119.367 765.286C116.771 766.77 108.115 767.534 108.078 762.896C107.906 741.344 106.874 719.849 106.738 698.296C106.023 694.79 106.244 682.169 106.256 677.828C85.1521 676.853 66.2331 676.094 44.9362 674.52C44.7005 676.131 44.6949 677.352 43.791 678.681C43.2741 676.763 44.3528 676.485 44.0441 674.642C40.9437 673.775 36.3749 673.252 33.1506 673.29C32.4206 676.207 34.1105 676.565 30.8678 678.535C31.184 676.706 31.6581 674.656 32.0365 672.818C21.8042 671.456 7.63213 671.046 0.322022 663.506C0.282437 660.668 -0.21146 658.779 0.105695 655.842L1.29422 655.041C15.4837 647.859 82.7044 646.68 101.938 646.049C101.944 642.354 101.981 638.914 102.149 635.223C102.24 623.318 102.218 611.409 102.081 599.504Z" fill="#BCF8D0"/>
<path d="M1.29422 655.041L2.55292 655.456L2.6057 656.281C10.7551 664.354 92.3124 667.116 108.472 666.923C140.068 666.545 175.111 666.923 206.549 662.554C213.467 661.587 220.936 661.097 227.383 658.453L228.533 659.617C228.255 660.084 228.439 659.952 228.047 660.108C228.561 661.588 228.768 661.847 228.354 663.374C225.079 667.917 212.963 670.075 207.284 670.99C205.262 671.306 203.236 671.584 201.205 671.829L202.562 672.295L202.006 673.473C200.196 673.794 196.926 674.251 195.352 674.92C192.317 674.595 187.548 674.967 184.367 675.118C186.398 681.919 189.489 689.059 189.532 696.096C187.699 690.958 183.585 680.241 182.505 675.363C161.761 677.418 139.598 677.517 118.714 677.899C118.669 682.725 119.041 701.468 118.536 704.951C118.569 712.836 120.473 763.024 119.367 765.286C116.771 766.77 108.115 767.534 108.078 762.896C107.906 741.344 106.874 719.849 106.738 698.296C106.023 694.79 106.244 682.169 106.256 677.828C85.1521 676.853 66.2331 676.094 44.9362 674.52C44.7005 676.132 44.6949 677.352 43.791 678.681C43.2741 676.763 44.3528 676.485 44.0441 674.642C40.9437 673.775 36.3749 673.252 33.1506 673.29C32.4206 676.207 34.1105 676.565 30.8678 678.535C31.184 676.707 31.6581 674.656 32.0365 672.818C21.8042 671.456 7.63213 671.046 0.322022 663.506C0.282437 660.668 -0.21146 658.779 0.105695 655.842L1.29422 655.041Z" fill="#BCF8D0"/>
<path d="M106.814 677.762L118.411 678.04C118.311 681.877 117.748 702.505 118.537 704.951C118.569 712.836 120.473 763.024 119.367 765.286C116.772 766.77 108.115 767.534 108.079 762.896C107.907 741.344 106.874 719.849 106.738 698.296C106.97 691.482 106.71 684.61 106.814 677.762Z" fill="black"/>
<path d="M1.29422 655.041L2.55292 655.456L2.6057 656.281C10.7551 664.354 92.3124 667.116 108.472 666.923C140.068 666.545 175.111 666.923 206.549 662.554C213.467 661.587 220.936 661.097 227.383 658.453L228.533 659.617C228.255 660.084 228.439 659.952 228.047 660.108C197.67 667.799 165.936 667.799 134.752 668.473C112.021 669.312 89.2186 668.525 66.4999 667.681C64.9306 667.625 57.6403 666.013 57.1789 666.173C51.1902 668.285 2.98461 660.042 2.59724 660.244C1.88612 662.007 1.91014 661.14 2.50439 662.935C13.4615 673.832 103.583 676.198 122.473 675.75C144.678 675.222 178.886 674.477 201.205 671.829L202.562 672.295L202.006 673.473C200.196 673.794 196.926 674.251 195.352 674.92C192.317 674.595 187.548 674.967 184.367 675.118C186.398 681.919 189.489 689.059 189.532 696.096C187.699 690.958 183.585 680.241 182.505 675.363C161.761 677.418 139.598 677.517 118.714 677.899C118.669 682.725 119.041 701.468 118.536 704.951C117.747 702.505 118.311 681.877 118.41 678.04L106.814 677.762C106.709 684.61 106.969 691.482 106.738 698.296C106.023 694.79 106.244 682.169 106.256 677.828C85.1521 676.853 66.2331 676.094 44.9362 674.52C44.7005 676.132 44.6949 677.352 43.791 678.681C43.2741 676.763 44.3528 676.485 44.0441 674.642C40.9437 673.775 36.3749 673.252 33.1506 673.29C32.4206 676.207 34.1105 676.565 30.8678 678.535C31.184 676.707 31.6581 674.656 32.0365 672.818C21.8042 671.456 7.63213 671.046 0.322022 663.506C0.282437 660.668 -0.21146 658.779 0.105695 655.842L1.29422 655.041Z" fill="#3B8652"/>
<path d="M102.081 599.504C103.847 598.543 108.14 598.844 110.082 599.174C110.78 599.82 110.68 599.532 110.939 600.324C111.308 611.588 110.294 629.035 111.055 639.121C110.767 641.152 110.161 649.042 110.501 651.045C109.117 654.056 108.066 655.286 104.674 653.92C101.037 650.418 102.606 641.477 102.193 635.77L102.149 635.223C102.24 623.318 102.218 611.409 102.081 599.504Z" fill="black"/>
<path d="M102.149 635.223L102.193 635.77C102.605 641.477 101.037 650.418 104.674 653.919C108.066 655.286 109.117 654.056 110.501 651.044C114.944 650.724 126.539 651.874 130.016 653.962C123.192 659.74 107.422 657.902 99.3938 658.505C91.301 657.214 87.8735 656.808 80.6699 653.019C84.8617 650.583 86.6007 649.993 91.2585 649.838C93.5234 650.248 98.6997 650.309 100.998 649.456C102.28 648.179 101.858 648.499 101.938 646.049C101.944 642.354 101.981 638.913 102.149 635.223Z" fill="#3B8652"/>
<path d="M111.055 639.121C111.272 641.675 111.366 643.853 111.433 646.417C142.838 646.435 169.244 647.444 200.672 649.348C200.677 647.962 200.597 645.234 200.715 643.961C201.629 645.63 201.054 648.957 200.719 650.809C184.386 649.772 167.185 649.555 150.766 648.952C145.29 648.754 120.174 647.812 115.998 648.603L115.758 649.094C121.543 650.47 127.258 649.668 132.299 653.09C131.493 653.335 130.64 653.486 130.017 653.962C126.539 651.874 114.944 650.724 110.501 651.045C110.161 649.042 110.767 641.152 111.055 639.121Z" fill="#40975F"/>
<path d="M1.29492 655.041C15.4844 647.859 82.7051 646.681 101.938 646.049C101.858 648.5 102.281 648.179 100.998 649.457C98.7005 650.31 93.5242 650.248 91.2593 649.838C86.7348 647.01 9.41698 651.12 2.6064 656.281L2.55362 655.456L1.29492 655.041Z" fill="#4D9E69"/>
<path d="M132.299 653.09C133.342 658.42 129.07 659.702 124.419 660.461C119.902 661.192 113.748 661.96 109.174 661.799C102.622 662.558 86.5238 662.469 81.3419 657.044C80.3428 655.998 80.5389 654.395 80.6699 653.019C87.8735 656.808 91.3009 657.214 99.3938 658.505C107.422 657.902 123.192 659.74 130.016 653.962C130.639 653.486 131.493 653.335 132.299 653.09Z" fill="#2A7041"/>
<path d="M102.324 529.39C105.879 526.115 107.913 526.006 111.403 529.418C114.951 534.885 124.933 529.531 127.647 533.976C132.151 541.347 134.673 550.791 137.997 558.789C140.255 565.599 150.874 586.817 150.77 592.854C148.503 597.836 130.613 598.745 125.885 599.518C123.043 599.985 112.744 599.471 110.938 600.324C110.679 599.532 110.779 599.82 110.081 599.174C108.14 598.844 103.846 598.543 102.08 599.504C95.9217 600.536 66.8208 596.969 63.0781 591.313C63.2134 589.451 83.3166 537.812 85.1522 534.537C87.7629 529.131 100.314 535.291 102.324 529.39Z" fill="#40975F"/>
<path d="M102.325 529.39C105.88 526.115 107.915 526.006 111.405 529.418C110.978 533.123 110.969 533.929 108.428 536.836C107.483 537.586 107.737 537.383 106.586 537.869C105.078 537.628 105.636 537.991 104.775 536.884C103.032 533.867 102.506 532.859 102.325 529.39Z" fill="black"/>
<path d="M102.325 529.39C102.506 532.859 103.032 533.867 104.775 536.884C98.5473 536.441 92.3494 535.814 86.3248 534.112C85.9342 534.254 85.544 534.395 85.1533 534.537C87.7641 529.131 100.315 535.291 102.325 529.39Z" fill="#40975F"/>
<path d="M85.1533 534.537C85.544 534.395 85.9342 534.254 86.3248 534.112C92.3494 535.814 98.5473 536.441 104.775 536.884C105.636 537.991 105.077 537.628 106.586 537.869C107.737 537.383 107.482 537.586 108.428 536.836C114.058 537.048 120.966 535.894 126.411 534.621C127.249 534.423 127.079 534.494 127.694 534.975L127.083 535.847C121.373 539.07 88.8423 539.565 85.1533 534.537Z" fill="#05250D"/>
<path d="M202.007 673.474C202.889 675.241 202.889 685.402 203.303 688.527C204.17 695.106 214.67 710.022 220.433 711.973L220.971 711.535C222.403 712.19 224.726 713.661 225.829 714.033C228.35 714.881 234.448 713.948 236.644 715.433C235.301 718.067 232.578 727.535 231.447 731.197C229.269 738.253 225.207 747.702 223.548 754.564C223.313 756.374 222.846 759.253 222.714 760.992C224.67 766.563 234.792 793.846 234.071 798.088C231.791 800.77 226.366 799.902 223.124 799.728C221.8 794.058 218.355 784.439 216.348 778.704C215.179 776.149 214.175 773.293 213.181 770.64C210.674 770.027 209.816 769.9 207.526 768.543L205.165 767.92C201.616 764.603 207.328 758.594 207.474 754.875C207.719 748.517 203.572 740.397 201.913 733.964L201.757 733.361C198.68 720.834 193.143 708.67 189.533 696.096C189.491 689.059 186.399 681.919 184.368 675.118C187.549 674.968 192.318 674.595 195.353 674.92C196.927 674.251 200.198 673.794 202.007 673.474Z" fill="black"/>
<path d="M220.431 711.973L220.968 711.535C222.401 712.19 224.724 713.66 225.827 714.033C228.348 714.881 234.446 713.948 236.642 715.433C235.299 718.067 232.575 727.535 231.444 731.197C229.267 738.252 225.204 747.702 223.546 754.564C221.764 753.824 217.123 738.79 215.459 735.491C216.51 729.039 220.973 720.975 221.939 714.334C222.099 713.203 221.35 712.878 220.431 711.973Z" fill="black"/>
<path d="M202.006 673.474C202.887 675.241 202.887 685.402 203.302 688.527C204.169 695.106 214.668 710.022 220.432 711.973C221.351 712.878 222.1 713.203 221.94 714.335C220.974 720.975 216.511 729.039 215.46 735.491C214.39 735.514 214.909 735.609 213.952 734.991C212.307 724.566 206.044 709.07 202.967 698.735C201.101 692.471 197.892 680.392 195.352 674.92C196.926 674.251 200.196 673.794 202.006 673.474Z" fill="#BCF8D0"/>
<path d="M201.756 733.36C205.743 737.852 216.19 772.629 216.346 778.703C215.177 776.149 214.173 773.293 213.179 770.64C210.672 770.027 209.814 769.9 207.524 768.542L205.163 767.92C201.614 764.602 207.326 758.593 207.472 754.875C207.717 748.517 203.57 740.397 201.911 733.964L201.756 733.36Z" fill="#3B8652"/>
<path d="M205.164 767.92C206.38 764.032 207.963 760.446 207.638 756.496L208.119 755.945C210.202 757.901 212.035 765.884 212.37 768.806L212.063 769.556C209.957 769.513 210.569 768.425 207.525 768.542L205.164 767.92Z" fill="black"/>
<path d="M213.953 734.991C214.91 735.609 214.391 735.514 215.461 735.491C217.125 738.79 221.767 753.824 223.548 754.564C223.312 756.374 222.846 759.253 222.714 760.992C220.984 758.999 214.448 738.257 213.953 734.991Z" fill="#2A7041"/>
<path d="M30.8665 678.535C34.1092 676.565 32.4192 676.207 33.1492 673.29C36.3735 673.252 40.9423 673.775 44.0427 674.642C44.3514 676.485 43.2727 676.763 43.7897 678.681C42.128 686.646 39.3349 694.531 37.2581 702.42C34.6992 712.143 13.3499 796.221 12.1374 797.621C10.8075 799.158 7.44603 799.073 5.64584 798.846C3.92246 798.634 2.69531 798.276 1.62651 796.872C1.42717 790.566 9.89844 761.539 11.7439 754.814C17.2255 735.509 22.1426 716.05 26.489 696.463C27.7656 690.939 29.8924 684.365 30.7816 679.072L30.8665 678.535Z" fill="black"/>
<path d="M450.333 731.079C453.316 730.792 462.322 729.779 464.965 730.311C464.772 738.21 466.12 782.45 464.155 785.877C460.776 788.497 453.886 788.478 450.993 785.165C450.488 782.535 450.46 779.505 450.507 776.804C450.653 768.066 450.088 759.084 450.333 750.374C450.941 746.288 450.465 735.373 450.333 731.079Z" fill="black"/>
<path d="M266.253 717.351C268.548 716.441 277.954 716.87 279.514 719.269C281.229 721.904 292.309 752.49 291.489 754.72C290.852 755.229 290.329 755.601 289.542 755.86C287.28 756.595 282.671 757.194 280.518 755.992C279.08 755.186 267.365 721.517 266.253 717.351Z" fill="black"/>
</svg>
