<svg preserveAspectRatio="none" width="100%" height="100%" overflow="visible" style="display: block;" viewBox="0 0 206.388 275.452" fill="none" xmlns="http://www.w3.org/2000/svg">
<g id="Group">
<path id="Vector" d="M181.516 166.308C186.485 165.403 191.417 168.809 193.94 173.201C196.462 177.593 197.089 182.79 197.668 187.83C200.459 212.209 203.314 233.731 206.105 258.11C206.605 262.506 206.803 269.574 203.503 272.475C201.124 274.57 197.691 274.755 194.528 274.816C151.357 275.702 108.072 276.445 65.1819 271.341C81.3028 256.837 81.6507 231.445 75.059 210.732L86.8688 165.685L181.516 166.295V166.308Z" fill="var(--fill-0, #0D0E0F)"/>
<path id="Vector_2" d="M163.839 230.487H163.865C163.915 230.481 163.961 230.454 163.991 230.413C164.021 230.372 164.032 230.32 164.022 230.27C161.543 213.164 157.464 196.186 151.903 179.84C151.867 179.736 151.765 179.683 151.664 179.72C151.561 179.757 151.507 179.872 151.544 179.963C157.091 196.296 161.158 213.248 163.637 230.328C163.649 230.419 163.737 230.498 163.826 230.499L163.839 230.487ZM167.017 262.54L167.062 262.541C167.152 262.516 167.21 262.399 167.178 262.293C165.698 255.879 165.229 249.273 165.769 242.644C165.771 242.539 165.706 242.433 165.616 242.431C165.517 242.433 165.436 242.513 165.434 242.612C164.893 249.279 165.372 255.939 166.852 262.393C166.872 262.485 166.939 262.538 167.017 262.54ZM200.533 254.937C200.572 254.938 200.598 254.939 200.624 254.914C200.718 254.861 200.754 254.743 200.705 254.647L196.767 247.534C196.713 247.44 196.595 247.404 196.498 247.452C196.404 247.505 196.368 247.623 196.416 247.719L200.355 254.832C200.392 254.897 200.456 254.936 200.52 254.937H200.533ZM146.274 237.62L146.3 237.621L155.586 236.714C155.687 236.716 155.764 236.609 155.754 236.487C155.756 236.379 155.657 236.296 155.543 236.308L146.256 237.214C146.156 237.213 146.078 237.319 146.089 237.441C146.088 237.491 146.107 237.54 146.142 237.576C146.177 237.612 146.224 237.633 146.274 237.634V237.62ZM156.684 257.154C156.776 257.156 156.869 257.09 156.883 257.011C156.898 256.921 156.821 256.83 156.717 256.817L146.74 255.495C146.636 255.482 146.53 255.548 146.515 255.638C146.5 255.728 146.577 255.819 146.682 255.832L156.658 257.154H156.684ZM91.5039 248.587C91.6069 248.589 91.6838 248.537 91.6978 248.466C91.6988 248.396 91.6369 248.324 91.5219 248.313L84.4902 247.722C84.3882 247.72 84.2852 247.763 84.2842 247.842C84.2832 247.913 84.3452 247.985 84.4602 247.996L91.4919 248.587H91.5039Z" fill="var(--fill-0, #C5FFD8)"/>
<path id="Vector_3" d="M63.8121 2.46518C61.0576 0.565542 57.4813 0.446565 54.073 0.451564C48.2201 0.453563 41.8043 0.886481 37.773 5.0177C35.6414 7.19629 34.4747 10.1327 33.3619 13.0182C31.9301 16.6875 30.5114 20.3608 29.0797 24.0181C28.7837 24.775 28.5028 25.5218 28.5138 26.2787C28.5238 27.4585 29.1677 28.4053 30.2115 29.1921C31.2573 29.982 32.686 30.5959 34.2187 31.1088L34.3017 31.1368L34.3287 31.2197C34.7036 32.4135 35.0766 33.6073 35.4495 34.8001L36.5703 38.3794C36.7552 38.9553 36.9262 39.4942 37.3071 39.8911C37.4811 40.0681 37.6971 40.215 37.938 40.361C38.171 40.502 38.4439 40.65 38.6879 40.8089C39.1898 41.1349 39.6607 41.5588 39.8167 42.3066C40.8345 46.2159 41.7323 48.3745 42.5101 49.8362C42.9001 50.5671 43.261 51.126 43.5969 51.6489C43.9039 52.1278 44.1918 52.5777 44.4558 53.0976C44.6467 53.0216 44.8387 52.9496 45.0317 52.8797C45.2106 52.8147 45.3256 52.7747 45.4186 52.7337C45.5876 52.6577 45.6825 52.5817 45.9535 52.2998L46.1315 52.1148L46.2334 52.3518C46.2774 52.4537 46.3914 52.5507 46.5864 52.6697C46.7643 52.7787 47.0123 52.9066 47.2203 53.0606C47.4362 53.2206 47.6412 53.4265 47.7472 53.7205C47.8411 53.9784 47.8521 54.2844 47.7552 54.6573L47.7072 54.8203C46.5334 58.3936 43.8199 61.2161 41.4563 64.0585C39.0808 66.928 36.9022 70.2344 36.9892 73.9017C37.0342 75.6423 37.5841 77.336 38.169 79.0157C39.7647 83.5678 41.5393 88.06 43.5919 92.7891L43.5939 92.7951L43.5959 92.8001C46.1645 100.139 48.1111 104.194 50.6346 110.003L50.7386 110.242L50.4776 110.243C46.2074 110.245 39.8227 108.618 36.0214 106.566L25.8433 116.678C36.3283 122.737 50.8166 130.741 63.8801 133.128L64.494 133.241L63.9081 133.457C53.2421 137.403 48.2501 139.011 45.5126 140.124C44.1488 140.679 43.363 141.103 42.7221 141.623C42.0782 142.145 41.5733 142.769 40.7725 143.743C39.1058 145.781 38.3829 148.439 38.8268 151.027C39.3827 154.312 40.1816 157.488 41.1534 160.278C41.3674 160.887 41.6593 161.466 42.0232 161.999C42.4222 162.581 42.8331 163.156 43.255 163.722C45.4896 166.711 47.2962 169.979 48.559 173.495C52.7902 185.325 61.0206 195.498 69.3491 205.184L71.0148 207.115C81.1148 218.808 91.6109 231.12 95.2582 246.461L95.2682 246.502L95.2582 246.542C93.8694 252.177 92.4797 257.825 91.1489 263.064L91.1429 263.091L91.1279 263.114C89.8572 265.106 87.8126 266.58 85.522 267.144L85.2991 267.196C85.0061 267.262 84.7062 267.315 84.4142 267.369C84.1203 267.425 83.8323 267.482 83.5554 267.559C83.0015 267.713 82.4986 267.943 82.0917 268.372C81.7087 268.779 81.5368 269.363 81.7277 269.855L81.7287 269.857C81.8737 270.249 82.1456 270.707 82.4706 271.074C82.8015 271.449 83.1595 271.696 83.4694 271.729C86.2419 272.014 89.0413 272.171 91.8448 272.331C94.6463 272.489 97.4497 272.65 100.224 272.942L100.23 272.943L100.272 272.945L100.437 272.952L101.061 272.982C104.135 273.127 107.209 273.277 110.282 273.431C115.455 273.691 120.93 273.981 122.098 274.105L122.125 274.107L122.15 274.119C122.717 274.373 123.447 274.318 124.268 274.026C125.086 273.734 125.968 273.215 126.82 272.58C128.527 271.309 130.074 269.603 130.698 268.418C131.333 267.216 131.769 265.911 132.259 264.613C132.745 263.32 133.282 262.039 134.116 260.922L134.296 260.69C135.212 259.552 136.372 258.683 137.62 257.934C138.947 257.137 140.392 256.465 141.742 255.756C144.463 254.329 147.179 252.343 147.814 249.421L147.863 249.173C148.313 246.604 147.036 243.976 145.433 241.819C144.714 240.847 143.923 239.93 143.068 239.076L143.067 239.075C136.949 232.957 132.586 225.267 131.089 216.72H131.09C130.18 211.533 129.863 206.154 129.739 199.989C129.643 195.128 129.767 191.466 128.754 186.912C127.741 182.361 125.59 176.912 120.931 168.504L120.74 168.159L121.122 168.255C135.493 171.857 150.225 174.011 165.027 174.697L166.46 174.759C169.493 174.874 172.555 174.928 175.499 174.261L175.783 174.195C178.799 173.458 181.712 171.834 183.389 169.243L183.534 169.01C185.014 166.592 185.372 163.645 185.683 160.76V160.759L185.947 158.356C186.527 152.942 186.98 147.507 186.518 142.109L186.463 141.51C186.019 136.977 184.837 132.453 182.43 128.409C179.753 123.932 177.367 119.287 175.504 114.411L175.326 113.938C173.188 108.194 170.809 102.356 168.091 96.1265H168.092C166.807 93.189 165.948 90.1076 165.412 86.9562C162.631 70.6393 153.928 55.3322 140.444 44.2553L140.44 44.2523L140.436 44.2483C135.086 39.2902 129.058 35.074 122.836 31.5977L122.803 31.5787L122.781 31.5487C119.193 26.6046 113.106 23.6862 107.289 23.6362C101.176 23.5822 95.0852 22.7433 89.2803 20.7887C86.2639 19.7729 83.1215 18.6271 79.7271 17.2324L79.5971 17.1784L79.6251 17.0394C79.8231 16.0666 79.5371 15.1108 78.9672 14.265C78.3974 13.4201 77.5495 12.6972 76.6517 12.2053C75.7449 11.7084 74.767 11.3495 73.7812 10.9666C72.7994 10.5856 71.8136 10.1807 70.9188 9.59683C69.482 8.66501 68.3832 7.33726 67.3085 6.02651C66.2277 4.70676 65.1729 3.40401 63.8121 2.46518Z" fill="var(--fill-0, #C5FFD8)" stroke="var(--stroke-1, #0D0E0F)" stroke-width="0.902829" stroke-miterlimit="10"/>
<path id="Vector_4" d="M94.8752 190.699C98.0356 200.082 104.202 208.098 109.534 216.45C114.866 224.8 119.558 234.158 119.195 243.933C115.159 240.908 111.615 237.26 108.5 233.566C98.1346 209.323 101.481 208.696 94.8882 190.712L94.8752 190.699Z" fill="var(--fill-0, #0D0E0F)"/>
<path id="Vector_5" d="M98.8715 106.822C92.8036 115.607 86.7268 123.058 79.9101 129.684C85.1291 130.261 90.5721 130.476 96.01 130.954C101.04 130.127 105.489 128.909 109.938 127.697C106.789 120.755 102.836 113.785 98.8715 106.822ZM65.6868 63.7406C63.5402 67.134 61.6575 68.8896 60.0758 69.8404C58.4841 70.7983 57.2044 70.9362 56.3085 71.1172C55.5477 71.2692 54.7018 71.5231 53.944 71.9011C53.1851 72.28 52.5232 72.7789 52.1173 73.4168L52.1163 73.4178C51.5394 74.3126 51.7254 75.5174 52.1593 76.5492C52.8632 78.2429 54.9008 81.1513 57.2903 84.1847C59.6169 87.1402 62.2664 90.2006 64.31 92.3482C66.5676 83.7748 66.2746 80.4434 65.8397 77.426C65.6188 75.8983 65.3598 74.4386 65.3738 72.425C65.3878 70.4263 65.6718 67.8878 66.5226 64.1925C66.3736 64.0995 66.2217 64.0115 66.0677 63.9266C65.9617 63.8666 65.8527 63.8116 65.7407 63.7616C65.7238 63.7546 65.7058 63.7476 65.6868 63.7406Z" fill="var(--fill-0, #0D0E0F)" stroke="var(--stroke-1, #0D0E0F)" stroke-width="0.650877" stroke-miterlimit="10"/>
<path id="Vector_6" d="M116.011 253.453C115.407 257.489 113.893 261.38 111.373 264.658C109.58 264.766 107.795 265.206 106.144 265.928C107.961 264.395 108.172 261.726 109.049 259.516C110.335 256.306 113.388 253.879 115.998 253.453H116.011ZM85.421 58.0347C85.496 58.0357 85.573 57.9847 85.6 57.9047C87.3057 53.5275 90.0392 49.6303 93.5275 46.6198C93.6055 46.5478 93.6185 46.4299 93.5575 46.3429C93.4925 46.2609 93.3745 46.2479 93.2925 46.3109C89.7532 49.3603 86.9807 53.3096 85.2491 57.7537C85.2091 57.8587 85.2451 57.9787 85.358 58.0207C85.383 58.0207 85.408 58.0347 85.421 58.0347ZM98.6825 106.614C98.7555 106.616 98.8245 106.577 98.8615 106.514L104.634 95.3306C111.615 88.3909 116.991 80.3874 120.618 71.5631C120.658 71.4601 120.621 71.3432 120.521 71.3022C120.42 71.2622 120.305 71.2992 120.265 71.4011C116.665 80.1875 111.302 88.152 104.347 95.0667C104.331 95.0807 104.318 95.0987 104.308 95.1177L98.5216 106.327C98.4696 106.417 98.5186 106.546 98.6065 106.587C98.6335 106.602 98.6635 106.611 98.6945 106.614H98.6825ZM71.0937 65.9682C71.1957 65.9702 71.2977 65.9712 71.4007 65.9362C71.7836 65.8552 72.0696 65.5612 72.1135 65.2373C72.1585 64.8394 71.8326 64.5094 71.6446 64.3435L69.914 62.6428C72.1855 62.5578 73.9732 63.0867 75.7109 63.5916L75.8628 63.6316C76.2568 63.7506 76.7137 63.8826 77.1856 63.8656C77.7335 63.8506 78.1964 63.6096 78.4323 63.2267C78.4853 63.1367 78.4593 63.0217 78.3734 62.9637C78.2824 62.9117 78.1664 62.9367 78.1044 63.0217C77.9085 63.3427 77.4855 63.4726 77.1666 63.4786C76.7707 63.4976 76.3397 63.3647 75.9718 63.2587L75.8198 63.2187C73.9422 62.6628 72.0016 62.0929 69.462 62.2729C69.3851 62.2729 69.3171 62.3219 69.2941 62.3949C69.2691 62.4658 69.2881 62.5438 69.3411 62.5948L71.3727 64.5884C71.5477 64.7664 71.7486 64.9694 71.7186 65.1803C71.7036 65.3673 71.4967 65.5143 71.3177 65.5483C71.0877 65.5942 70.8328 65.5393 70.5788 65.4853C69.2841 65.1763 68.0173 64.7054 66.8425 64.0735C66.7546 64.0225 66.6266 64.0575 66.5866 64.1445C66.5346 64.2305 66.5706 64.3565 66.6586 64.3945C67.8713 65.0394 69.1501 65.5353 70.4839 65.8452C70.6748 65.8862 70.8778 65.9272 71.0817 65.9302L71.0937 65.9682ZM68.0493 33.1744C68.3023 33.1794 68.5542 33.1404 68.7932 33.0574C69.512 32.8124 70.1729 32.2306 70.4829 31.5267C71.0108 30.3749 70.8898 29.0702 70.7678 27.8294L70.7128 27.2615C70.5588 25.6468 70.4059 23.9801 69.926 22.3854C69.509 20.9727 68.6442 19.036 66.9115 17.7933C65.2538 16.6165 63.0863 16.4115 61.5116 17.2874C59.7249 18.2872 58.949 20.3508 58.3791 22.4434C58.3671 22.4934 58.3741 22.5454 58.4001 22.5894C58.4261 22.6334 58.4691 22.6654 58.5191 22.6784C58.6221 22.7054 58.7271 22.6434 58.7551 22.5404C59.297 20.5378 60.0328 18.5511 61.7005 17.6253C63.1442 16.8255 65.1429 17.0144 66.6716 18.1112C68.3153 19.288 69.1411 21.1466 69.534 22.4944C69.9889 24.0501 70.1549 25.7038 70.2969 27.2925L70.3519 27.8354C70.4739 29.0632 70.5958 30.3029 70.1089 31.3657C69.826 31.9666 69.2711 32.4855 68.6432 32.6945C68.3163 32.8044 67.8474 32.8744 67.3694 32.6335C67.2795 32.5805 67.1495 32.6295 67.1085 32.7195C67.0545 32.8084 67.1045 32.9384 67.1955 32.9784C67.4554 33.1124 67.7434 33.1834 68.0363 33.1874L68.0493 33.1744Z" fill="var(--fill-0, #0D0E0F)"/>
<path id="Vector_7" d="M62.5724 26.4177L62.6313 26.4187C62.7263 26.3827 62.7793 26.2817 62.7553 26.1837C62.0205 23.7112 63.0403 20.7817 65.1329 19.37C65.2188 19.312 65.2418 19.195 65.1849 19.109C65.1269 19.0201 65.0199 18.9931 64.9349 19.054C62.7213 20.5518 61.6265 23.6662 62.4064 26.2897C62.4294 26.3627 62.4954 26.4137 62.5724 26.4177ZM97.6077 196.609C97.6317 196.609 97.6687 196.61 97.6927 196.585C97.7787 196.534 97.8167 196.429 97.7827 196.335C95.5601 191.563 93.5395 186.7 91.7258 181.759C91.6918 181.657 91.5829 181.617 91.4849 181.653C91.4359 181.671 91.3979 181.708 91.3789 181.756C91.3589 181.804 91.3609 181.858 91.3829 181.904C93.2026 186.857 95.2272 191.733 97.4508 196.518C97.4838 196.581 97.5487 196.621 97.6197 196.622L97.6077 196.609ZM87.7416 169.673L87.8056 169.674C87.9046 169.64 87.9616 169.536 87.9366 169.434C87.4197 167.734 86.9267 166.026 86.4598 164.312C86.4558 164.293 86.4478 164.275 86.4348 164.261C83.8803 160.292 81.9357 157.188 80.172 153.922C79.1022 149.494 79.7951 144.028 82.0527 139.315C86.1579 135.271 91.5699 132.244 97.2978 130.801C97.3998 130.777 97.4648 130.677 97.4418 130.562C97.4178 130.459 97.3048 130.393 97.2028 130.417C91.3979 131.884 85.9219 134.961 81.7647 139.055C81.7517 139.067 81.7387 139.093 81.7257 139.105C79.4272 143.919 78.7073 149.5 79.8131 154.03C79.8131 154.043 79.8131 154.056 79.8251 154.081C81.6018 157.348 83.5464 160.464 86.1009 164.433C86.5658 166.139 87.0587 167.838 87.5786 169.529C87.6046 169.605 87.6746 169.658 87.7546 169.66L87.7416 169.673Z" fill="var(--fill-0, #0D0E0F)"/>
<path id="Vector_8" d="M65.6018 30.092C65.9017 30.097 66.1917 29.982 66.4076 29.772C66.6266 29.5571 66.7206 29.2751 66.6626 28.9912C66.5556 28.5143 66.1017 28.3263 65.7118 28.1523C65.4338 28.0443 65.1569 27.9234 65.0069 27.7274C64.8829 27.5714 64.8489 27.3655 64.9029 27.1475C64.9719 26.8656 65.1659 26.6116 65.3968 26.5126C65.9087 26.2767 66.5146 26.4936 66.9035 26.7706C66.9665 26.8096 67.0425 26.8236 67.1065 26.7736C67.1715 26.7376 67.2115 26.6696 67.2115 26.5956C67.1045 24.69 65.6348 22.9793 63.7871 22.6254C63.7111 22.6114 63.6342 22.6364 63.5952 22.6994C63.5562 22.7623 63.5542 22.8413 63.5912 22.9053C64.8869 25.1269 64.521 25.6998 64.195 26.2087C64.1261 26.3147 64.0651 26.4257 64.0111 26.5406C63.6681 27.3055 63.9071 28.1853 64.1631 28.7812C64.469 29.4811 64.8679 29.899 65.3608 30.05C65.4368 30.077 65.5258 30.078 65.6148 30.08L65.6018 30.092ZM65.9007 26.0197C65.6668 26.0117 65.4348 26.0607 65.2249 26.1627C64.8789 26.3237 64.606 26.6666 64.511 27.0635C64.428 27.4095 64.499 27.7324 64.686 27.9794C64.9089 28.2533 65.2369 28.3883 65.5528 28.5223C65.9057 28.6702 66.2077 28.8032 66.2797 29.0881C66.3266 29.2821 66.2107 29.4211 66.1327 29.4971C65.9517 29.674 65.6708 29.746 65.4558 29.691C65.0769 29.5811 64.7649 29.2291 64.509 28.6452C64.276 28.1273 64.0731 27.3645 64.351 26.7266C64.391 26.6366 64.456 26.5486 64.508 26.4456C64.8479 25.9117 65.2658 25.2499 64.1341 23.1333C65.4728 23.5812 66.5426 24.847 66.7726 26.2537C66.5086 26.1207 66.2057 26.0247 65.8877 26.0197H65.9007ZM67.6114 44.2603C67.6964 44.2613 67.7744 44.2093 67.8064 44.1303C68.7862 41.5988 68.6442 38.6333 67.4334 36.1848C67.3774 36.0898 67.2625 36.0488 67.1595 36.0858C67.0635 36.1368 67.0205 36.2508 67.0585 36.3518C68.2303 38.6933 68.3603 41.5378 67.4224 43.9753C67.3794 44.0823 67.4324 44.2043 67.5424 44.2323L67.6114 44.2343V44.2603ZM55.7107 58.9315C55.7516 58.9315 55.7926 58.9185 55.8266 58.8955C56.7535 58.2106 58.0962 57.9907 59.8949 58.2136C60.2418 58.2576 60.6017 58.3156 60.9487 58.3586C62.0405 58.5316 63.1712 58.7035 64.294 58.5446C65.4688 58.3866 66.5596 57.8697 67.6114 57.3778L68.0133 57.1938C69.1041 56.6899 70.3759 56.151 71.6756 56.224C72.8334 56.282 74.1742 56.9689 74.5001 58.1726C74.5251 58.2756 74.6271 58.3286 74.7301 58.3176C75.8668 58.1077 76.9716 58.2536 78.0254 58.3996C78.5393 58.4726 79.0662 58.5456 79.5941 58.5796C81.2788 58.6726 83.2214 58.0697 83.7633 56.51C83.7933 56.419 83.7513 56.32 83.6644 56.279C77.4295 53.4026 70.8518 51.3419 64.0911 50.1502L64.0011 50.1492C61.3336 51.008 58.3112 51.4789 55.3807 51.9248C53.675 52.1888 51.9064 52.4647 50.2107 52.9836C50.1847 52.9826 50.1587 53.0076 50.1327 53.0326C48.9279 54.1854 47.4722 55.6641 47.4592 55.6771C47.3872 55.7511 47.3852 55.8691 47.4552 55.9451C47.5302 56.0161 47.6472 56.0181 47.7252 55.9491C47.7382 55.9371 49.1669 54.4953 50.3587 53.3426C52.0034 52.8357 53.746 52.5727 55.4247 52.3088C58.3562 51.8618 61.3906 51.3919 64.0591 50.5321C70.7078 51.7179 77.1816 53.7415 83.3244 56.553C82.7755 57.8057 81.0928 58.2866 79.6131 58.1976C79.1012 58.1617 78.5903 58.1017 78.0834 58.0187C77.0426 57.8727 75.9638 57.7137 74.827 57.8987C74.3861 56.6149 72.9434 55.8891 71.7076 55.8291C70.3049 55.7671 68.9941 56.318 67.8654 56.8339L67.4634 57.0179C66.4376 57.4978 65.3728 58.0017 64.249 58.1487C63.1782 58.2956 62.0734 58.1237 61.0077 57.9647C60.6477 57.9077 60.3008 57.8507 59.9409 57.8057C58.0262 57.5688 56.6055 57.8127 55.5877 58.5596C55.5457 58.5886 55.5167 58.6336 55.5087 58.6836C55.5007 58.7345 55.5137 58.7865 55.5447 58.8265C55.5827 58.8785 55.6337 58.9045 55.6977 58.9055L55.7107 58.9315Z" fill="var(--fill-0, #0D0E0F)"/>
<path id="Vector_9" d="M65.3528 63.6506C65.4038 63.6546 65.4548 63.6376 65.4938 63.6036C65.7348 63.3847 66.0047 63.1977 66.2946 63.0487C66.8735 62.7738 67.5264 62.6118 68.1553 62.4498C68.4242 62.3799 68.6802 62.3229 68.9371 62.2399C70.2579 61.8669 71.5187 61.2701 72.7274 60.7092C73.2423 60.4712 73.8342 60.1843 74.2761 59.7464C74.782 59.2354 75.011 58.5586 74.842 57.9987C74.828 57.9487 74.795 57.9077 74.749 57.8837C74.7041 57.8587 74.6501 57.8547 74.6021 57.8707C74.5521 57.8817 74.5091 57.9137 74.4841 57.9577C74.4591 58.0027 74.4541 58.0557 74.4701 58.1037C74.6271 58.6386 74.3241 59.1655 73.9992 59.4944C73.6103 59.8833 73.0694 60.1343 72.5555 60.3852C71.3587 60.9461 70.1229 61.53 68.8282 61.8919C68.5722 61.9619 68.3153 62.0319 68.0593 62.0889C67.4054 62.2509 66.7396 62.4118 66.1217 62.7118C65.7907 62.8688 65.4848 63.0757 65.2179 63.3267C65.1809 63.3597 65.1589 63.4067 65.1579 63.4556C65.1579 63.5046 65.1779 63.5526 65.2139 63.5866C65.2498 63.6246 65.2998 63.6476 65.3528 63.6506ZM69.512 101.659C69.549 101.66 69.587 101.66 69.612 101.622C69.703 101.561 69.727 101.44 69.667 101.349C66.3876 96.0995 62.6133 91.1764 58.3961 86.6483C58.3631 86.6103 58.3162 86.5883 58.2662 86.5873C58.2152 86.5863 58.1672 86.6073 58.1332 86.6443C58.0572 86.7182 58.0552 86.8402 58.1282 86.9172C62.2974 91.4034 66.0837 96.3264 69.3511 101.552C69.3871 101.607 69.4471 101.641 69.512 101.646V101.659ZM70.6318 100.935C70.6828 100.939 70.7328 100.921 70.7698 100.886C73.5783 98.0511 74.3491 93.9019 75.093 89.8946C75.2999 88.7609 75.5199 87.5881 75.7759 86.4813C76.7197 82.4391 78.4483 78.5128 80.7919 75.1284C80.8049 75.1024 80.8179 75.0645 80.8309 75.0385C81.4458 69.0896 82.9455 63.2217 85.2911 57.5748C85.33 57.4718 85.2951 57.3548 85.1951 57.3148C85.0961 57.2738 84.9831 57.3108 84.9441 57.4128C82.5856 63.0737 81.0859 68.9676 80.458 74.9415C78.1014 78.3518 76.3597 82.3161 75.4029 86.3843C75.147 87.5051 74.927 88.6769 74.7191 89.8237C73.9892 93.7799 73.2323 97.8641 70.5129 100.61C70.4359 100.686 70.4339 100.815 70.5079 100.881C70.5438 100.917 70.5938 100.937 70.6448 100.935H70.6318ZM72.6444 135.187C73.9152 135.209 75.198 134.453 76.4567 132.958C76.6647 132.707 76.8716 132.443 77.0796 132.179C77.7945 131.273 78.5223 130.341 79.5102 129.772C79.6001 129.722 79.6401 129.595 79.5781 129.505C79.5291 129.415 79.4022 129.374 79.3122 129.437C78.2604 130.031 77.5065 131 76.7667 131.931C76.5587 132.195 76.3637 132.447 76.1558 132.698C74.95 134.143 73.7302 134.862 72.5625 134.79C71.7506 134.751 70.9948 134.342 70.2909 133.935C63.4102 129.914 54.3179 120.83 50.6106 110.386C50.5736 110.283 50.4606 110.231 50.3707 110.267C50.2687 110.304 50.2157 110.418 50.2527 110.507C53.984 121.054 63.1512 130.215 70.0939 134.263C70.8368 134.697 71.6416 135.132 72.5435 135.173L72.6454 135.174L72.6444 135.187Z" fill="var(--fill-0, #0D0E0F)"/>
<path id="Vector_10" d="M63.3032 132.809C63.3302 132.811 63.3572 132.808 63.3842 132.8C64.496 132.438 65.6058 132.068 66.7126 131.689C66.8205 131.648 66.8625 131.555 66.8105 131.481C66.7586 131.407 66.6376 131.364 66.5426 131.403C65.4408 131.783 64.336 132.154 63.2272 132.515C63.1192 132.544 63.0773 132.638 63.1162 132.722C63.1552 132.785 63.2222 132.818 63.3032 132.819V132.809ZM120.914 169.521C120.964 169.522 121.012 169.505 121.049 169.472C121.132 169.405 121.146 169.284 121.081 169.2L115.646 162.802C115.574 162.723 115.453 162.709 115.365 162.772C115.283 162.839 115.268 162.959 115.333 163.044L120.768 169.441C120.807 169.494 120.861 169.507 120.928 169.508L120.914 169.521ZM80.061 171.045C80.123 171.044 80.18 171.015 80.217 170.966C80.284 170.871 80.273 170.747 80.196 170.677C77.7985 168.56 75.219 166.656 72.4895 164.987C72.4005 164.931 72.2825 164.97 72.2165 165.065C72.1655 165.166 72.1965 165.289 72.2895 165.354C74.975 166.988 77.5525 168.894 79.9451 171.002C79.9781 171.028 80.019 171.043 80.061 171.045ZM119.701 197.753C119.727 197.756 119.753 197.752 119.777 197.741C119.88 197.693 119.92 197.578 119.871 197.488L110.233 176.142C110.184 176.039 110.07 175.999 109.98 176.048C109.877 176.097 109.837 176.211 109.886 176.301L119.525 197.648C119.562 197.712 119.624 197.765 119.701 197.766V197.753ZM69.3401 190.932C69.3641 190.932 69.3891 190.932 69.4131 190.92C69.512 190.884 69.55 190.772 69.504 190.671L64.8669 179.819C64.8199 179.718 64.7109 179.678 64.624 179.727C64.525 179.763 64.487 179.875 64.534 179.976L69.1701 190.828C69.2051 190.904 69.2661 190.943 69.3391 190.944L69.3401 190.932ZM115.374 254.968C115.464 254.972 115.544 254.915 115.569 254.829L119.094 243.383C119.123 243.281 119.069 243.173 118.97 243.136C118.868 243.107 118.761 243.161 118.724 243.261L115.199 254.706C115.17 254.809 115.224 254.916 115.323 254.954L115.374 254.955V254.968ZM134.906 243.393C134.945 243.394 134.986 243.394 135.012 243.371C136.367 242.62 137.386 241.352 137.716 239.953C137.744 239.858 137.666 239.761 137.56 239.736C137.456 239.713 137.352 239.773 137.318 239.874C137.004 241.179 136.066 242.365 134.792 243.07C134.748 243.092 134.716 243.131 134.702 243.178C134.689 243.226 134.695 243.276 134.721 243.318C134.76 243.374 134.824 243.407 134.892 243.405L134.906 243.393ZM114.355 273.546C114.463 273.548 114.558 273.465 114.56 273.369C114.585 272.669 115.176 271.968 116.045 271.584C116.873 271.225 117.818 271.133 118.723 271.052C118.763 271.052 118.804 271.029 118.844 271.006C119.638 270.332 120.224 269.92 120.796 269.52C120.892 269.461 120.907 269.341 120.828 269.267C120.794 269.226 120.746 269.199 120.693 269.194C120.64 269.188 120.586 269.204 120.545 269.238C119.972 269.638 119.387 270.039 118.607 270.7C117.717 270.781 116.718 270.872 115.849 271.255C114.844 271.697 114.17 272.517 114.129 273.349C114.127 273.446 114.207 273.532 114.328 273.534L114.355 273.546ZM109.96 273.458L110.027 273.459C110.135 273.422 110.19 273.318 110.152 273.212C109.923 272.515 110.458 271.752 111.081 271.396C111.622 271.091 112.227 270.958 112.872 270.825C113.06 270.789 113.248 270.753 113.423 270.703C114.539 270.436 115.255 270.029 115.654 269.408C115.71 269.314 115.682 269.193 115.592 269.132C115.496 269.078 115.375 269.104 115.31 269.193C114.966 269.724 114.331 270.079 113.322 270.323C113.147 270.372 112.959 270.408 112.785 270.445C112.139 270.577 111.467 270.722 110.872 271.065C110.088 271.51 109.455 272.441 109.761 273.337C109.789 273.416 109.863 273.469 109.946 273.471L109.96 273.458ZM107.706 273.406L107.769 273.407C107.87 273.383 107.922 273.269 107.899 273.165C107.721 272.571 108.083 271.921 108.517 271.542C108.925 271.189 109.443 270.967 109.949 270.744C110.051 270.694 110.152 270.657 110.253 270.608C110.861 270.336 111.546 269.975 111.946 269.339C111.998 269.247 111.973 269.13 111.888 269.068C111.798 269.015 111.682 269.041 111.623 269.128C111.275 269.675 110.654 269.998 110.096 270.259C109.995 270.308 109.894 270.345 109.792 270.395C109.262 270.616 108.717 270.864 108.258 271.255C107.761 271.684 107.283 272.46 107.52 273.287C107.544 273.365 107.618 273.43 107.693 273.432L107.706 273.406ZM101.39 273.322C101.416 273.323 101.455 273.323 101.481 273.297C101.579 273.239 101.615 273.115 101.565 273.014C101.11 272.112 100.961 270.864 101.705 270.215C102.077 269.896 102.562 269.81 103.086 269.711C103.257 269.673 103.44 269.649 103.611 269.611C104.975 269.283 106.169 268.315 106.793 267.013C106.818 266.965 106.822 266.91 106.806 266.859C106.79 266.808 106.754 266.765 106.706 266.741C106.66 266.716 106.605 266.711 106.555 266.728C106.505 266.745 106.464 266.783 106.443 266.831C105.86 268.026 104.773 268.914 103.527 269.204C103.356 269.241 103.185 269.279 103.028 269.304C102.477 269.402 101.9 269.501 101.449 269.899C100.546 270.681 100.691 272.159 101.222 273.197C101.26 273.266 101.324 273.308 101.39 273.309V273.322ZM90.1261 272.371C90.1641 272.372 90.2031 272.372 90.2291 272.348C90.3211 272.301 90.3491 272.179 90.2991 272.092C89.8952 271.46 90.0671 270.532 90.683 270.066C91.1549 269.707 91.7908 269.632 92.4387 269.557C92.6727 269.525 92.9196 269.505 93.1406 269.46C94.3993 269.224 95.5761 268.546 96.37 267.58C96.4359 267.495 96.4249 267.385 96.335 267.322C96.246 267.259 96.129 267.27 96.063 267.354C95.3352 268.248 94.2374 268.878 93.0686 269.103C92.8476 269.148 92.6147 269.169 92.3807 269.202C91.6928 269.288 90.993 269.373 90.4291 269.793C89.6422 270.367 89.4293 271.489 89.9462 272.294C89.9832 272.356 90.0482 272.382 90.1121 272.383L90.1261 272.371ZM85.486 272.291L85.553 272.292C85.662 272.256 85.718 272.158 85.679 272.058C85.434 271.345 86.0439 270.547 86.7808 270.188C87.3817 269.9 88.0325 269.799 88.7384 269.687C88.9704 269.656 89.2013 269.618 89.4313 269.575C90.653 269.347 91.5009 268.889 91.9178 268.237C91.9458 268.193 91.9538 268.139 91.9398 268.089C91.9248 268.038 91.8888 267.997 91.8408 267.975C91.7478 267.924 91.6119 267.946 91.5559 268.045C91.1939 268.61 90.4431 268.995 89.3423 269.213C89.1253 269.258 88.8944 269.292 88.6634 269.325C87.9575 269.437 87.2387 269.549 86.5838 269.861C85.71 270.281 84.9481 271.237 85.2841 272.175C85.3101 272.25 85.391 272.301 85.472 272.303L85.486 272.291ZM82.4586 270.763C82.5186 270.766 82.5776 270.739 82.6146 270.691C84.1153 268.908 86.4308 267.729 88.8194 267.524C88.9224 267.526 89.0014 267.429 88.9904 267.318C88.9924 267.22 88.8904 267.144 88.7744 267.154C86.2819 267.37 83.8623 268.608 82.2966 270.464C82.2306 270.549 82.2416 270.66 82.3306 270.723C82.3646 270.747 82.4046 270.761 82.4456 270.762L82.4586 270.763Z" fill="var(--fill-0, #0D0E0F)"/>
<path id="Vector_11" d="M82.6675 271.518C82.6905 271.518 82.7135 271.518 82.7365 271.506C82.8275 271.466 82.8755 271.346 82.8325 271.237C82.6596 270.707 82.8075 270.009 83.1925 269.448C83.5664 268.915 84.0843 268.559 84.5902 268.217C84.6702 268.164 84.7072 268.029 84.6522 267.934C84.6082 267.839 84.4952 267.796 84.4142 267.862C83.9083 268.205 83.3324 268.6 82.9245 269.187C82.5516 269.721 82.2406 270.565 82.4996 271.38C82.5176 271.452 82.5826 271.504 82.6565 271.504L82.6675 271.518ZM149.245 129.107C149.325 129.108 149.397 129.062 149.428 128.989C149.45 128.942 149.45 128.888 149.428 128.841C149.407 128.794 149.366 128.758 149.316 128.744C137.243 124.164 123.269 123.813 110.984 127.802C110.88 127.837 110.827 127.945 110.864 128.03C110.901 128.128 111.016 128.178 111.107 128.143C123.314 124.189 137.185 124.527 149.169 129.081L149.233 129.082L149.245 129.107ZM80.205 63.1967C80.6109 63.2047 81.0149 63.1337 81.3948 62.9887C81.8307 62.8168 82.3216 62.4418 82.2926 61.9139C82.2736 61.543 81.9857 61.2381 81.7847 61.0431L78.8533 58.0197C78.7793 57.9467 78.6613 57.9447 78.5853 58.0157C78.5483 58.0467 78.5263 58.0917 78.5253 58.1397C78.5243 58.1886 78.5453 58.2346 78.5813 58.2666L81.5128 61.2901C81.7137 61.497 81.9007 61.716 81.9097 61.9319C81.9297 62.2679 81.5678 62.5248 81.2468 62.6508C79.8481 63.2017 78.2294 62.3469 77.3975 61.793C77.1206 61.609 76.8557 61.413 76.5787 61.2281C75.6839 60.5892 74.765 59.9263 73.6603 59.6554C73.5613 59.6294 73.4583 59.6854 73.4283 59.7833C73.4013 59.8793 73.4633 59.9763 73.5643 60.0013C74.5931 60.2593 75.4879 60.8971 76.3447 61.511C76.6207 61.708 76.8856 61.9049 77.1636 62.0889C77.9704 62.6298 79.0702 63.1767 80.192 63.1957L80.205 63.1967ZM40.5645 37.9495C40.6085 37.9495 40.6515 37.9375 40.6885 37.9135L46.3474 33.1944C46.4234 33.1244 46.4354 33.0084 46.3764 32.9234C46.3134 32.8444 46.1984 32.8304 46.1185 32.8934L40.4595 37.6125C40.3835 37.6825 40.3715 37.7985 40.4305 37.8835C40.4625 37.9325 40.5175 37.9635 40.5765 37.9625L40.5645 37.9495ZM39.8356 37.9365C39.9126 37.9355 39.9816 37.8895 40.0126 37.8185C40.5975 36.3378 41.4883 34.997 42.6251 33.8842C42.7021 33.8053 42.7161 33.6833 42.6301 33.6013C42.5571 33.5193 42.4452 33.5033 42.3682 33.5963C41.2134 34.7231 40.2786 36.1238 39.6657 37.6635C39.6257 37.7715 39.6617 37.8935 39.7607 37.9355C39.7857 37.9355 39.8107 37.9495 39.8356 37.9505V37.9365ZM41.2934 40.207C41.3434 40.208 41.3914 40.189 41.4274 40.1541C43.17 38.6863 44.8077 37.9455 46.8583 37.0047C47.3642 36.7657 47.9101 36.5287 48.47 36.2628C48.576 36.2098 48.618 36.0878 48.567 35.9908C48.516 35.8789 48.398 35.8359 48.304 35.8899C47.7322 36.1548 47.1993 36.4068 46.6934 36.6317C44.6027 37.5845 42.9511 38.3254 41.1684 39.8331C41.0864 39.9081 41.0734 40.0311 41.1364 40.1221C41.1754 40.1771 41.2284 40.192 41.2944 40.193L41.2934 40.207Z" fill="var(--fill-0, #0D0E0F)"/>
<path id="Vector_12" d="M44.4048 40.8899C44.5558 40.8929 44.7067 40.8719 44.8587 40.8029C45.3386 40.621 45.5856 40.1371 45.7535 39.8191L46.9873 37.4726C47.0103 37.4296 47.0143 37.3796 46.9983 37.3336C46.9823 37.2886 46.9483 37.2516 46.9033 37.2326C46.8033 37.1836 46.6904 37.2286 46.6504 37.3116L45.4176 39.6581C45.2366 40.0121 45.0417 40.354 44.7137 40.479C44.2458 40.661 43.6989 40.33 43.414 40.1111C43.326 40.0351 43.235 39.9621 43.142 39.8921C42.8081 39.6132 42.4612 39.3332 42.0112 39.2062C41.9133 39.1802 41.8133 39.2362 41.7833 39.3332C41.7563 39.4282 41.8183 39.5242 41.9173 39.5502C42.2802 39.6392 42.5771 39.8941 42.8991 40.1501C42.9851 40.223 43.085 40.296 43.171 40.369C43.432 40.576 43.8909 40.8569 44.3928 40.8659L44.4048 40.8899ZM47.0683 50.6061C47.1703 50.6081 47.2602 50.5261 47.2622 50.4311C47.2682 50.0742 47.9531 49.4553 48.2871 49.2943C48.8389 49.0184 49.1129 48.6065 49.0319 48.1535C48.9629 47.7356 48.611 47.4797 48.2831 47.2837L46.4064 46.1559C46.3164 46.1069 46.2024 46.1299 46.1385 46.2109C46.0865 46.2929 46.1095 46.4009 46.1984 46.4619L48.0741 47.5896C48.339 47.7486 48.603 47.9436 48.649 48.2175C48.719 48.6115 48.333 48.8664 48.1011 48.9824C47.7422 49.1544 46.8903 49.8652 46.8673 50.4241C46.8663 50.5191 46.9543 50.6041 47.0553 50.6061H47.0683ZM54.089 46.2649C54.1899 46.2669 54.2799 46.1769 54.2819 46.0559C54.2849 45.934 54.2099 45.827 54.11 45.81L49.2979 45.4381C49.1969 45.4361 49.1069 45.526 49.0919 45.647C49.0899 45.768 49.1639 45.876 49.2649 45.893L54.076 46.2649H54.089ZM79.7661 20.6747C79.8161 20.6777 79.8641 20.6577 79.8971 20.6207C79.9511 20.5778 79.9771 20.5078 79.9651 20.4398L79.6971 17.8823C79.6861 17.7693 79.5831 17.6833 79.4792 17.6963C79.3742 17.7083 79.2942 17.8193 79.3062 17.9313L79.5401 20.1798C76.1318 19.279 72.5025 19.062 69.0171 19.5769C68.9132 19.5889 68.8332 19.6999 68.8442 19.8129C68.8552 19.9249 68.9581 20.0109 69.0621 19.9979C72.5865 19.484 76.2668 19.7159 79.7011 20.6737L79.7531 20.6747H79.7661ZM35.6694 29.5811C37.795 29.618 39.9606 28.7992 41.5273 27.2855C44.4968 27.1095 47.5462 26.7336 49.4418 24.558C52.4003 25.0639 55.4347 24.755 58.2542 23.6792C58.3591 23.6372 58.4111 23.5202 58.3741 23.4132C58.3581 23.3622 58.3222 23.3202 58.2742 23.2972C58.2262 23.2732 58.1712 23.2702 58.1212 23.2882C55.3397 24.352 52.3183 24.648 49.3988 24.1291C49.3349 24.1271 49.2709 24.1401 49.2189 24.1921C47.4122 26.3567 44.3768 26.7056 41.4323 26.8826C41.3884 26.8836 41.3464 26.9016 41.3164 26.9346C39.4137 28.8022 36.5603 29.5831 34.0258 28.9502C33.9238 28.9222 33.8208 28.9872 33.7938 29.0931C33.7658 29.1981 33.8258 29.3061 33.9298 29.3371C34.4987 29.4801 35.0825 29.5581 35.6694 29.5681V29.5811ZM97.6297 41.0549C97.6687 41.0559 97.7087 41.0569 97.7487 41.0199C100.306 39.2652 103.882 38.8153 106.839 39.8781C106.944 39.9171 107.063 39.8701 107.091 39.7701C107.112 39.7231 107.111 39.6701 107.089 39.6242C107.067 39.5782 107.026 39.5442 106.977 39.5312C103.889 38.4284 100.181 38.8883 97.5167 40.7289C97.4738 40.7559 97.4448 40.7999 97.4358 40.8499C97.4278 40.8999 97.4408 40.9509 97.4727 40.9899C97.5107 41.0379 97.5687 41.0659 97.6297 41.0679V41.0549ZM84.6032 106.302C84.6482 106.302 84.6912 106.29 84.7292 106.267C88.1665 103.511 90.0941 99.0699 89.7702 94.6658C89.7722 94.5648 89.6732 94.4878 89.5732 94.4858C89.4733 94.4848 89.3963 94.5838 89.3943 94.6847C89.7212 98.9629 87.8456 103.279 84.4972 105.948C84.4202 106.015 84.4072 106.13 84.4682 106.212C84.5042 106.263 84.5542 106.276 84.6162 106.277L84.6032 106.302ZM91.7158 83.3519L91.7818 83.3529C95.2682 82.1301 98.0566 79.1457 99.0574 75.5694C99.0854 75.4634 99.0215 75.3554 98.9165 75.3134C98.8115 75.2844 98.7035 75.3494 98.6625 75.4554C97.6907 78.9127 94.9962 81.7922 91.6439 82.976C91.5369 83.015 91.4819 83.1339 91.5199 83.2279C91.5459 83.3069 91.6189 83.3619 91.7028 83.3649L91.7158 83.3519ZM70.8748 123.172C71.2067 123.178 71.5387 123.159 71.8706 123.128C74.4901 122.853 76.7627 121.221 77.5135 119.069C77.5535 118.971 77.4915 118.871 77.3905 118.833C77.2886 118.794 77.1856 118.854 77.1456 118.952C76.4477 120.981 74.3041 122.506 71.8256 122.758C69.692 122.98 67.3315 122.312 65.1759 120.872C65.0889 120.811 64.9689 120.831 64.9069 120.917C64.8419 121.002 64.8659 121.113 64.9539 121.176C66.8575 122.45 68.9242 123.138 70.8748 123.172ZM62.5704 113.345C62.6453 113.347 62.7163 113.309 62.7553 113.244C62.8093 113.154 62.7593 113.024 62.6683 112.983C56.6305 109.832 52.3713 103.69 51.5714 96.9733C51.5564 96.8663 51.4595 96.7903 51.3525 96.8003C51.2455 96.8143 51.1695 96.9103 51.1785 97.0173C52.0013 103.865 56.3255 110.125 62.4794 113.33C62.5074 113.345 62.5384 113.355 62.5704 113.358V113.345ZM129.409 92.2002H129.446C135.166 90.9524 140.039 85.9344 141.301 79.9985C141.327 79.8955 141.254 79.7906 141.155 79.7626C141.057 79.7356 140.955 79.8116 140.929 79.9145C139.707 85.6954 134.947 90.5865 129.366 91.8113C129.264 91.8363 129.201 91.9393 129.225 92.0412C129.248 92.1322 129.322 92.1982 129.409 92.2002ZM121.334 86.8412C123.957 86.8872 126.594 86.0024 128.553 84.3067C128.589 84.2757 128.611 84.2307 128.611 84.1827C128.612 84.1347 128.592 84.0888 128.557 84.0568C128.484 83.9838 128.367 83.9818 128.292 84.0518C125.719 86.2733 121.746 87.0752 118.436 86.0284C118.336 85.9904 118.234 86.0484 118.195 86.1434C118.155 86.2383 118.217 86.3343 118.317 86.3723C119.295 86.6743 120.31 86.8362 121.334 86.8532V86.8412ZM120.736 99.4758C122.264 99.5018 123.797 99.2829 125.257 98.831C125.356 98.796 125.413 98.69 125.387 98.588C125.355 98.487 125.251 98.429 125.15 98.454C121.428 99.6298 117.192 99.1429 113.828 97.1603C113.74 97.1073 113.613 97.1443 113.561 97.2333C113.512 97.3292 113.542 97.4472 113.633 97.5062C115.77 98.77 118.248 99.4458 120.735 99.4888L120.736 99.4758ZM142.178 126.639C142.203 126.639 142.229 126.64 142.254 126.627C145.401 125.402 148.854 124.836 152.217 124.971C152.332 124.973 152.409 124.897 152.412 124.782C152.413 124.731 152.395 124.681 152.359 124.645C152.324 124.608 152.275 124.587 152.224 124.587C148.774 124.454 145.332 125.026 142.108 126.267C142.006 126.303 141.966 126.417 142.002 126.521C142.026 126.598 142.101 126.637 142.178 126.639ZM121.093 164.953C121.118 164.954 121.142 164.954 121.167 164.942C121.266 164.907 121.305 164.796 121.269 164.697C120.131 161.798 118.535 159.138 116.542 156.755C116.47 156.679 116.36 156.665 116.286 156.738C116.248 156.77 116.225 156.815 116.222 156.864C116.218 156.913 116.235 156.961 116.268 156.997C118.239 159.341 119.816 161.989 120.936 164.839C120.959 164.914 121.032 164.952 121.106 164.953H121.093ZM126.333 118.925C126.422 118.927 126.499 118.863 126.526 118.772C126.553 118.67 126.493 118.564 126.391 118.535C120.18 116.97 114.77 112.227 112.269 106.156C112.233 106.051 112.12 106.01 112.018 106.047C111.916 106.084 111.876 106.201 111.912 106.306C114.45 112.482 119.958 117.317 126.296 118.911L126.333 118.912V118.925Z" fill="var(--fill-0, #0D0E0F)"/>
<path id="Vector_13" d="M44.4571 40.2463C44.5021 40.2473 44.5332 40.2483 44.5792 40.2253C44.6852 40.1813 44.7322 40.0783 44.6582 39.9853C44.2452 39.4243 43.5881 38.9853 42.7911 38.7413C42.6711 38.7043 42.5342 38.7483 42.5032 38.8403C42.4562 38.9313 42.5142 39.0363 42.6352 39.0613C43.3112 39.2693 43.9091 39.6603 44.2631 40.1513C44.3071 40.2093 44.3821 40.2343 44.4571 40.2353V40.2463Z" fill="var(--fill-0, #0D0E0F)"/>
<path id="Vector_14" d="M86.9547 170.102C84.7942 169.497 82.4566 169.519 80.312 170.177C84.3622 173.61 88.0295 177.472 91.2499 181.694C89.8032 177.834 88.3675 173.97 86.9417 170.102H86.9547Z" fill="var(--fill-0, #C5FFD8)"/>
<path id="Vector_15" d="M7.37079 83.7078C6.94087 83.5938 6.41497 83.6168 5.94306 83.7798C5.46915 83.9438 5.06723 84.2407 4.86026 84.6586L4.84627 84.6866L4.82427 84.7076C3.96543 85.5125 3.91544 86.7532 4.40535 87.6251C4.90326 88.5239 5.81608 89.1468 6.75991 89.7687L6.7619 89.7707C7.68073 90.3966 8.65855 91.0694 9.27943 91.9533L9.31142 91.9993V92.0462C9.31242 92.0572 9.31442 92.0702 9.31442 92.0872C9.31642 92.1262 9.31442 92.1852 9.30642 92.2842L9.29343 92.4412L9.13546 92.4402C8.69454 92.4382 8.25362 92.6441 7.90469 92.9621C7.55475 93.282 7.3158 93.6999 7.26281 94.0979C7.15583 94.9067 7.61674 95.6406 8.29661 96.1575C8.63855 96.4094 9.02648 96.6154 9.4384 96.8153C9.84532 97.0123 10.2852 97.2063 10.7002 97.4262L10.7901 97.4732L10.7911 97.5742C10.7991 97.9581 10.6652 98.3311 10.5282 98.674C10.3862 99.0289 10.2432 99.3519 10.1903 99.6798C10.0363 100.607 10.6872 101.442 11.605 101.89C12.0779 102.12 12.3628 102.325 12.4498 102.633C12.4918 102.784 12.4808 102.94 12.4478 103.103C12.4158 103.264 12.3588 103.451 12.2949 103.664L12.2899 103.681L12.2819 103.696C11.8799 104.443 12.1639 105.291 12.7278 105.898L12.7288 105.9C13.0057 106.205 13.3417 106.468 13.6956 106.732C14.0015 106.961 14.3235 107.193 14.6164 107.45L14.7394 107.561C14.9444 107.752 15.2943 107.929 15.7422 108.101C16.1851 108.271 16.702 108.428 17.2249 108.589C17.7448 108.749 18.2707 108.912 18.7216 109.092C19.1676 109.271 19.5645 109.475 19.8084 109.727C21.0912 111.04 23.0958 111.744 25.2064 111.868C27.237 111.988 29.3656 111.619 31.4172 111.012L24.5235 102.367L24.5035 102.377L24.4186 102.279L23.4068 101.118C23.0708 100.731 22.7349 100.345 22.3959 99.9548L22.3949 99.9558L22.3929 99.9517C20.5013 97.6772 18.6197 95.3936 16.747 93.103C15.4873 91.7103 14.2945 90.1846 13.1147 88.7499C11.9309 87.3111 10.7581 85.9604 9.52638 84.9006C8.87051 84.3377 8.27162 83.9588 7.37079 83.7078Z" fill="var(--fill-0, #C5FFD8)" stroke="var(--stroke-1, #0D0E0F)" stroke-width="0.902829" stroke-miterlimit="10"/>
<path id="Vector_16" d="M19.3675 93.301C19.2136 95.5796 18.6447 97.5862 18.0228 99.5418L17.7258 100.466C17.5939 100.876 17.2839 101.32 16.915 101.771C16.5441 102.224 16.0951 102.704 15.6722 103.175C15.2463 103.651 14.8454 104.12 14.5554 104.565C14.2635 105.014 14.1025 105.411 14.1185 105.747C14.1895 107.235 15.3303 108.58 16.781 109.861C17.5029 110.498 18.2877 111.107 19.0356 111.704C19.7794 112.298 20.4893 112.882 21.0462 113.459C21.7171 114.158 22.4349 114.874 23.2228 115.412C24.0096 115.949 24.8565 116.303 25.7873 116.295L25.9113 116.29C26.5382 116.247 27.227 115.93 27.9129 115.509C28.6428 115.061 29.3296 114.521 29.9165 114.113C31.8362 112.759 33.7298 111.366 35.5925 109.934C36.7232 105.666 35.6424 100.927 32.717 97.8182C32.611 98.758 32.846 99.7048 33.3779 100.487L33.1319 100.718C32.1361 99.9298 31.1413 99.1399 30.1465 98.3491C29.1787 97.5792 28.2108 96.8103 27.244 96.0445C25.7413 96.7154 23.9956 96.6384 22.4839 96.0205C21.1752 95.4856 20.0314 94.5388 19.3675 93.301Z" fill="var(--fill-0, #C5FFD8)" stroke="var(--stroke-1, #0D0E0F)" stroke-width="0.902829" stroke-miterlimit="10"/>
<path id="Vector_17" d="M2.88464 70.4633C2.67368 70.1744 2.27575 70.0974 1.97281 70.2874L1.91282 70.3284L0.76004 71.2572L0.75704 71.2592C0.615067 71.3712 0.524084 71.5371 0.504088 71.7171C0.484092 71.8981 0.538082 72.079 0.65306 72.219L0.655059 72.221L22.5549 99.6638L22.5559 99.6648C22.7849 99.9558 23.2028 100.003 23.4897 99.7698L23.4907 99.7688L24.6485 98.849L24.6495 98.848L24.7025 98.802C24.9545 98.552 24.9765 98.1511 24.7535 97.8751V97.8731C22.5919 95.2087 14.8284 85.6395 13.4076 83.6378L13.4036 83.6398C12.0619 81.7442 10.1633 79.4616 8.23063 77.1451C6.30199 74.8315 4.34036 72.4829 2.88464 70.4633Z" fill="var(--fill-0, #0D0E0F)" stroke="var(--stroke-1, #C5FFD8)" stroke-miterlimit="10"/>
<path id="Vector_18" d="M20.2594 83.5149C19.3415 83.0759 18.5917 82.902 17.7658 83.2639C17.5669 83.3499 17.4479 83.4819 17.3859 83.6478C17.3219 83.8188 17.3139 84.0418 17.3699 84.3107C17.4809 84.8516 17.8368 85.5285 18.3677 86.2183C19.3975 87.5571 21.0312 88.8818 22.6169 89.3248L22.7709 89.3648C22.9488 89.4067 23.1638 89.4617 23.3758 89.5147C24.6475 89.8247 25.5514 90.9375 25.6223 92.2312L25.6263 92.3582C25.6413 93.6719 25.7593 95.4286 26.1592 97.1503C26.5602 98.874 27.24 100.543 28.3668 101.699L28.3688 101.702L28.3708 101.704C29.1867 102.614 30.4884 103.726 31.8782 104.475C33.2519 105.215 34.6616 105.575 35.7704 105.11C35.8974 104.787 35.9544 104.266 35.9534 103.621C35.9524 102.942 35.8874 102.152 35.7884 101.367C35.5915 99.7928 35.2655 98.2621 35.0716 97.7032L35.0775 97.7002C33.4699 93.9209 32.435 90.7065 29.8425 87.6211L29.8395 87.6171C29.1337 86.7302 28.1269 86.3583 27.0151 86.1014C26.4522 85.9714 25.8933 85.8764 25.3164 85.7534C24.7485 85.6315 24.1856 85.4855 23.6637 85.2605C22.9558 84.9566 22.334 84.6296 21.7751 84.3237C21.2132 84.0168 20.7213 83.7358 20.2594 83.5149Z" fill="var(--fill-0, #C5FFD8)" stroke="var(--stroke-1, #0D0E0F)" stroke-width="0.902829" stroke-miterlimit="10"/>
<path id="Vector_19" d="M6.94287 83.4479C9.15845 84.2847 11.0801 85.7744 12.9767 87.2372C13.5726 87.6991 14.1935 88.173 14.5884 88.8369C14.9963 89.4887 15.1403 90.3796 14.7594 91.0564C14.3785 91.7323 13.3877 91.9993 12.8548 91.4484L6.93087 83.4599L6.94287 83.4479Z" fill="var(--fill-0, #C5FFD8)"/>
<path id="Vector_20" d="M26.5632 114.371H26.6111C27.9449 113.921 29.1777 113.008 30.0905 111.812C30.1515 111.73 30.1545 111.591 30.0715 111.519C30.0005 111.448 29.8795 111.447 29.8175 111.543C28.9417 112.683 27.7709 113.541 26.5102 113.965C26.4132 113.992 26.3622 114.116 26.3852 114.228C26.4072 114.326 26.4782 114.383 26.5512 114.384L26.5632 114.371ZM27.8319 105.468C27.8599 105.47 27.8869 105.466 27.9129 105.457C28.0049 105.413 28.0429 105.303 27.9979 105.211C27.0771 103.058 26.7621 100.582 27.1141 98.2411C27.1271 98.1421 27.0601 98.0421 26.9681 98.0281C26.8761 98.0141 26.7821 98.0871 26.7691 98.1851C26.4042 100.601 26.7291 103.151 27.6839 105.367C27.7179 105.429 27.7739 105.479 27.8439 105.481L27.8319 105.468ZM13.2117 92.5821C14.2505 92.5991 15.4023 91.9913 15.6392 90.8835C15.6672 90.7795 15.5922 90.6735 15.4893 90.6455C15.3873 90.6175 15.2833 90.6945 15.2563 90.7985C15.0603 91.7243 13.9875 92.2422 13.1157 92.1872C12.1299 92.1182 11.2161 91.5523 10.4562 91.0164L10.2153 90.8425C9.4554 90.3056 8.65655 89.7427 7.73772 89.5177C7.68773 89.5047 7.63574 89.5117 7.59175 89.5387C7.54776 89.5647 7.51676 89.6077 7.50476 89.6567C7.47677 89.7607 7.53776 89.8667 7.64174 89.8947C8.49658 90.1196 9.25643 90.6555 9.99129 91.1654L10.2322 91.3394C11.0441 91.9033 11.9949 92.5082 13.0837 92.5791L13.1987 92.5811L13.2117 92.5821ZM14.3565 97.8082C14.8884 97.8162 15.4203 97.7932 15.9502 97.7392C16.5111 97.6772 17.1469 97.5792 17.6878 97.2393C18.1777 96.9223 18.6247 96.3034 18.5117 95.6386C18.3637 94.8167 17.5259 94.3678 16.722 94.0529C15.4563 93.547 14.1835 93.0591 12.9037 92.5881C12.8048 92.5511 12.6918 92.5971 12.6648 92.6931C12.6268 92.7891 12.6738 92.8981 12.7728 92.9231C14.0515 93.382 15.3203 93.8669 16.58 94.3758C17.2839 94.6648 18.0238 95.0397 18.1368 95.6806C18.2277 96.1885 17.8718 96.6644 17.4809 96.9223C17.016 97.2163 16.4301 97.3142 15.9192 97.3652C14.6284 97.5022 13.3247 97.4392 12.0529 97.1783C11.9539 97.1523 11.8529 97.2223 11.8259 97.3192C11.8 97.4152 11.8729 97.5122 11.9719 97.5382C12.7658 97.6972 13.5606 97.7832 14.3565 97.7962V97.8082ZM14.1855 103.012C15.1453 103.028 16.0941 102.9 17.02 102.666C17.7888 102.468 18.5667 102.469 19.2775 102.652C20.9562 103.089 22.165 102.966 22.6569 102.289C22.9888 101.834 22.9608 101.202 22.5699 100.536C21.6001 98.859 18.7576 97.4402 15.1813 97.9571C15.0743 97.9731 14.9983 98.0701 15.0083 98.1781C15.0203 98.2841 15.1223 98.365 15.2263 98.354C19.0236 97.8132 21.4851 99.4898 22.216 100.741C22.5189 101.26 22.5489 101.734 22.324 102.046C21.925 102.579 20.8472 102.653 19.3495 102.258C18.5737 102.06 17.7308 102.059 16.897 102.268C15.9982 102.503 15.0743 102.605 14.1535 102.603C14.0465 102.604 13.9595 102.69 13.9555 102.797C13.9555 102.904 14.0395 102.993 14.1465 102.998L14.1855 103.012Z" fill="var(--fill-0, #0D0E0F)"/>
<path id="Vector_21" d="M15.9002 105.862C16.2081 105.868 16.5041 105.813 16.815 105.712C17.5119 105.486 18.2197 105.427 18.8596 105.557C21.6631 106.129 23.2968 106.014 23.5667 105.245C23.8917 104.287 21.877 102.67 18.8786 101.464C18.7766 101.426 18.6607 101.46 18.6207 101.554C18.5807 101.649 18.6167 101.757 18.7186 101.794C21.6281 102.963 23.4128 104.493 23.1968 105.132C23.0478 105.558 21.862 105.799 18.9426 105.201C18.2257 105.058 17.4409 105.116 16.679 105.364C16.1101 105.557 15.6102 105.536 14.9464 105.287C14.8444 105.249 14.7284 105.283 14.7004 105.389C14.6604 105.484 14.6964 105.592 14.8124 105.618C15.2073 105.767 15.5532 105.832 15.9002 105.839V105.862Z" fill="var(--fill-0, #0D0E0F)"/>
<path id="Vector_22" d="M13.7126 79.9475C13.7496 79.9485 13.7876 79.9495 13.8126 79.9085L17.9668 76.6661C18.0428 76.5982 18.0698 76.4732 18.0088 76.3882C17.9488 76.2902 17.8378 76.2742 17.7618 76.3422L13.6066 79.5846C13.5316 79.6526 13.5046 79.7776 13.5656 79.8615C13.5956 79.9145 13.6516 79.9475 13.7126 79.9475ZM20.4943 74.1146C20.5323 74.1156 20.5683 74.1166 20.5943 74.0836L22.4809 72.9429C22.5679 72.8899 22.5819 72.7919 22.5219 72.7259C22.4609 72.6599 22.352 72.6359 22.277 72.6889L20.3893 73.8307C20.3023 73.8827 20.2883 73.9807 20.3483 74.0476C20.3843 74.0906 20.4383 74.1156 20.4943 74.1146ZM11.588 74.7045C11.656 74.7095 11.72 74.6775 11.758 74.6215L15.9122 69.1016C15.9402 69.0616 15.9492 69.0126 15.9392 68.9666C15.9302 68.9196 15.9012 68.8786 15.8602 68.8536C15.7632 68.8026 15.6362 68.8246 15.5792 68.8976L11.424 74.4176C11.397 74.4576 11.387 74.5066 11.397 74.5525C11.407 74.5995 11.436 74.6405 11.476 74.6655C11.504 74.6915 11.546 74.6915 11.588 74.6925V74.7045ZM18.4377 64.4095C18.5017 64.4135 18.5617 64.3815 18.5957 64.3265L20.4933 61.742C20.5463 61.657 20.5353 61.547 20.4453 61.497C20.3543 61.447 20.2374 61.457 20.1834 61.541L18.2857 64.1265C18.2317 64.2105 18.2427 64.3205 18.3337 64.3715C18.3587 64.3955 18.3987 64.3965 18.4377 64.3975V64.4095ZM7.8387 73.8957C7.91169 73.8967 7.97568 73.8287 7.98767 73.7307L8.50657 69.6685C8.51857 69.5575 8.46758 69.4585 8.3846 69.4435C8.30161 69.4285 8.22763 69.4965 8.21563 69.6075L7.69673 73.6697C7.68473 73.7817 7.73472 73.8797 7.8177 73.8947L7.8387 73.8957ZM9.4434 66.4851C9.50738 66.4861 9.56337 66.4261 9.57437 66.3401L10.1203 62.2429C10.1313 62.1459 10.0863 62.0589 10.0143 62.0329C9.9413 62.0199 9.87632 62.0799 9.85632 62.1779L9.31042 66.2741C9.29942 66.3721 9.34342 66.4591 9.4164 66.4841L9.4344 66.4851H9.4434ZM4.62731 71.6081L4.6543 71.6091C4.72629 71.5961 4.77228 71.4841 4.76528 71.3711L4.35336 67.3119C4.34736 67.1989 4.27737 67.127 4.20539 67.1399C4.1334 67.1529 4.08741 67.2649 4.09441 67.3779L4.50533 71.4371C4.51333 71.5361 4.56532 71.6071 4.62731 71.6081ZM17.3869 81.5002H17.4109C19.5085 81.2693 21.6161 81.1573 23.7257 81.1653C23.8247 81.1673 23.9007 81.0963 23.9017 81.0133C23.9037 80.9303 23.8177 80.8674 23.7317 80.8654C21.6051 80.8584 19.4805 80.9693 17.3669 81.1993C17.2679 81.2083 17.2039 81.2903 17.2159 81.3623C17.2269 81.4353 17.2999 81.4882 17.3869 81.4892V81.5002Z" fill="var(--fill-0, #C5FFD8)"/>
</g>
</svg>
